G04 EAGLE Gerber RS-274X export*
G75*
%MOMM*%
%FSLAX34Y34*%
%LPD*%
%INMill Layer*%
%IPPOS*%
%AMOC8*
5,1,8,0,0,1.08239X$1,22.5*%
G01*
%ADD10C,0.000000*%
%ADD11C,0.254000*%


D10*
X51000Y760D02*
X1911350Y760D01*
X1912578Y775D01*
X1913804Y819D01*
X1915030Y893D01*
X1916253Y997D01*
X1917473Y1130D01*
X1918690Y1293D01*
X1919903Y1485D01*
X1921110Y1706D01*
X1922312Y1957D01*
X1923507Y2236D01*
X1924696Y2544D01*
X1925876Y2881D01*
X1927048Y3246D01*
X1928211Y3640D01*
X1929364Y4061D01*
X1930506Y4510D01*
X1931638Y4987D01*
X1932757Y5491D01*
X1933864Y6022D01*
X1934958Y6579D01*
X1936038Y7162D01*
X1937104Y7772D01*
X1938154Y8407D01*
X1939189Y9067D01*
X1940208Y9752D01*
X1941209Y10462D01*
X1942194Y11195D01*
X1943160Y11953D01*
X1944108Y12733D01*
X1945037Y13536D01*
X1945946Y14361D01*
X1946834Y15208D01*
X1947702Y16076D01*
X1948549Y16964D01*
X1949374Y17873D01*
X1950177Y18802D01*
X1950957Y19750D01*
X1951715Y20716D01*
X1952448Y21701D01*
X1953158Y22702D01*
X1953843Y23721D01*
X1954503Y24756D01*
X1955138Y25806D01*
X1955748Y26872D01*
X1956331Y27952D01*
X1956888Y29046D01*
X1957419Y30153D01*
X1957923Y31272D01*
X1958400Y32404D01*
X1958849Y33546D01*
X1959270Y34699D01*
X1959664Y35862D01*
X1960029Y37034D01*
X1960366Y38214D01*
X1960674Y39403D01*
X1960953Y40598D01*
X1961204Y41800D01*
X1961425Y43007D01*
X1961617Y44220D01*
X1961780Y45437D01*
X1961913Y46657D01*
X1962017Y47880D01*
X1962091Y49106D01*
X1962135Y50332D01*
X1962150Y51560D01*
X1962150Y848360D01*
X1962135Y849588D01*
X1962091Y850814D01*
X1962017Y852040D01*
X1961913Y853263D01*
X1961780Y854483D01*
X1961617Y855700D01*
X1961425Y856913D01*
X1961204Y858120D01*
X1960953Y859322D01*
X1960674Y860517D01*
X1960366Y861706D01*
X1960029Y862886D01*
X1959664Y864058D01*
X1959270Y865221D01*
X1958849Y866374D01*
X1958400Y867516D01*
X1957923Y868648D01*
X1957419Y869767D01*
X1956888Y870874D01*
X1956331Y871968D01*
X1955748Y873048D01*
X1955138Y874114D01*
X1954503Y875164D01*
X1953843Y876199D01*
X1953158Y877218D01*
X1952448Y878219D01*
X1951715Y879204D01*
X1950957Y880170D01*
X1950177Y881118D01*
X1949374Y882047D01*
X1948549Y882956D01*
X1947702Y883844D01*
X1946834Y884712D01*
X1945946Y885559D01*
X1945037Y886384D01*
X1944108Y887187D01*
X1943160Y887967D01*
X1942194Y888725D01*
X1941209Y889458D01*
X1940208Y890168D01*
X1939189Y890853D01*
X1938154Y891513D01*
X1937104Y892148D01*
X1936038Y892758D01*
X1934958Y893341D01*
X1933864Y893898D01*
X1932757Y894429D01*
X1931638Y894933D01*
X1930506Y895410D01*
X1929364Y895859D01*
X1928211Y896280D01*
X1927048Y896674D01*
X1925876Y897039D01*
X1924696Y897376D01*
X1923507Y897684D01*
X1922312Y897963D01*
X1921110Y898214D01*
X1919903Y898435D01*
X1918690Y898627D01*
X1917473Y898790D01*
X1916253Y898923D01*
X1915030Y899027D01*
X1913804Y899101D01*
X1912578Y899145D01*
X1911350Y899160D01*
X51000Y899160D01*
X49772Y899145D01*
X48546Y899101D01*
X47320Y899027D01*
X46097Y898923D01*
X44877Y898790D01*
X43660Y898627D01*
X42447Y898435D01*
X41240Y898214D01*
X40038Y897963D01*
X38843Y897684D01*
X37654Y897376D01*
X36474Y897039D01*
X35302Y896674D01*
X34139Y896280D01*
X32986Y895859D01*
X31844Y895410D01*
X30712Y894933D01*
X29593Y894429D01*
X28486Y893898D01*
X27392Y893341D01*
X26312Y892758D01*
X25246Y892148D01*
X24196Y891513D01*
X23161Y890853D01*
X22142Y890168D01*
X21141Y889458D01*
X20156Y888725D01*
X19190Y887967D01*
X18242Y887187D01*
X17313Y886384D01*
X16404Y885559D01*
X15516Y884712D01*
X14648Y883844D01*
X13801Y882956D01*
X12976Y882047D01*
X12173Y881118D01*
X11393Y880170D01*
X10635Y879204D01*
X9902Y878219D01*
X9192Y877218D01*
X8507Y876199D01*
X7847Y875164D01*
X7212Y874114D01*
X6602Y873048D01*
X6019Y871968D01*
X5462Y870874D01*
X4931Y869767D01*
X4427Y868648D01*
X3950Y867516D01*
X3501Y866374D01*
X3080Y865221D01*
X2686Y864058D01*
X2321Y862886D01*
X1984Y861706D01*
X1676Y860517D01*
X1397Y859322D01*
X1146Y858120D01*
X925Y856913D01*
X733Y855700D01*
X570Y854483D01*
X437Y853263D01*
X333Y852040D01*
X259Y850814D01*
X215Y849588D01*
X200Y848360D01*
X200Y51560D01*
X215Y50332D01*
X259Y49106D01*
X333Y47880D01*
X437Y46657D01*
X570Y45437D01*
X733Y44220D01*
X925Y43007D01*
X1146Y41800D01*
X1397Y40598D01*
X1676Y39403D01*
X1984Y38214D01*
X2321Y37034D01*
X2686Y35862D01*
X3080Y34699D01*
X3501Y33546D01*
X3950Y32404D01*
X4427Y31272D01*
X4931Y30153D01*
X5462Y29046D01*
X6019Y27952D01*
X6602Y26872D01*
X7212Y25806D01*
X7847Y24756D01*
X8507Y23721D01*
X9192Y22702D01*
X9902Y21701D01*
X10635Y20716D01*
X11393Y19750D01*
X12173Y18802D01*
X12976Y17873D01*
X13801Y16964D01*
X14648Y16076D01*
X15516Y15208D01*
X16404Y14361D01*
X17313Y13536D01*
X18242Y12733D01*
X19190Y11953D01*
X20156Y11195D01*
X21141Y10462D01*
X22142Y9752D01*
X23161Y9067D01*
X24196Y8407D01*
X25246Y7772D01*
X26312Y7162D01*
X27392Y6579D01*
X28486Y6022D01*
X29593Y5491D01*
X30712Y4987D01*
X31844Y4510D01*
X32986Y4061D01*
X34139Y3640D01*
X35302Y3246D01*
X36474Y2881D01*
X37654Y2544D01*
X38843Y2236D01*
X40038Y1957D01*
X41240Y1706D01*
X42447Y1485D01*
X43660Y1293D01*
X44877Y1130D01*
X46097Y997D01*
X47320Y893D01*
X48546Y819D01*
X49772Y775D01*
X51000Y760D01*
X29450Y41910D02*
X29455Y42278D01*
X29468Y42646D01*
X29491Y43013D01*
X29522Y43380D01*
X29563Y43746D01*
X29612Y44111D01*
X29671Y44474D01*
X29738Y44836D01*
X29814Y45197D01*
X29900Y45555D01*
X29993Y45911D01*
X30096Y46264D01*
X30207Y46615D01*
X30327Y46963D01*
X30455Y47308D01*
X30592Y47650D01*
X30737Y47989D01*
X30890Y48323D01*
X31052Y48654D01*
X31221Y48981D01*
X31399Y49303D01*
X31584Y49622D01*
X31777Y49935D01*
X31978Y50244D01*
X32186Y50547D01*
X32402Y50845D01*
X32625Y51138D01*
X32855Y51426D01*
X33092Y51708D01*
X33336Y51983D01*
X33586Y52253D01*
X33843Y52517D01*
X34107Y52774D01*
X34377Y53024D01*
X34652Y53268D01*
X34934Y53505D01*
X35222Y53735D01*
X35515Y53958D01*
X35813Y54174D01*
X36116Y54382D01*
X36425Y54583D01*
X36738Y54776D01*
X37057Y54961D01*
X37379Y55139D01*
X37706Y55308D01*
X38037Y55470D01*
X38371Y55623D01*
X38710Y55768D01*
X39052Y55905D01*
X39397Y56033D01*
X39745Y56153D01*
X40096Y56264D01*
X40449Y56367D01*
X40805Y56460D01*
X41163Y56546D01*
X41524Y56622D01*
X41886Y56689D01*
X42249Y56748D01*
X42614Y56797D01*
X42980Y56838D01*
X43347Y56869D01*
X43714Y56892D01*
X44082Y56905D01*
X44450Y56910D01*
X44818Y56905D01*
X45186Y56892D01*
X45553Y56869D01*
X45920Y56838D01*
X46286Y56797D01*
X46651Y56748D01*
X47014Y56689D01*
X47376Y56622D01*
X47737Y56546D01*
X48095Y56460D01*
X48451Y56367D01*
X48804Y56264D01*
X49155Y56153D01*
X49503Y56033D01*
X49848Y55905D01*
X50190Y55768D01*
X50529Y55623D01*
X50863Y55470D01*
X51194Y55308D01*
X51521Y55139D01*
X51843Y54961D01*
X52162Y54776D01*
X52475Y54583D01*
X52784Y54382D01*
X53087Y54174D01*
X53385Y53958D01*
X53678Y53735D01*
X53966Y53505D01*
X54248Y53268D01*
X54523Y53024D01*
X54793Y52774D01*
X55057Y52517D01*
X55314Y52253D01*
X55564Y51983D01*
X55808Y51708D01*
X56045Y51426D01*
X56275Y51138D01*
X56498Y50845D01*
X56714Y50547D01*
X56922Y50244D01*
X57123Y49935D01*
X57316Y49622D01*
X57501Y49303D01*
X57679Y48981D01*
X57848Y48654D01*
X58010Y48323D01*
X58163Y47989D01*
X58308Y47650D01*
X58445Y47308D01*
X58573Y46963D01*
X58693Y46615D01*
X58804Y46264D01*
X58907Y45911D01*
X59000Y45555D01*
X59086Y45197D01*
X59162Y44836D01*
X59229Y44474D01*
X59288Y44111D01*
X59337Y43746D01*
X59378Y43380D01*
X59409Y43013D01*
X59432Y42646D01*
X59445Y42278D01*
X59450Y41910D01*
X59445Y41542D01*
X59432Y41174D01*
X59409Y40807D01*
X59378Y40440D01*
X59337Y40074D01*
X59288Y39709D01*
X59229Y39346D01*
X59162Y38984D01*
X59086Y38623D01*
X59000Y38265D01*
X58907Y37909D01*
X58804Y37556D01*
X58693Y37205D01*
X58573Y36857D01*
X58445Y36512D01*
X58308Y36170D01*
X58163Y35831D01*
X58010Y35497D01*
X57848Y35166D01*
X57679Y34839D01*
X57501Y34517D01*
X57316Y34198D01*
X57123Y33885D01*
X56922Y33576D01*
X56714Y33273D01*
X56498Y32975D01*
X56275Y32682D01*
X56045Y32394D01*
X55808Y32112D01*
X55564Y31837D01*
X55314Y31567D01*
X55057Y31303D01*
X54793Y31046D01*
X54523Y30796D01*
X54248Y30552D01*
X53966Y30315D01*
X53678Y30085D01*
X53385Y29862D01*
X53087Y29646D01*
X52784Y29438D01*
X52475Y29237D01*
X52162Y29044D01*
X51843Y28859D01*
X51521Y28681D01*
X51194Y28512D01*
X50863Y28350D01*
X50529Y28197D01*
X50190Y28052D01*
X49848Y27915D01*
X49503Y27787D01*
X49155Y27667D01*
X48804Y27556D01*
X48451Y27453D01*
X48095Y27360D01*
X47737Y27274D01*
X47376Y27198D01*
X47014Y27131D01*
X46651Y27072D01*
X46286Y27023D01*
X45920Y26982D01*
X45553Y26951D01*
X45186Y26928D01*
X44818Y26915D01*
X44450Y26910D01*
X44082Y26915D01*
X43714Y26928D01*
X43347Y26951D01*
X42980Y26982D01*
X42614Y27023D01*
X42249Y27072D01*
X41886Y27131D01*
X41524Y27198D01*
X41163Y27274D01*
X40805Y27360D01*
X40449Y27453D01*
X40096Y27556D01*
X39745Y27667D01*
X39397Y27787D01*
X39052Y27915D01*
X38710Y28052D01*
X38371Y28197D01*
X38037Y28350D01*
X37706Y28512D01*
X37379Y28681D01*
X37057Y28859D01*
X36738Y29044D01*
X36425Y29237D01*
X36116Y29438D01*
X35813Y29646D01*
X35515Y29862D01*
X35222Y30085D01*
X34934Y30315D01*
X34652Y30552D01*
X34377Y30796D01*
X34107Y31046D01*
X33843Y31303D01*
X33586Y31567D01*
X33336Y31837D01*
X33092Y32112D01*
X32855Y32394D01*
X32625Y32682D01*
X32402Y32975D01*
X32186Y33273D01*
X31978Y33576D01*
X31777Y33885D01*
X31584Y34198D01*
X31399Y34517D01*
X31221Y34839D01*
X31052Y35166D01*
X30890Y35497D01*
X30737Y35831D01*
X30592Y36170D01*
X30455Y36512D01*
X30327Y36857D01*
X30207Y37205D01*
X30096Y37556D01*
X29993Y37909D01*
X29900Y38265D01*
X29814Y38623D01*
X29738Y38984D01*
X29671Y39346D01*
X29612Y39709D01*
X29563Y40074D01*
X29522Y40440D01*
X29491Y40807D01*
X29468Y41174D01*
X29455Y41542D01*
X29450Y41910D01*
X29450Y854710D02*
X29455Y855078D01*
X29468Y855446D01*
X29491Y855813D01*
X29522Y856180D01*
X29563Y856546D01*
X29612Y856911D01*
X29671Y857274D01*
X29738Y857636D01*
X29814Y857997D01*
X29900Y858355D01*
X29993Y858711D01*
X30096Y859064D01*
X30207Y859415D01*
X30327Y859763D01*
X30455Y860108D01*
X30592Y860450D01*
X30737Y860789D01*
X30890Y861123D01*
X31052Y861454D01*
X31221Y861781D01*
X31399Y862103D01*
X31584Y862422D01*
X31777Y862735D01*
X31978Y863044D01*
X32186Y863347D01*
X32402Y863645D01*
X32625Y863938D01*
X32855Y864226D01*
X33092Y864508D01*
X33336Y864783D01*
X33586Y865053D01*
X33843Y865317D01*
X34107Y865574D01*
X34377Y865824D01*
X34652Y866068D01*
X34934Y866305D01*
X35222Y866535D01*
X35515Y866758D01*
X35813Y866974D01*
X36116Y867182D01*
X36425Y867383D01*
X36738Y867576D01*
X37057Y867761D01*
X37379Y867939D01*
X37706Y868108D01*
X38037Y868270D01*
X38371Y868423D01*
X38710Y868568D01*
X39052Y868705D01*
X39397Y868833D01*
X39745Y868953D01*
X40096Y869064D01*
X40449Y869167D01*
X40805Y869260D01*
X41163Y869346D01*
X41524Y869422D01*
X41886Y869489D01*
X42249Y869548D01*
X42614Y869597D01*
X42980Y869638D01*
X43347Y869669D01*
X43714Y869692D01*
X44082Y869705D01*
X44450Y869710D01*
X44818Y869705D01*
X45186Y869692D01*
X45553Y869669D01*
X45920Y869638D01*
X46286Y869597D01*
X46651Y869548D01*
X47014Y869489D01*
X47376Y869422D01*
X47737Y869346D01*
X48095Y869260D01*
X48451Y869167D01*
X48804Y869064D01*
X49155Y868953D01*
X49503Y868833D01*
X49848Y868705D01*
X50190Y868568D01*
X50529Y868423D01*
X50863Y868270D01*
X51194Y868108D01*
X51521Y867939D01*
X51843Y867761D01*
X52162Y867576D01*
X52475Y867383D01*
X52784Y867182D01*
X53087Y866974D01*
X53385Y866758D01*
X53678Y866535D01*
X53966Y866305D01*
X54248Y866068D01*
X54523Y865824D01*
X54793Y865574D01*
X55057Y865317D01*
X55314Y865053D01*
X55564Y864783D01*
X55808Y864508D01*
X56045Y864226D01*
X56275Y863938D01*
X56498Y863645D01*
X56714Y863347D01*
X56922Y863044D01*
X57123Y862735D01*
X57316Y862422D01*
X57501Y862103D01*
X57679Y861781D01*
X57848Y861454D01*
X58010Y861123D01*
X58163Y860789D01*
X58308Y860450D01*
X58445Y860108D01*
X58573Y859763D01*
X58693Y859415D01*
X58804Y859064D01*
X58907Y858711D01*
X59000Y858355D01*
X59086Y857997D01*
X59162Y857636D01*
X59229Y857274D01*
X59288Y856911D01*
X59337Y856546D01*
X59378Y856180D01*
X59409Y855813D01*
X59432Y855446D01*
X59445Y855078D01*
X59450Y854710D01*
X59445Y854342D01*
X59432Y853974D01*
X59409Y853607D01*
X59378Y853240D01*
X59337Y852874D01*
X59288Y852509D01*
X59229Y852146D01*
X59162Y851784D01*
X59086Y851423D01*
X59000Y851065D01*
X58907Y850709D01*
X58804Y850356D01*
X58693Y850005D01*
X58573Y849657D01*
X58445Y849312D01*
X58308Y848970D01*
X58163Y848631D01*
X58010Y848297D01*
X57848Y847966D01*
X57679Y847639D01*
X57501Y847317D01*
X57316Y846998D01*
X57123Y846685D01*
X56922Y846376D01*
X56714Y846073D01*
X56498Y845775D01*
X56275Y845482D01*
X56045Y845194D01*
X55808Y844912D01*
X55564Y844637D01*
X55314Y844367D01*
X55057Y844103D01*
X54793Y843846D01*
X54523Y843596D01*
X54248Y843352D01*
X53966Y843115D01*
X53678Y842885D01*
X53385Y842662D01*
X53087Y842446D01*
X52784Y842238D01*
X52475Y842037D01*
X52162Y841844D01*
X51843Y841659D01*
X51521Y841481D01*
X51194Y841312D01*
X50863Y841150D01*
X50529Y840997D01*
X50190Y840852D01*
X49848Y840715D01*
X49503Y840587D01*
X49155Y840467D01*
X48804Y840356D01*
X48451Y840253D01*
X48095Y840160D01*
X47737Y840074D01*
X47376Y839998D01*
X47014Y839931D01*
X46651Y839872D01*
X46286Y839823D01*
X45920Y839782D01*
X45553Y839751D01*
X45186Y839728D01*
X44818Y839715D01*
X44450Y839710D01*
X44082Y839715D01*
X43714Y839728D01*
X43347Y839751D01*
X42980Y839782D01*
X42614Y839823D01*
X42249Y839872D01*
X41886Y839931D01*
X41524Y839998D01*
X41163Y840074D01*
X40805Y840160D01*
X40449Y840253D01*
X40096Y840356D01*
X39745Y840467D01*
X39397Y840587D01*
X39052Y840715D01*
X38710Y840852D01*
X38371Y840997D01*
X38037Y841150D01*
X37706Y841312D01*
X37379Y841481D01*
X37057Y841659D01*
X36738Y841844D01*
X36425Y842037D01*
X36116Y842238D01*
X35813Y842446D01*
X35515Y842662D01*
X35222Y842885D01*
X34934Y843115D01*
X34652Y843352D01*
X34377Y843596D01*
X34107Y843846D01*
X33843Y844103D01*
X33586Y844367D01*
X33336Y844637D01*
X33092Y844912D01*
X32855Y845194D01*
X32625Y845482D01*
X32402Y845775D01*
X32186Y846073D01*
X31978Y846376D01*
X31777Y846685D01*
X31584Y846998D01*
X31399Y847317D01*
X31221Y847639D01*
X31052Y847966D01*
X30890Y848297D01*
X30737Y848631D01*
X30592Y848970D01*
X30455Y849312D01*
X30327Y849657D01*
X30207Y850005D01*
X30096Y850356D01*
X29993Y850709D01*
X29900Y851065D01*
X29814Y851423D01*
X29738Y851784D01*
X29671Y852146D01*
X29612Y852509D01*
X29563Y852874D01*
X29522Y853240D01*
X29491Y853607D01*
X29468Y853974D01*
X29455Y854342D01*
X29450Y854710D01*
X1896350Y848360D02*
X1896355Y848728D01*
X1896368Y849096D01*
X1896391Y849463D01*
X1896422Y849830D01*
X1896463Y850196D01*
X1896512Y850561D01*
X1896571Y850924D01*
X1896638Y851286D01*
X1896714Y851647D01*
X1896800Y852005D01*
X1896893Y852361D01*
X1896996Y852714D01*
X1897107Y853065D01*
X1897227Y853413D01*
X1897355Y853758D01*
X1897492Y854100D01*
X1897637Y854439D01*
X1897790Y854773D01*
X1897952Y855104D01*
X1898121Y855431D01*
X1898299Y855753D01*
X1898484Y856072D01*
X1898677Y856385D01*
X1898878Y856694D01*
X1899086Y856997D01*
X1899302Y857295D01*
X1899525Y857588D01*
X1899755Y857876D01*
X1899992Y858158D01*
X1900236Y858433D01*
X1900486Y858703D01*
X1900743Y858967D01*
X1901007Y859224D01*
X1901277Y859474D01*
X1901552Y859718D01*
X1901834Y859955D01*
X1902122Y860185D01*
X1902415Y860408D01*
X1902713Y860624D01*
X1903016Y860832D01*
X1903325Y861033D01*
X1903638Y861226D01*
X1903957Y861411D01*
X1904279Y861589D01*
X1904606Y861758D01*
X1904937Y861920D01*
X1905271Y862073D01*
X1905610Y862218D01*
X1905952Y862355D01*
X1906297Y862483D01*
X1906645Y862603D01*
X1906996Y862714D01*
X1907349Y862817D01*
X1907705Y862910D01*
X1908063Y862996D01*
X1908424Y863072D01*
X1908786Y863139D01*
X1909149Y863198D01*
X1909514Y863247D01*
X1909880Y863288D01*
X1910247Y863319D01*
X1910614Y863342D01*
X1910982Y863355D01*
X1911350Y863360D01*
X1911718Y863355D01*
X1912086Y863342D01*
X1912453Y863319D01*
X1912820Y863288D01*
X1913186Y863247D01*
X1913551Y863198D01*
X1913914Y863139D01*
X1914276Y863072D01*
X1914637Y862996D01*
X1914995Y862910D01*
X1915351Y862817D01*
X1915704Y862714D01*
X1916055Y862603D01*
X1916403Y862483D01*
X1916748Y862355D01*
X1917090Y862218D01*
X1917429Y862073D01*
X1917763Y861920D01*
X1918094Y861758D01*
X1918421Y861589D01*
X1918743Y861411D01*
X1919062Y861226D01*
X1919375Y861033D01*
X1919684Y860832D01*
X1919987Y860624D01*
X1920285Y860408D01*
X1920578Y860185D01*
X1920866Y859955D01*
X1921148Y859718D01*
X1921423Y859474D01*
X1921693Y859224D01*
X1921957Y858967D01*
X1922214Y858703D01*
X1922464Y858433D01*
X1922708Y858158D01*
X1922945Y857876D01*
X1923175Y857588D01*
X1923398Y857295D01*
X1923614Y856997D01*
X1923822Y856694D01*
X1924023Y856385D01*
X1924216Y856072D01*
X1924401Y855753D01*
X1924579Y855431D01*
X1924748Y855104D01*
X1924910Y854773D01*
X1925063Y854439D01*
X1925208Y854100D01*
X1925345Y853758D01*
X1925473Y853413D01*
X1925593Y853065D01*
X1925704Y852714D01*
X1925807Y852361D01*
X1925900Y852005D01*
X1925986Y851647D01*
X1926062Y851286D01*
X1926129Y850924D01*
X1926188Y850561D01*
X1926237Y850196D01*
X1926278Y849830D01*
X1926309Y849463D01*
X1926332Y849096D01*
X1926345Y848728D01*
X1926350Y848360D01*
X1926345Y847992D01*
X1926332Y847624D01*
X1926309Y847257D01*
X1926278Y846890D01*
X1926237Y846524D01*
X1926188Y846159D01*
X1926129Y845796D01*
X1926062Y845434D01*
X1925986Y845073D01*
X1925900Y844715D01*
X1925807Y844359D01*
X1925704Y844006D01*
X1925593Y843655D01*
X1925473Y843307D01*
X1925345Y842962D01*
X1925208Y842620D01*
X1925063Y842281D01*
X1924910Y841947D01*
X1924748Y841616D01*
X1924579Y841289D01*
X1924401Y840967D01*
X1924216Y840648D01*
X1924023Y840335D01*
X1923822Y840026D01*
X1923614Y839723D01*
X1923398Y839425D01*
X1923175Y839132D01*
X1922945Y838844D01*
X1922708Y838562D01*
X1922464Y838287D01*
X1922214Y838017D01*
X1921957Y837753D01*
X1921693Y837496D01*
X1921423Y837246D01*
X1921148Y837002D01*
X1920866Y836765D01*
X1920578Y836535D01*
X1920285Y836312D01*
X1919987Y836096D01*
X1919684Y835888D01*
X1919375Y835687D01*
X1919062Y835494D01*
X1918743Y835309D01*
X1918421Y835131D01*
X1918094Y834962D01*
X1917763Y834800D01*
X1917429Y834647D01*
X1917090Y834502D01*
X1916748Y834365D01*
X1916403Y834237D01*
X1916055Y834117D01*
X1915704Y834006D01*
X1915351Y833903D01*
X1914995Y833810D01*
X1914637Y833724D01*
X1914276Y833648D01*
X1913914Y833581D01*
X1913551Y833522D01*
X1913186Y833473D01*
X1912820Y833432D01*
X1912453Y833401D01*
X1912086Y833378D01*
X1911718Y833365D01*
X1911350Y833360D01*
X1910982Y833365D01*
X1910614Y833378D01*
X1910247Y833401D01*
X1909880Y833432D01*
X1909514Y833473D01*
X1909149Y833522D01*
X1908786Y833581D01*
X1908424Y833648D01*
X1908063Y833724D01*
X1907705Y833810D01*
X1907349Y833903D01*
X1906996Y834006D01*
X1906645Y834117D01*
X1906297Y834237D01*
X1905952Y834365D01*
X1905610Y834502D01*
X1905271Y834647D01*
X1904937Y834800D01*
X1904606Y834962D01*
X1904279Y835131D01*
X1903957Y835309D01*
X1903638Y835494D01*
X1903325Y835687D01*
X1903016Y835888D01*
X1902713Y836096D01*
X1902415Y836312D01*
X1902122Y836535D01*
X1901834Y836765D01*
X1901552Y837002D01*
X1901277Y837246D01*
X1901007Y837496D01*
X1900743Y837753D01*
X1900486Y838017D01*
X1900236Y838287D01*
X1899992Y838562D01*
X1899755Y838844D01*
X1899525Y839132D01*
X1899302Y839425D01*
X1899086Y839723D01*
X1898878Y840026D01*
X1898677Y840335D01*
X1898484Y840648D01*
X1898299Y840967D01*
X1898121Y841289D01*
X1897952Y841616D01*
X1897790Y841947D01*
X1897637Y842281D01*
X1897492Y842620D01*
X1897355Y842962D01*
X1897227Y843307D01*
X1897107Y843655D01*
X1896996Y844006D01*
X1896893Y844359D01*
X1896800Y844715D01*
X1896714Y845073D01*
X1896638Y845434D01*
X1896571Y845796D01*
X1896512Y846159D01*
X1896463Y846524D01*
X1896422Y846890D01*
X1896391Y847257D01*
X1896368Y847624D01*
X1896355Y847992D01*
X1896350Y848360D01*
X1902700Y48260D02*
X1902705Y48628D01*
X1902718Y48996D01*
X1902741Y49363D01*
X1902772Y49730D01*
X1902813Y50096D01*
X1902862Y50461D01*
X1902921Y50824D01*
X1902988Y51186D01*
X1903064Y51547D01*
X1903150Y51905D01*
X1903243Y52261D01*
X1903346Y52614D01*
X1903457Y52965D01*
X1903577Y53313D01*
X1903705Y53658D01*
X1903842Y54000D01*
X1903987Y54339D01*
X1904140Y54673D01*
X1904302Y55004D01*
X1904471Y55331D01*
X1904649Y55653D01*
X1904834Y55972D01*
X1905027Y56285D01*
X1905228Y56594D01*
X1905436Y56897D01*
X1905652Y57195D01*
X1905875Y57488D01*
X1906105Y57776D01*
X1906342Y58058D01*
X1906586Y58333D01*
X1906836Y58603D01*
X1907093Y58867D01*
X1907357Y59124D01*
X1907627Y59374D01*
X1907902Y59618D01*
X1908184Y59855D01*
X1908472Y60085D01*
X1908765Y60308D01*
X1909063Y60524D01*
X1909366Y60732D01*
X1909675Y60933D01*
X1909988Y61126D01*
X1910307Y61311D01*
X1910629Y61489D01*
X1910956Y61658D01*
X1911287Y61820D01*
X1911621Y61973D01*
X1911960Y62118D01*
X1912302Y62255D01*
X1912647Y62383D01*
X1912995Y62503D01*
X1913346Y62614D01*
X1913699Y62717D01*
X1914055Y62810D01*
X1914413Y62896D01*
X1914774Y62972D01*
X1915136Y63039D01*
X1915499Y63098D01*
X1915864Y63147D01*
X1916230Y63188D01*
X1916597Y63219D01*
X1916964Y63242D01*
X1917332Y63255D01*
X1917700Y63260D01*
X1918068Y63255D01*
X1918436Y63242D01*
X1918803Y63219D01*
X1919170Y63188D01*
X1919536Y63147D01*
X1919901Y63098D01*
X1920264Y63039D01*
X1920626Y62972D01*
X1920987Y62896D01*
X1921345Y62810D01*
X1921701Y62717D01*
X1922054Y62614D01*
X1922405Y62503D01*
X1922753Y62383D01*
X1923098Y62255D01*
X1923440Y62118D01*
X1923779Y61973D01*
X1924113Y61820D01*
X1924444Y61658D01*
X1924771Y61489D01*
X1925093Y61311D01*
X1925412Y61126D01*
X1925725Y60933D01*
X1926034Y60732D01*
X1926337Y60524D01*
X1926635Y60308D01*
X1926928Y60085D01*
X1927216Y59855D01*
X1927498Y59618D01*
X1927773Y59374D01*
X1928043Y59124D01*
X1928307Y58867D01*
X1928564Y58603D01*
X1928814Y58333D01*
X1929058Y58058D01*
X1929295Y57776D01*
X1929525Y57488D01*
X1929748Y57195D01*
X1929964Y56897D01*
X1930172Y56594D01*
X1930373Y56285D01*
X1930566Y55972D01*
X1930751Y55653D01*
X1930929Y55331D01*
X1931098Y55004D01*
X1931260Y54673D01*
X1931413Y54339D01*
X1931558Y54000D01*
X1931695Y53658D01*
X1931823Y53313D01*
X1931943Y52965D01*
X1932054Y52614D01*
X1932157Y52261D01*
X1932250Y51905D01*
X1932336Y51547D01*
X1932412Y51186D01*
X1932479Y50824D01*
X1932538Y50461D01*
X1932587Y50096D01*
X1932628Y49730D01*
X1932659Y49363D01*
X1932682Y48996D01*
X1932695Y48628D01*
X1932700Y48260D01*
X1932695Y47892D01*
X1932682Y47524D01*
X1932659Y47157D01*
X1932628Y46790D01*
X1932587Y46424D01*
X1932538Y46059D01*
X1932479Y45696D01*
X1932412Y45334D01*
X1932336Y44973D01*
X1932250Y44615D01*
X1932157Y44259D01*
X1932054Y43906D01*
X1931943Y43555D01*
X1931823Y43207D01*
X1931695Y42862D01*
X1931558Y42520D01*
X1931413Y42181D01*
X1931260Y41847D01*
X1931098Y41516D01*
X1930929Y41189D01*
X1930751Y40867D01*
X1930566Y40548D01*
X1930373Y40235D01*
X1930172Y39926D01*
X1929964Y39623D01*
X1929748Y39325D01*
X1929525Y39032D01*
X1929295Y38744D01*
X1929058Y38462D01*
X1928814Y38187D01*
X1928564Y37917D01*
X1928307Y37653D01*
X1928043Y37396D01*
X1927773Y37146D01*
X1927498Y36902D01*
X1927216Y36665D01*
X1926928Y36435D01*
X1926635Y36212D01*
X1926337Y35996D01*
X1926034Y35788D01*
X1925725Y35587D01*
X1925412Y35394D01*
X1925093Y35209D01*
X1924771Y35031D01*
X1924444Y34862D01*
X1924113Y34700D01*
X1923779Y34547D01*
X1923440Y34402D01*
X1923098Y34265D01*
X1922753Y34137D01*
X1922405Y34017D01*
X1922054Y33906D01*
X1921701Y33803D01*
X1921345Y33710D01*
X1920987Y33624D01*
X1920626Y33548D01*
X1920264Y33481D01*
X1919901Y33422D01*
X1919536Y33373D01*
X1919170Y33332D01*
X1918803Y33301D01*
X1918436Y33278D01*
X1918068Y33265D01*
X1917700Y33260D01*
X1917332Y33265D01*
X1916964Y33278D01*
X1916597Y33301D01*
X1916230Y33332D01*
X1915864Y33373D01*
X1915499Y33422D01*
X1915136Y33481D01*
X1914774Y33548D01*
X1914413Y33624D01*
X1914055Y33710D01*
X1913699Y33803D01*
X1913346Y33906D01*
X1912995Y34017D01*
X1912647Y34137D01*
X1912302Y34265D01*
X1911960Y34402D01*
X1911621Y34547D01*
X1911287Y34700D01*
X1910956Y34862D01*
X1910629Y35031D01*
X1910307Y35209D01*
X1909988Y35394D01*
X1909675Y35587D01*
X1909366Y35788D01*
X1909063Y35996D01*
X1908765Y36212D01*
X1908472Y36435D01*
X1908184Y36665D01*
X1907902Y36902D01*
X1907627Y37146D01*
X1907357Y37396D01*
X1907093Y37653D01*
X1906836Y37917D01*
X1906586Y38187D01*
X1906342Y38462D01*
X1906105Y38744D01*
X1905875Y39032D01*
X1905652Y39325D01*
X1905436Y39623D01*
X1905228Y39926D01*
X1905027Y40235D01*
X1904834Y40548D01*
X1904649Y40867D01*
X1904471Y41189D01*
X1904302Y41516D01*
X1904140Y41847D01*
X1903987Y42181D01*
X1903842Y42520D01*
X1903705Y42862D01*
X1903577Y43207D01*
X1903457Y43555D01*
X1903346Y43906D01*
X1903243Y44259D01*
X1903150Y44615D01*
X1903064Y44973D01*
X1902988Y45334D01*
X1902921Y45696D01*
X1902862Y46059D01*
X1902813Y46424D01*
X1902772Y46790D01*
X1902741Y47157D01*
X1902718Y47524D01*
X1902705Y47892D01*
X1902700Y48260D01*
D11*
X200Y51560D02*
X393Y47133D01*
X972Y42739D01*
X1931Y38412D01*
X3264Y34185D01*
X4960Y30091D01*
X7006Y26160D01*
X9387Y22422D01*
X12085Y18906D01*
X15079Y15639D01*
X18346Y12645D01*
X21862Y9947D01*
X25600Y7566D01*
X29531Y5520D01*
X33625Y3824D01*
X37852Y2491D01*
X42179Y1532D01*
X46573Y953D01*
X51000Y760D01*
X1911350Y760D01*
X1915778Y953D01*
X1920171Y1532D01*
X1924498Y2491D01*
X1928725Y3824D01*
X1932819Y5520D01*
X1936750Y7566D01*
X1940488Y9947D01*
X1944004Y12645D01*
X1947271Y15639D01*
X1950265Y18906D01*
X1952963Y22422D01*
X1955344Y26160D01*
X1957390Y30091D01*
X1959086Y34185D01*
X1960419Y38412D01*
X1961378Y42739D01*
X1961957Y47133D01*
X1962150Y51560D01*
X1962150Y848360D01*
X1961957Y852788D01*
X1961378Y857181D01*
X1960419Y861508D01*
X1959086Y865735D01*
X1957390Y869829D01*
X1955344Y873760D01*
X1952963Y877498D01*
X1950265Y881014D01*
X1947271Y884281D01*
X1944004Y887275D01*
X1940488Y889973D01*
X1936750Y892354D01*
X1932819Y894400D01*
X1928725Y896096D01*
X1924498Y897429D01*
X1920171Y898388D01*
X1915778Y898967D01*
X1911350Y899160D01*
X51000Y899160D01*
X46573Y898967D01*
X42179Y898388D01*
X37852Y897429D01*
X33625Y896096D01*
X29531Y894400D01*
X25600Y892354D01*
X21862Y889973D01*
X18346Y887275D01*
X15079Y884281D01*
X12085Y881014D01*
X9387Y877498D01*
X7006Y873760D01*
X4960Y869829D01*
X3264Y865735D01*
X1931Y861508D01*
X972Y857181D01*
X393Y852788D01*
X200Y848360D01*
X200Y51560D01*
X29450Y42446D02*
X29526Y43514D01*
X29679Y44575D01*
X29907Y45622D01*
X30209Y46650D01*
X30583Y47654D01*
X31028Y48629D01*
X31542Y49569D01*
X32121Y50470D01*
X32763Y51328D01*
X33465Y52138D01*
X34222Y52895D01*
X35032Y53597D01*
X35890Y54239D01*
X36791Y54818D01*
X37731Y55332D01*
X38706Y55777D01*
X39710Y56151D01*
X40738Y56453D01*
X41785Y56681D01*
X42846Y56834D01*
X43914Y56910D01*
X44986Y56910D01*
X46054Y56834D01*
X47115Y56681D01*
X48162Y56453D01*
X49190Y56151D01*
X50194Y55777D01*
X51169Y55332D01*
X52109Y54818D01*
X53010Y54239D01*
X53868Y53597D01*
X54678Y52895D01*
X55435Y52138D01*
X56137Y51328D01*
X56779Y50470D01*
X57358Y49569D01*
X57872Y48629D01*
X58317Y47654D01*
X58691Y46650D01*
X58993Y45622D01*
X59221Y44575D01*
X59374Y43514D01*
X59450Y42446D01*
X59450Y41374D01*
X59374Y40306D01*
X59221Y39245D01*
X58993Y38198D01*
X58691Y37170D01*
X58317Y36166D01*
X57872Y35191D01*
X57358Y34251D01*
X56779Y33350D01*
X56137Y32492D01*
X55435Y31682D01*
X54678Y30925D01*
X53868Y30223D01*
X53010Y29581D01*
X52109Y29002D01*
X51169Y28488D01*
X50194Y28043D01*
X49190Y27669D01*
X48162Y27367D01*
X47115Y27139D01*
X46054Y26986D01*
X44986Y26910D01*
X43914Y26910D01*
X42846Y26986D01*
X41785Y27139D01*
X40738Y27367D01*
X39710Y27669D01*
X38706Y28043D01*
X37731Y28488D01*
X36791Y29002D01*
X35890Y29581D01*
X35032Y30223D01*
X34222Y30925D01*
X33465Y31682D01*
X32763Y32492D01*
X32121Y33350D01*
X31542Y34251D01*
X31028Y35191D01*
X30583Y36166D01*
X30209Y37170D01*
X29907Y38198D01*
X29679Y39245D01*
X29526Y40306D01*
X29450Y41374D01*
X29450Y42446D01*
X29450Y855246D02*
X29526Y856314D01*
X29679Y857375D01*
X29907Y858422D01*
X30209Y859450D01*
X30583Y860454D01*
X31028Y861429D01*
X31542Y862369D01*
X32121Y863270D01*
X32763Y864128D01*
X33465Y864938D01*
X34222Y865695D01*
X35032Y866397D01*
X35890Y867039D01*
X36791Y867618D01*
X37731Y868132D01*
X38706Y868577D01*
X39710Y868951D01*
X40738Y869253D01*
X41785Y869481D01*
X42846Y869634D01*
X43914Y869710D01*
X44986Y869710D01*
X46054Y869634D01*
X47115Y869481D01*
X48162Y869253D01*
X49190Y868951D01*
X50194Y868577D01*
X51169Y868132D01*
X52109Y867618D01*
X53010Y867039D01*
X53868Y866397D01*
X54678Y865695D01*
X55435Y864938D01*
X56137Y864128D01*
X56779Y863270D01*
X57358Y862369D01*
X57872Y861429D01*
X58317Y860454D01*
X58691Y859450D01*
X58993Y858422D01*
X59221Y857375D01*
X59374Y856314D01*
X59450Y855246D01*
X59450Y854174D01*
X59374Y853106D01*
X59221Y852045D01*
X58993Y850998D01*
X58691Y849970D01*
X58317Y848966D01*
X57872Y847991D01*
X57358Y847051D01*
X56779Y846150D01*
X56137Y845292D01*
X55435Y844482D01*
X54678Y843725D01*
X53868Y843023D01*
X53010Y842381D01*
X52109Y841802D01*
X51169Y841288D01*
X50194Y840843D01*
X49190Y840469D01*
X48162Y840167D01*
X47115Y839939D01*
X46054Y839786D01*
X44986Y839710D01*
X43914Y839710D01*
X42846Y839786D01*
X41785Y839939D01*
X40738Y840167D01*
X39710Y840469D01*
X38706Y840843D01*
X37731Y841288D01*
X36791Y841802D01*
X35890Y842381D01*
X35032Y843023D01*
X34222Y843725D01*
X33465Y844482D01*
X32763Y845292D01*
X32121Y846150D01*
X31542Y847051D01*
X31028Y847991D01*
X30583Y848966D01*
X30209Y849970D01*
X29907Y850998D01*
X29679Y852045D01*
X29526Y853106D01*
X29450Y854174D01*
X29450Y855246D01*
X1896350Y848896D02*
X1896426Y849964D01*
X1896579Y851025D01*
X1896807Y852072D01*
X1897109Y853100D01*
X1897483Y854104D01*
X1897928Y855079D01*
X1898442Y856019D01*
X1899021Y856920D01*
X1899663Y857778D01*
X1900365Y858588D01*
X1901122Y859345D01*
X1901932Y860047D01*
X1902790Y860689D01*
X1903691Y861268D01*
X1904631Y861782D01*
X1905606Y862227D01*
X1906610Y862601D01*
X1907638Y862903D01*
X1908685Y863131D01*
X1909746Y863284D01*
X1910814Y863360D01*
X1911886Y863360D01*
X1912954Y863284D01*
X1914015Y863131D01*
X1915062Y862903D01*
X1916090Y862601D01*
X1917094Y862227D01*
X1918069Y861782D01*
X1919009Y861268D01*
X1919910Y860689D01*
X1920768Y860047D01*
X1921578Y859345D01*
X1922335Y858588D01*
X1923037Y857778D01*
X1923679Y856920D01*
X1924258Y856019D01*
X1924772Y855079D01*
X1925217Y854104D01*
X1925591Y853100D01*
X1925893Y852072D01*
X1926121Y851025D01*
X1926274Y849964D01*
X1926350Y848896D01*
X1926350Y847824D01*
X1926274Y846756D01*
X1926121Y845695D01*
X1925893Y844648D01*
X1925591Y843620D01*
X1925217Y842616D01*
X1924772Y841641D01*
X1924258Y840701D01*
X1923679Y839800D01*
X1923037Y838942D01*
X1922335Y838132D01*
X1921578Y837375D01*
X1920768Y836673D01*
X1919910Y836031D01*
X1919009Y835452D01*
X1918069Y834938D01*
X1917094Y834493D01*
X1916090Y834119D01*
X1915062Y833817D01*
X1914015Y833589D01*
X1912954Y833436D01*
X1911886Y833360D01*
X1910814Y833360D01*
X1909746Y833436D01*
X1908685Y833589D01*
X1907638Y833817D01*
X1906610Y834119D01*
X1905606Y834493D01*
X1904631Y834938D01*
X1903691Y835452D01*
X1902790Y836031D01*
X1901932Y836673D01*
X1901122Y837375D01*
X1900365Y838132D01*
X1899663Y838942D01*
X1899021Y839800D01*
X1898442Y840701D01*
X1897928Y841641D01*
X1897483Y842616D01*
X1897109Y843620D01*
X1896807Y844648D01*
X1896579Y845695D01*
X1896426Y846756D01*
X1896350Y847824D01*
X1896350Y848896D01*
X1932700Y47724D02*
X1932624Y46656D01*
X1932471Y45595D01*
X1932243Y44548D01*
X1931941Y43520D01*
X1931567Y42516D01*
X1931122Y41541D01*
X1930608Y40601D01*
X1930029Y39700D01*
X1929387Y38842D01*
X1928685Y38032D01*
X1927928Y37275D01*
X1927118Y36573D01*
X1926260Y35931D01*
X1925359Y35352D01*
X1924419Y34838D01*
X1923444Y34393D01*
X1922440Y34019D01*
X1921412Y33717D01*
X1920365Y33489D01*
X1919304Y33336D01*
X1918236Y33260D01*
X1917164Y33260D01*
X1916096Y33336D01*
X1915035Y33489D01*
X1913988Y33717D01*
X1912960Y34019D01*
X1911956Y34393D01*
X1910981Y34838D01*
X1910041Y35352D01*
X1909140Y35931D01*
X1908282Y36573D01*
X1907472Y37275D01*
X1906715Y38032D01*
X1906013Y38842D01*
X1905371Y39700D01*
X1904792Y40601D01*
X1904278Y41541D01*
X1903833Y42516D01*
X1903459Y43520D01*
X1903157Y44548D01*
X1902929Y45595D01*
X1902776Y46656D01*
X1902700Y47724D01*
X1902700Y48796D01*
X1902776Y49864D01*
X1902929Y50925D01*
X1903157Y51972D01*
X1903459Y53000D01*
X1903833Y54004D01*
X1904278Y54979D01*
X1904792Y55919D01*
X1905371Y56820D01*
X1906013Y57678D01*
X1906715Y58488D01*
X1907472Y59245D01*
X1908282Y59947D01*
X1909140Y60589D01*
X1910041Y61168D01*
X1910981Y61682D01*
X1911956Y62127D01*
X1912960Y62501D01*
X1913988Y62803D01*
X1915035Y63031D01*
X1916096Y63184D01*
X1917164Y63260D01*
X1918236Y63260D01*
X1919304Y63184D01*
X1920365Y63031D01*
X1921412Y62803D01*
X1922440Y62501D01*
X1923444Y62127D01*
X1924419Y61682D01*
X1925359Y61168D01*
X1926260Y60589D01*
X1927118Y59947D01*
X1927928Y59245D01*
X1928685Y58488D01*
X1929387Y57678D01*
X1930029Y56820D01*
X1930608Y55919D01*
X1931122Y54979D01*
X1931567Y54004D01*
X1931941Y53000D01*
X1932243Y51972D01*
X1932471Y50925D01*
X1932624Y49864D01*
X1932700Y48796D01*
X1932700Y47724D01*
M02*
