M48
;GenerationSoftware,Autodesk,EAGLE,9.3.1*%
;CreationDate,2019-02-28T16:17:15Z*%
FMAT,2
ICI,OFF
METRIC,TZ,000.000
T13C0.305
T12C0.350
T11C0.610
T10C0.813
T9C1.000
T8C1.016
T7C1.194
T6C1.200
T5C1.300
T4C1.400
T3C3.000
T2C3.300
T1C3.302
%
G90
M71
T1
X132791Y12700
X71679Y12700
T2
X71755Y12700
X132842Y12700
T3
X169545Y85725
X169545Y4445
X5080Y5080
T4
X84030Y46260
X84030Y50460
X84030Y54660
X84030Y58860
X84030Y63060
X84030Y67260
X84030Y71460
X84030Y75660
X84030Y79860
X84030Y84060
X78530Y63060
X78530Y71460
X78530Y75660
X78530Y79860
X78530Y84060
X84030Y42060
X78530Y67260
X78530Y37860
X78530Y42060
X84030Y37860
X78530Y46260
X78530Y50460
X78530Y54660
X78530Y58860
T5
X148680Y18639
X148680Y11079
X163760Y11079
X161240Y18639
T6
X145415Y83185
X140335Y66675
X145415Y67945
X140335Y81915
X145415Y80645
X140335Y79375
X145415Y78105
X140335Y76835
X140335Y69215
X145415Y70485
X140335Y71755
X145415Y73025
X140335Y74295
X145415Y75565
X140335Y62865
X145415Y61595
X140335Y45085
X140335Y41275
X145415Y40005
X140335Y23495
X145415Y24765
X140335Y38735
X145415Y37465
X140335Y36195
X145415Y46355
X140335Y60325
X145415Y34925
X140335Y57785
X145415Y56515
X140335Y55245
X140335Y47625
X145415Y48895
X140335Y50165
X145415Y51435
X140335Y52705
X145415Y53975
X145415Y59055
X140335Y33655
X140335Y26035
X145415Y27305
X140335Y28575
X145415Y29845
X140335Y31115
X145415Y32385
X140335Y84455
T7
X148630Y4445
X153630Y4445
T8
X15875Y74930
X15875Y77470
X15875Y80010
X64135Y74930
X64135Y72390
X64135Y69850
X64135Y67310
X64135Y64770
X64135Y62230
X64135Y59690
X64135Y57150
X64135Y52070
X64135Y49530
X64135Y46990
X64135Y44450
X64135Y41910
X64135Y39370
X64135Y36830
X64135Y34290
X64135Y30480
X64135Y27940
X64135Y25400
X64135Y22860
X64135Y20320
X64135Y17780
X64135Y15240
X64135Y12700
X64135Y82550
X64135Y85090
X61595Y82550
X61595Y85090
X59055Y82550
X59055Y85090
X56515Y82550
X56515Y85090
X53975Y82550
X53975Y85090
X51435Y82550
X51435Y85090
X48895Y82550
X48895Y85090
X46355Y82550
X46355Y85090
X43815Y82550
X43815Y85090
X41275Y82550
X41275Y85090
X38735Y82550
X38735Y85090
X36195Y82550
X36195Y85090
X33655Y82550
X33655Y85090
X31115Y82550
X15875Y49530
X31115Y85090
X28575Y82550
X28575Y85090
X26035Y82550
X26035Y85090
X23495Y82550
X23495Y85090
X20955Y82550
X20955Y85090
X64135Y10160
X64135Y7620
X15875Y16510
X15875Y19050
X172085Y73025
X172085Y70485
X172085Y22225
X172085Y24765
X17145Y86360
X96520Y64770
X101600Y64770
X80162Y9855
X82906Y9855
X85674Y9855
X88443Y9855
X91186Y9855
X93955Y9855
X96723Y9855
X99466Y9855
X102235Y9855
X105004Y9855
X107747Y9855
X110515Y9855
X81534Y12700
X84303Y12700
X87046Y12700
X89814Y12700
X92583Y12700
X95326Y12700
X98095Y12700
X100863Y12700
X103607Y12700
X106375Y12700
X109144Y12700
X113284Y9855
X116027Y9855
X118796Y9855
X121564Y9855
X111887Y12700
X114656Y12700
X117424Y12700
X120167Y12700
X124308Y9855
X122936Y12700
X80162Y15545
X82906Y15545
X85674Y15545
X88443Y15545
X91186Y15545
X93955Y15545
X96723Y15545
X99466Y15545
X102235Y15545
X105004Y15545
X107747Y15545
X110515Y15545
X113284Y15545
X116027Y15545
X118796Y15545
X121564Y15545
X124308Y15545
X15875Y21590
X15875Y24130
X15875Y26670
X15875Y29210
X15875Y31750
X15875Y34290
X15875Y39370
X15875Y41910
X15875Y44450
X15875Y46990
X14605Y86360
X15875Y52070
X15875Y54610
X15875Y57150
X15875Y62230
X15875Y64770
X15875Y67310
X15875Y69850
X15875Y72390
T9
X7620Y57150
X5080Y54610
X7620Y54610
X5080Y36830
X7620Y36830
X5080Y34290
X7620Y34290
X5080Y52070
X7620Y52070
X5080Y49530
X7620Y49530
X5080Y46990
X5080Y82550
X7620Y82550
X5080Y80010
X7620Y80010
X5080Y77470
X7620Y77470
X5080Y74930
X7620Y74930
X5080Y72390
X7620Y72390
X7620Y69850
X5080Y67310
X7620Y67310
X5080Y64770
X5080Y69850
X7620Y64770
X5080Y62230
X7620Y62230
X5080Y59690
X7620Y59690
X5080Y57150
X7620Y46990
X5080Y44450
X7620Y44450
X5080Y41910
X5080Y39370
X7620Y39370
X7620Y41910
T10
X110490Y80645
X110490Y69215
X97790Y26670
X110490Y40005
X110490Y37465
X110490Y27305
X110490Y29845
X110490Y71755
X143510Y4445
X143510Y9525
X143510Y6985
X41275Y76200
X41275Y68580
X2540Y26035
X5080Y26035
X85090Y21590
X85090Y26670
X90170Y21590
X90170Y26670
X87630Y21590
X87630Y26670
X92710Y21590
X92710Y26670
X95250Y21590
X95250Y26670
X97790Y21590
X110490Y61595
X110490Y59055
X110490Y47625
X110490Y50165
X110490Y83185
T11
X6350Y16510
X6350Y19050
X6350Y21590
T12
X124142Y27622
X124460Y38735
X124460Y48895
X123825Y60325
X124460Y70485
X123190Y83185
X157480Y29210
X33973Y77470
X67945Y17145
X113982Y29845
X82233Y29845
X113665Y43815
X93980Y44450
X94615Y47625
X102870Y47625
X69215Y46355
X55880Y46355
X55880Y50800
X55880Y55245
X55880Y60325
X55880Y64770
X55245Y38735
X117157Y74295
X29845Y84455
X112395Y26352
X81280Y26670
X73660Y81280
X162878Y38735
X167005Y41910
X152400Y30162
X130492Y38735
X126682Y15875
X130492Y27305
X162878Y27305
X118745Y31750
X134620Y32067
X162878Y48895
X149543Y16828
X107632Y20955
X107632Y78423
X162878Y70485
X100647Y25400
X99695Y61277
X162878Y60325
X166053Y57150
X130492Y48895
X118110Y42545
X162878Y81915
X31432Y73343
X38418Y76200
X155258Y39053
X155258Y60642
X127317Y51435
X155258Y82233
X20638Y59055
X29527Y60325
X108902Y78105
X30162Y61595
X30797Y66675
X31432Y41910
X32067Y46355
X32702Y73025
X33655Y74613
X32702Y40323
X33338Y41910
X33973Y57785
X11430Y30480
X11430Y33020
X11430Y41910
X94932Y31750
X87313Y47625
X74930Y33655
X73025Y35560
X127317Y67310
X49212Y24765
X49847Y19050
X70485Y73660
X85090Y22860
X73660Y23495
X127317Y73343
X83947Y19812
X35560Y16510
X69215Y63500
X19050Y25400
X40513Y10795
X70485Y60960
X38100Y10795
X108902Y72073
X130492Y70485
X168275Y12382
X66675Y38100
X98171Y56515
X88265Y46990
X113347Y27305
X72073Y86995
X59690Y52705
X96837Y56515
X72073Y81280
X112077Y38735
X122555Y24765
X119062Y36830
X117157Y53657
X113665Y70485
X122237Y65723
X128905Y84773
X113665Y48577
X122237Y45085
X119062Y59690
X67945Y28257
X61595Y33655
X62230Y81280
X66675Y42545
X60960Y35243
X104775Y25082
X68580Y59690
X135255Y28892
X106680Y77470
X106362Y34925
X67310Y49530
X27622Y36195
X31750Y71438
T13
X110109Y57150
X113309Y25984
X88011Y79629
X101194Y41986
X113614Y38176
X70942Y56312
X102641Y42291
X113614Y62560
X106756Y25756
X34823Y57836
X113614Y47625
X17983Y49073
X17755Y50216
M30