G04 EAGLE Gerber RS-274X export*
G75*
%MOMM*%
%FSLAX34Y34*%
%LPD*%
%INTop Copper*%
%IPPOS*%
%AMOC8*
5,1,8,0,0,1.08239X$1,22.5*%
G01*
%ADD10C,0.000000*%
%ADD11C,2.540000*%
%ADD12P,2.749271X8X292.500000*%
%ADD13P,1.429621X8X112.500000*%
%ADD14P,1.649562X8X202.500000*%
%ADD15C,5.080000*%
%ADD16C,1.790700*%
%ADD17C,1.524000*%
%ADD18P,1.649562X8X22.500000*%
%ADD19R,1.778000X1.778000*%
%ADD20C,1.778000*%
%ADD21R,3.810000X2.500000*%
%ADD22C,1.117600*%
%ADD23P,1.429621X8X292.500000*%
%ADD24C,1.320800*%
%ADD25R,1.168400X1.600200*%
%ADD26C,2.552700*%
%ADD27P,1.924489X8X22.500000*%
%ADD28R,2.500000X2.500000*%
%ADD29C,2.250000*%
%ADD30P,1.429621X8X202.500000*%
%ADD31C,1.422400*%
%ADD32P,2.336880X8X22.500000*%
%ADD33C,1.778000*%
%ADD34C,2.540000*%
%ADD35C,1.524000*%
%ADD36C,0.406400*%
%ADD37C,0.203200*%
%ADD38C,0.711200*%
%ADD39C,0.508000*%
%ADD40C,0.635000*%
%ADD41C,0.812800*%
%ADD42C,1.125000*%
%ADD43C,0.152400*%
%ADD44C,0.609600*%


D10*
X51000Y760D02*
X1911350Y760D01*
X1912578Y775D01*
X1913804Y819D01*
X1915030Y893D01*
X1916253Y997D01*
X1917473Y1130D01*
X1918690Y1293D01*
X1919903Y1485D01*
X1921110Y1706D01*
X1922312Y1957D01*
X1923507Y2236D01*
X1924696Y2544D01*
X1925876Y2881D01*
X1927048Y3246D01*
X1928211Y3640D01*
X1929364Y4061D01*
X1930506Y4510D01*
X1931638Y4987D01*
X1932757Y5491D01*
X1933864Y6022D01*
X1934958Y6579D01*
X1936038Y7162D01*
X1937104Y7772D01*
X1938154Y8407D01*
X1939189Y9067D01*
X1940208Y9752D01*
X1941209Y10462D01*
X1942194Y11195D01*
X1943160Y11953D01*
X1944108Y12733D01*
X1945037Y13536D01*
X1945946Y14361D01*
X1946834Y15208D01*
X1947702Y16076D01*
X1948549Y16964D01*
X1949374Y17873D01*
X1950177Y18802D01*
X1950957Y19750D01*
X1951715Y20716D01*
X1952448Y21701D01*
X1953158Y22702D01*
X1953843Y23721D01*
X1954503Y24756D01*
X1955138Y25806D01*
X1955748Y26872D01*
X1956331Y27952D01*
X1956888Y29046D01*
X1957419Y30153D01*
X1957923Y31272D01*
X1958400Y32404D01*
X1958849Y33546D01*
X1959270Y34699D01*
X1959664Y35862D01*
X1960029Y37034D01*
X1960366Y38214D01*
X1960674Y39403D01*
X1960953Y40598D01*
X1961204Y41800D01*
X1961425Y43007D01*
X1961617Y44220D01*
X1961780Y45437D01*
X1961913Y46657D01*
X1962017Y47880D01*
X1962091Y49106D01*
X1962135Y50332D01*
X1962150Y51560D01*
X1962150Y848360D01*
X1962135Y849588D01*
X1962091Y850814D01*
X1962017Y852040D01*
X1961913Y853263D01*
X1961780Y854483D01*
X1961617Y855700D01*
X1961425Y856913D01*
X1961204Y858120D01*
X1960953Y859322D01*
X1960674Y860517D01*
X1960366Y861706D01*
X1960029Y862886D01*
X1959664Y864058D01*
X1959270Y865221D01*
X1958849Y866374D01*
X1958400Y867516D01*
X1957923Y868648D01*
X1957419Y869767D01*
X1956888Y870874D01*
X1956331Y871968D01*
X1955748Y873048D01*
X1955138Y874114D01*
X1954503Y875164D01*
X1953843Y876199D01*
X1953158Y877218D01*
X1952448Y878219D01*
X1951715Y879204D01*
X1950957Y880170D01*
X1950177Y881118D01*
X1949374Y882047D01*
X1948549Y882956D01*
X1947702Y883844D01*
X1946834Y884712D01*
X1945946Y885559D01*
X1945037Y886384D01*
X1944108Y887187D01*
X1943160Y887967D01*
X1942194Y888725D01*
X1941209Y889458D01*
X1940208Y890168D01*
X1939189Y890853D01*
X1938154Y891513D01*
X1937104Y892148D01*
X1936038Y892758D01*
X1934958Y893341D01*
X1933864Y893898D01*
X1932757Y894429D01*
X1931638Y894933D01*
X1930506Y895410D01*
X1929364Y895859D01*
X1928211Y896280D01*
X1927048Y896674D01*
X1925876Y897039D01*
X1924696Y897376D01*
X1923507Y897684D01*
X1922312Y897963D01*
X1921110Y898214D01*
X1919903Y898435D01*
X1918690Y898627D01*
X1917473Y898790D01*
X1916253Y898923D01*
X1915030Y899027D01*
X1913804Y899101D01*
X1912578Y899145D01*
X1911350Y899160D01*
X51000Y899160D01*
X49772Y899145D01*
X48546Y899101D01*
X47320Y899027D01*
X46097Y898923D01*
X44877Y898790D01*
X43660Y898627D01*
X42447Y898435D01*
X41240Y898214D01*
X40038Y897963D01*
X38843Y897684D01*
X37654Y897376D01*
X36474Y897039D01*
X35302Y896674D01*
X34139Y896280D01*
X32986Y895859D01*
X31844Y895410D01*
X30712Y894933D01*
X29593Y894429D01*
X28486Y893898D01*
X27392Y893341D01*
X26312Y892758D01*
X25246Y892148D01*
X24196Y891513D01*
X23161Y890853D01*
X22142Y890168D01*
X21141Y889458D01*
X20156Y888725D01*
X19190Y887967D01*
X18242Y887187D01*
X17313Y886384D01*
X16404Y885559D01*
X15516Y884712D01*
X14648Y883844D01*
X13801Y882956D01*
X12976Y882047D01*
X12173Y881118D01*
X11393Y880170D01*
X10635Y879204D01*
X9902Y878219D01*
X9192Y877218D01*
X8507Y876199D01*
X7847Y875164D01*
X7212Y874114D01*
X6602Y873048D01*
X6019Y871968D01*
X5462Y870874D01*
X4931Y869767D01*
X4427Y868648D01*
X3950Y867516D01*
X3501Y866374D01*
X3080Y865221D01*
X2686Y864058D01*
X2321Y862886D01*
X1984Y861706D01*
X1676Y860517D01*
X1397Y859322D01*
X1146Y858120D01*
X925Y856913D01*
X733Y855700D01*
X570Y854483D01*
X437Y853263D01*
X333Y852040D01*
X259Y850814D01*
X215Y849588D01*
X200Y848360D01*
X200Y51560D01*
X215Y50332D01*
X259Y49106D01*
X333Y47880D01*
X437Y46657D01*
X570Y45437D01*
X733Y44220D01*
X925Y43007D01*
X1146Y41800D01*
X1397Y40598D01*
X1676Y39403D01*
X1984Y38214D01*
X2321Y37034D01*
X2686Y35862D01*
X3080Y34699D01*
X3501Y33546D01*
X3950Y32404D01*
X4427Y31272D01*
X4931Y30153D01*
X5462Y29046D01*
X6019Y27952D01*
X6602Y26872D01*
X7212Y25806D01*
X7847Y24756D01*
X8507Y23721D01*
X9192Y22702D01*
X9902Y21701D01*
X10635Y20716D01*
X11393Y19750D01*
X12173Y18802D01*
X12976Y17873D01*
X13801Y16964D01*
X14648Y16076D01*
X15516Y15208D01*
X16404Y14361D01*
X17313Y13536D01*
X18242Y12733D01*
X19190Y11953D01*
X20156Y11195D01*
X21141Y10462D01*
X22142Y9752D01*
X23161Y9067D01*
X24196Y8407D01*
X25246Y7772D01*
X26312Y7162D01*
X27392Y6579D01*
X28486Y6022D01*
X29593Y5491D01*
X30712Y4987D01*
X31844Y4510D01*
X32986Y4061D01*
X34139Y3640D01*
X35302Y3246D01*
X36474Y2881D01*
X37654Y2544D01*
X38843Y2236D01*
X40038Y1957D01*
X41240Y1706D01*
X42447Y1485D01*
X43660Y1293D01*
X44877Y1130D01*
X46097Y997D01*
X47320Y893D01*
X48546Y819D01*
X49772Y775D01*
X51000Y760D01*
D11*
X31750Y492760D03*
D12*
X31750Y441960D03*
D13*
X984250Y632460D03*
X984250Y683260D03*
X1009650Y632460D03*
X1009650Y683260D03*
X1035050Y632460D03*
X1035050Y683260D03*
X1085850Y632460D03*
X1085850Y683260D03*
X1060450Y632460D03*
X1060450Y683260D03*
X1111250Y632460D03*
X1111250Y683260D03*
D14*
X1160526Y800608D03*
X1133094Y800608D03*
X1105408Y800608D03*
X1077722Y800608D03*
X1050290Y800608D03*
X1022604Y800608D03*
X994918Y800608D03*
X967486Y800608D03*
X939800Y800608D03*
X912114Y800608D03*
X884682Y800608D03*
X856996Y800608D03*
X1146810Y772160D03*
X1119124Y772160D03*
X1091692Y772160D03*
X1064006Y772160D03*
X1036320Y772160D03*
X1008888Y772160D03*
X981202Y772160D03*
X953516Y772160D03*
X926084Y772160D03*
X898398Y772160D03*
X870712Y772160D03*
X829310Y800608D03*
X801878Y800608D03*
X774192Y800608D03*
X746506Y800608D03*
X843280Y772160D03*
X815594Y772160D03*
X787908Y772160D03*
X760476Y772160D03*
X719074Y800608D03*
X732790Y772160D03*
X1160526Y743712D03*
X1133094Y743712D03*
X1105408Y743712D03*
X1077722Y743712D03*
X1050290Y743712D03*
X1022604Y743712D03*
X994918Y743712D03*
X967486Y743712D03*
X939800Y743712D03*
X912114Y743712D03*
X884682Y743712D03*
X856996Y743712D03*
X829310Y743712D03*
X801878Y743712D03*
X774192Y743712D03*
X746506Y743712D03*
X719074Y743712D03*
D15*
X634238Y772160D03*
X1245362Y772160D03*
D16*
X47054Y620160D02*
X29147Y620160D01*
X29147Y670160D02*
X47054Y670160D01*
D17*
X1840230Y721360D02*
X1855470Y721360D01*
X1855470Y695960D02*
X1840230Y695960D01*
X1840230Y670560D02*
X1855470Y670560D01*
X1855470Y645160D02*
X1840230Y645160D01*
X1840230Y619760D02*
X1855470Y619760D01*
X1855470Y594360D02*
X1840230Y594360D01*
X1840230Y543560D02*
X1855470Y543560D01*
X1855470Y518160D02*
X1840230Y518160D01*
X1840230Y492760D02*
X1855470Y492760D01*
X1855470Y467360D02*
X1840230Y467360D01*
X1840230Y441960D02*
X1855470Y441960D01*
X1855470Y416560D02*
X1840230Y416560D01*
X1840230Y391160D02*
X1855470Y391160D01*
X1855470Y365760D02*
X1840230Y365760D01*
X1840230Y314960D02*
X1855470Y314960D01*
X1855470Y289560D02*
X1840230Y289560D01*
X1840230Y264160D02*
X1855470Y264160D01*
X1855470Y238760D02*
X1840230Y238760D01*
X1840230Y213360D02*
X1855470Y213360D01*
X1855470Y187960D02*
X1840230Y187960D01*
X1840230Y162560D02*
X1855470Y162560D01*
X1855470Y137160D02*
X1840230Y137160D01*
X1372870Y187960D02*
X1357630Y187960D01*
X1357630Y213360D02*
X1372870Y213360D01*
X1372870Y238760D02*
X1357630Y238760D01*
X1357630Y264160D02*
X1372870Y264160D01*
X1372870Y289560D02*
X1357630Y289560D01*
X1357630Y314960D02*
X1372870Y314960D01*
X1372870Y340360D02*
X1357630Y340360D01*
X1357630Y365760D02*
X1372870Y365760D01*
X1372870Y416560D02*
X1357630Y416560D01*
X1357630Y441960D02*
X1372870Y441960D01*
X1372870Y467360D02*
X1357630Y467360D01*
X1357630Y492760D02*
X1372870Y492760D01*
X1372870Y518160D02*
X1357630Y518160D01*
X1357630Y543560D02*
X1372870Y543560D01*
X1372870Y568960D02*
X1357630Y568960D01*
X1357630Y594360D02*
X1372870Y594360D01*
X1372870Y632460D02*
X1357630Y632460D01*
X1357630Y657860D02*
X1372870Y657860D01*
X1372870Y683260D02*
X1357630Y683260D01*
X1357630Y708660D02*
X1372870Y708660D01*
X1372870Y734060D02*
X1357630Y734060D01*
X1357630Y759460D02*
X1372870Y759460D01*
X1372870Y784860D02*
X1357630Y784860D01*
X1357630Y810260D02*
X1372870Y810260D01*
D18*
X1365250Y111760D03*
X1365250Y86360D03*
X1390650Y111760D03*
X1390650Y86360D03*
X1416050Y111760D03*
X1416050Y86360D03*
X1441450Y111760D03*
X1441450Y86360D03*
X1466850Y111760D03*
X1466850Y86360D03*
X1492250Y111760D03*
X1492250Y86360D03*
X1517650Y111760D03*
X1517650Y86360D03*
X1543050Y111760D03*
X1543050Y86360D03*
X1568450Y111760D03*
X1568450Y86360D03*
X1593850Y111760D03*
X1593850Y86360D03*
X1619250Y111760D03*
X1619250Y86360D03*
X1644650Y111760D03*
X1644650Y86360D03*
X1670050Y111760D03*
X1670050Y86360D03*
X1695450Y111760D03*
X1695450Y86360D03*
X1720850Y111760D03*
X1720850Y86360D03*
X1746250Y111760D03*
X1746250Y86360D03*
X1771650Y111760D03*
X1771650Y86360D03*
X1797050Y111760D03*
X1797050Y86360D03*
D17*
X1372870Y835660D02*
X1357630Y835660D01*
X1357630Y861060D02*
X1372870Y861060D01*
X1840230Y772160D02*
X1855470Y772160D01*
X1855470Y746760D02*
X1840230Y746760D01*
D19*
X1930400Y130810D03*
D20*
X1905000Y130810D03*
X1930400Y156210D03*
X1905000Y156210D03*
X1930400Y181610D03*
X1905000Y181610D03*
X1930400Y207010D03*
X1905000Y207010D03*
X1930400Y232410D03*
X1905000Y232410D03*
X1930400Y257810D03*
X1905000Y257810D03*
X1930400Y283210D03*
X1905000Y283210D03*
X1930400Y308610D03*
X1905000Y308610D03*
X1930400Y334010D03*
X1905000Y334010D03*
X1930400Y359410D03*
X1905000Y359410D03*
X1930400Y384810D03*
X1905000Y384810D03*
X1930400Y410210D03*
X1905000Y410210D03*
X1930400Y435610D03*
X1905000Y435610D03*
X1930400Y461010D03*
X1905000Y461010D03*
X1930400Y486410D03*
X1905000Y486410D03*
X1930400Y511810D03*
X1905000Y511810D03*
X1930400Y537210D03*
X1905000Y537210D03*
X1930400Y562610D03*
X1905000Y562610D03*
X1930400Y588010D03*
X1905000Y588010D03*
X1930400Y613410D03*
X1905000Y613410D03*
D21*
X1035050Y594360D03*
X1035050Y530860D03*
D10*
X29450Y41910D02*
X29455Y42278D01*
X29468Y42646D01*
X29491Y43013D01*
X29522Y43380D01*
X29563Y43746D01*
X29612Y44111D01*
X29671Y44474D01*
X29738Y44836D01*
X29814Y45197D01*
X29900Y45555D01*
X29993Y45911D01*
X30096Y46264D01*
X30207Y46615D01*
X30327Y46963D01*
X30455Y47308D01*
X30592Y47650D01*
X30737Y47989D01*
X30890Y48323D01*
X31052Y48654D01*
X31221Y48981D01*
X31399Y49303D01*
X31584Y49622D01*
X31777Y49935D01*
X31978Y50244D01*
X32186Y50547D01*
X32402Y50845D01*
X32625Y51138D01*
X32855Y51426D01*
X33092Y51708D01*
X33336Y51983D01*
X33586Y52253D01*
X33843Y52517D01*
X34107Y52774D01*
X34377Y53024D01*
X34652Y53268D01*
X34934Y53505D01*
X35222Y53735D01*
X35515Y53958D01*
X35813Y54174D01*
X36116Y54382D01*
X36425Y54583D01*
X36738Y54776D01*
X37057Y54961D01*
X37379Y55139D01*
X37706Y55308D01*
X38037Y55470D01*
X38371Y55623D01*
X38710Y55768D01*
X39052Y55905D01*
X39397Y56033D01*
X39745Y56153D01*
X40096Y56264D01*
X40449Y56367D01*
X40805Y56460D01*
X41163Y56546D01*
X41524Y56622D01*
X41886Y56689D01*
X42249Y56748D01*
X42614Y56797D01*
X42980Y56838D01*
X43347Y56869D01*
X43714Y56892D01*
X44082Y56905D01*
X44450Y56910D01*
X44818Y56905D01*
X45186Y56892D01*
X45553Y56869D01*
X45920Y56838D01*
X46286Y56797D01*
X46651Y56748D01*
X47014Y56689D01*
X47376Y56622D01*
X47737Y56546D01*
X48095Y56460D01*
X48451Y56367D01*
X48804Y56264D01*
X49155Y56153D01*
X49503Y56033D01*
X49848Y55905D01*
X50190Y55768D01*
X50529Y55623D01*
X50863Y55470D01*
X51194Y55308D01*
X51521Y55139D01*
X51843Y54961D01*
X52162Y54776D01*
X52475Y54583D01*
X52784Y54382D01*
X53087Y54174D01*
X53385Y53958D01*
X53678Y53735D01*
X53966Y53505D01*
X54248Y53268D01*
X54523Y53024D01*
X54793Y52774D01*
X55057Y52517D01*
X55314Y52253D01*
X55564Y51983D01*
X55808Y51708D01*
X56045Y51426D01*
X56275Y51138D01*
X56498Y50845D01*
X56714Y50547D01*
X56922Y50244D01*
X57123Y49935D01*
X57316Y49622D01*
X57501Y49303D01*
X57679Y48981D01*
X57848Y48654D01*
X58010Y48323D01*
X58163Y47989D01*
X58308Y47650D01*
X58445Y47308D01*
X58573Y46963D01*
X58693Y46615D01*
X58804Y46264D01*
X58907Y45911D01*
X59000Y45555D01*
X59086Y45197D01*
X59162Y44836D01*
X59229Y44474D01*
X59288Y44111D01*
X59337Y43746D01*
X59378Y43380D01*
X59409Y43013D01*
X59432Y42646D01*
X59445Y42278D01*
X59450Y41910D01*
X59445Y41542D01*
X59432Y41174D01*
X59409Y40807D01*
X59378Y40440D01*
X59337Y40074D01*
X59288Y39709D01*
X59229Y39346D01*
X59162Y38984D01*
X59086Y38623D01*
X59000Y38265D01*
X58907Y37909D01*
X58804Y37556D01*
X58693Y37205D01*
X58573Y36857D01*
X58445Y36512D01*
X58308Y36170D01*
X58163Y35831D01*
X58010Y35497D01*
X57848Y35166D01*
X57679Y34839D01*
X57501Y34517D01*
X57316Y34198D01*
X57123Y33885D01*
X56922Y33576D01*
X56714Y33273D01*
X56498Y32975D01*
X56275Y32682D01*
X56045Y32394D01*
X55808Y32112D01*
X55564Y31837D01*
X55314Y31567D01*
X55057Y31303D01*
X54793Y31046D01*
X54523Y30796D01*
X54248Y30552D01*
X53966Y30315D01*
X53678Y30085D01*
X53385Y29862D01*
X53087Y29646D01*
X52784Y29438D01*
X52475Y29237D01*
X52162Y29044D01*
X51843Y28859D01*
X51521Y28681D01*
X51194Y28512D01*
X50863Y28350D01*
X50529Y28197D01*
X50190Y28052D01*
X49848Y27915D01*
X49503Y27787D01*
X49155Y27667D01*
X48804Y27556D01*
X48451Y27453D01*
X48095Y27360D01*
X47737Y27274D01*
X47376Y27198D01*
X47014Y27131D01*
X46651Y27072D01*
X46286Y27023D01*
X45920Y26982D01*
X45553Y26951D01*
X45186Y26928D01*
X44818Y26915D01*
X44450Y26910D01*
X44082Y26915D01*
X43714Y26928D01*
X43347Y26951D01*
X42980Y26982D01*
X42614Y27023D01*
X42249Y27072D01*
X41886Y27131D01*
X41524Y27198D01*
X41163Y27274D01*
X40805Y27360D01*
X40449Y27453D01*
X40096Y27556D01*
X39745Y27667D01*
X39397Y27787D01*
X39052Y27915D01*
X38710Y28052D01*
X38371Y28197D01*
X38037Y28350D01*
X37706Y28512D01*
X37379Y28681D01*
X37057Y28859D01*
X36738Y29044D01*
X36425Y29237D01*
X36116Y29438D01*
X35813Y29646D01*
X35515Y29862D01*
X35222Y30085D01*
X34934Y30315D01*
X34652Y30552D01*
X34377Y30796D01*
X34107Y31046D01*
X33843Y31303D01*
X33586Y31567D01*
X33336Y31837D01*
X33092Y32112D01*
X32855Y32394D01*
X32625Y32682D01*
X32402Y32975D01*
X32186Y33273D01*
X31978Y33576D01*
X31777Y33885D01*
X31584Y34198D01*
X31399Y34517D01*
X31221Y34839D01*
X31052Y35166D01*
X30890Y35497D01*
X30737Y35831D01*
X30592Y36170D01*
X30455Y36512D01*
X30327Y36857D01*
X30207Y37205D01*
X30096Y37556D01*
X29993Y37909D01*
X29900Y38265D01*
X29814Y38623D01*
X29738Y38984D01*
X29671Y39346D01*
X29612Y39709D01*
X29563Y40074D01*
X29522Y40440D01*
X29491Y40807D01*
X29468Y41174D01*
X29455Y41542D01*
X29450Y41910D01*
X29450Y854710D02*
X29455Y855078D01*
X29468Y855446D01*
X29491Y855813D01*
X29522Y856180D01*
X29563Y856546D01*
X29612Y856911D01*
X29671Y857274D01*
X29738Y857636D01*
X29814Y857997D01*
X29900Y858355D01*
X29993Y858711D01*
X30096Y859064D01*
X30207Y859415D01*
X30327Y859763D01*
X30455Y860108D01*
X30592Y860450D01*
X30737Y860789D01*
X30890Y861123D01*
X31052Y861454D01*
X31221Y861781D01*
X31399Y862103D01*
X31584Y862422D01*
X31777Y862735D01*
X31978Y863044D01*
X32186Y863347D01*
X32402Y863645D01*
X32625Y863938D01*
X32855Y864226D01*
X33092Y864508D01*
X33336Y864783D01*
X33586Y865053D01*
X33843Y865317D01*
X34107Y865574D01*
X34377Y865824D01*
X34652Y866068D01*
X34934Y866305D01*
X35222Y866535D01*
X35515Y866758D01*
X35813Y866974D01*
X36116Y867182D01*
X36425Y867383D01*
X36738Y867576D01*
X37057Y867761D01*
X37379Y867939D01*
X37706Y868108D01*
X38037Y868270D01*
X38371Y868423D01*
X38710Y868568D01*
X39052Y868705D01*
X39397Y868833D01*
X39745Y868953D01*
X40096Y869064D01*
X40449Y869167D01*
X40805Y869260D01*
X41163Y869346D01*
X41524Y869422D01*
X41886Y869489D01*
X42249Y869548D01*
X42614Y869597D01*
X42980Y869638D01*
X43347Y869669D01*
X43714Y869692D01*
X44082Y869705D01*
X44450Y869710D01*
X44818Y869705D01*
X45186Y869692D01*
X45553Y869669D01*
X45920Y869638D01*
X46286Y869597D01*
X46651Y869548D01*
X47014Y869489D01*
X47376Y869422D01*
X47737Y869346D01*
X48095Y869260D01*
X48451Y869167D01*
X48804Y869064D01*
X49155Y868953D01*
X49503Y868833D01*
X49848Y868705D01*
X50190Y868568D01*
X50529Y868423D01*
X50863Y868270D01*
X51194Y868108D01*
X51521Y867939D01*
X51843Y867761D01*
X52162Y867576D01*
X52475Y867383D01*
X52784Y867182D01*
X53087Y866974D01*
X53385Y866758D01*
X53678Y866535D01*
X53966Y866305D01*
X54248Y866068D01*
X54523Y865824D01*
X54793Y865574D01*
X55057Y865317D01*
X55314Y865053D01*
X55564Y864783D01*
X55808Y864508D01*
X56045Y864226D01*
X56275Y863938D01*
X56498Y863645D01*
X56714Y863347D01*
X56922Y863044D01*
X57123Y862735D01*
X57316Y862422D01*
X57501Y862103D01*
X57679Y861781D01*
X57848Y861454D01*
X58010Y861123D01*
X58163Y860789D01*
X58308Y860450D01*
X58445Y860108D01*
X58573Y859763D01*
X58693Y859415D01*
X58804Y859064D01*
X58907Y858711D01*
X59000Y858355D01*
X59086Y857997D01*
X59162Y857636D01*
X59229Y857274D01*
X59288Y856911D01*
X59337Y856546D01*
X59378Y856180D01*
X59409Y855813D01*
X59432Y855446D01*
X59445Y855078D01*
X59450Y854710D01*
X59445Y854342D01*
X59432Y853974D01*
X59409Y853607D01*
X59378Y853240D01*
X59337Y852874D01*
X59288Y852509D01*
X59229Y852146D01*
X59162Y851784D01*
X59086Y851423D01*
X59000Y851065D01*
X58907Y850709D01*
X58804Y850356D01*
X58693Y850005D01*
X58573Y849657D01*
X58445Y849312D01*
X58308Y848970D01*
X58163Y848631D01*
X58010Y848297D01*
X57848Y847966D01*
X57679Y847639D01*
X57501Y847317D01*
X57316Y846998D01*
X57123Y846685D01*
X56922Y846376D01*
X56714Y846073D01*
X56498Y845775D01*
X56275Y845482D01*
X56045Y845194D01*
X55808Y844912D01*
X55564Y844637D01*
X55314Y844367D01*
X55057Y844103D01*
X54793Y843846D01*
X54523Y843596D01*
X54248Y843352D01*
X53966Y843115D01*
X53678Y842885D01*
X53385Y842662D01*
X53087Y842446D01*
X52784Y842238D01*
X52475Y842037D01*
X52162Y841844D01*
X51843Y841659D01*
X51521Y841481D01*
X51194Y841312D01*
X50863Y841150D01*
X50529Y840997D01*
X50190Y840852D01*
X49848Y840715D01*
X49503Y840587D01*
X49155Y840467D01*
X48804Y840356D01*
X48451Y840253D01*
X48095Y840160D01*
X47737Y840074D01*
X47376Y839998D01*
X47014Y839931D01*
X46651Y839872D01*
X46286Y839823D01*
X45920Y839782D01*
X45553Y839751D01*
X45186Y839728D01*
X44818Y839715D01*
X44450Y839710D01*
X44082Y839715D01*
X43714Y839728D01*
X43347Y839751D01*
X42980Y839782D01*
X42614Y839823D01*
X42249Y839872D01*
X41886Y839931D01*
X41524Y839998D01*
X41163Y840074D01*
X40805Y840160D01*
X40449Y840253D01*
X40096Y840356D01*
X39745Y840467D01*
X39397Y840587D01*
X39052Y840715D01*
X38710Y840852D01*
X38371Y840997D01*
X38037Y841150D01*
X37706Y841312D01*
X37379Y841481D01*
X37057Y841659D01*
X36738Y841844D01*
X36425Y842037D01*
X36116Y842238D01*
X35813Y842446D01*
X35515Y842662D01*
X35222Y842885D01*
X34934Y843115D01*
X34652Y843352D01*
X34377Y843596D01*
X34107Y843846D01*
X33843Y844103D01*
X33586Y844367D01*
X33336Y844637D01*
X33092Y844912D01*
X32855Y845194D01*
X32625Y845482D01*
X32402Y845775D01*
X32186Y846073D01*
X31978Y846376D01*
X31777Y846685D01*
X31584Y846998D01*
X31399Y847317D01*
X31221Y847639D01*
X31052Y847966D01*
X30890Y848297D01*
X30737Y848631D01*
X30592Y848970D01*
X30455Y849312D01*
X30327Y849657D01*
X30207Y850005D01*
X30096Y850356D01*
X29993Y850709D01*
X29900Y851065D01*
X29814Y851423D01*
X29738Y851784D01*
X29671Y852146D01*
X29612Y852509D01*
X29563Y852874D01*
X29522Y853240D01*
X29491Y853607D01*
X29468Y853974D01*
X29455Y854342D01*
X29450Y854710D01*
X1896350Y848360D02*
X1896355Y848728D01*
X1896368Y849096D01*
X1896391Y849463D01*
X1896422Y849830D01*
X1896463Y850196D01*
X1896512Y850561D01*
X1896571Y850924D01*
X1896638Y851286D01*
X1896714Y851647D01*
X1896800Y852005D01*
X1896893Y852361D01*
X1896996Y852714D01*
X1897107Y853065D01*
X1897227Y853413D01*
X1897355Y853758D01*
X1897492Y854100D01*
X1897637Y854439D01*
X1897790Y854773D01*
X1897952Y855104D01*
X1898121Y855431D01*
X1898299Y855753D01*
X1898484Y856072D01*
X1898677Y856385D01*
X1898878Y856694D01*
X1899086Y856997D01*
X1899302Y857295D01*
X1899525Y857588D01*
X1899755Y857876D01*
X1899992Y858158D01*
X1900236Y858433D01*
X1900486Y858703D01*
X1900743Y858967D01*
X1901007Y859224D01*
X1901277Y859474D01*
X1901552Y859718D01*
X1901834Y859955D01*
X1902122Y860185D01*
X1902415Y860408D01*
X1902713Y860624D01*
X1903016Y860832D01*
X1903325Y861033D01*
X1903638Y861226D01*
X1903957Y861411D01*
X1904279Y861589D01*
X1904606Y861758D01*
X1904937Y861920D01*
X1905271Y862073D01*
X1905610Y862218D01*
X1905952Y862355D01*
X1906297Y862483D01*
X1906645Y862603D01*
X1906996Y862714D01*
X1907349Y862817D01*
X1907705Y862910D01*
X1908063Y862996D01*
X1908424Y863072D01*
X1908786Y863139D01*
X1909149Y863198D01*
X1909514Y863247D01*
X1909880Y863288D01*
X1910247Y863319D01*
X1910614Y863342D01*
X1910982Y863355D01*
X1911350Y863360D01*
X1911718Y863355D01*
X1912086Y863342D01*
X1912453Y863319D01*
X1912820Y863288D01*
X1913186Y863247D01*
X1913551Y863198D01*
X1913914Y863139D01*
X1914276Y863072D01*
X1914637Y862996D01*
X1914995Y862910D01*
X1915351Y862817D01*
X1915704Y862714D01*
X1916055Y862603D01*
X1916403Y862483D01*
X1916748Y862355D01*
X1917090Y862218D01*
X1917429Y862073D01*
X1917763Y861920D01*
X1918094Y861758D01*
X1918421Y861589D01*
X1918743Y861411D01*
X1919062Y861226D01*
X1919375Y861033D01*
X1919684Y860832D01*
X1919987Y860624D01*
X1920285Y860408D01*
X1920578Y860185D01*
X1920866Y859955D01*
X1921148Y859718D01*
X1921423Y859474D01*
X1921693Y859224D01*
X1921957Y858967D01*
X1922214Y858703D01*
X1922464Y858433D01*
X1922708Y858158D01*
X1922945Y857876D01*
X1923175Y857588D01*
X1923398Y857295D01*
X1923614Y856997D01*
X1923822Y856694D01*
X1924023Y856385D01*
X1924216Y856072D01*
X1924401Y855753D01*
X1924579Y855431D01*
X1924748Y855104D01*
X1924910Y854773D01*
X1925063Y854439D01*
X1925208Y854100D01*
X1925345Y853758D01*
X1925473Y853413D01*
X1925593Y853065D01*
X1925704Y852714D01*
X1925807Y852361D01*
X1925900Y852005D01*
X1925986Y851647D01*
X1926062Y851286D01*
X1926129Y850924D01*
X1926188Y850561D01*
X1926237Y850196D01*
X1926278Y849830D01*
X1926309Y849463D01*
X1926332Y849096D01*
X1926345Y848728D01*
X1926350Y848360D01*
X1926345Y847992D01*
X1926332Y847624D01*
X1926309Y847257D01*
X1926278Y846890D01*
X1926237Y846524D01*
X1926188Y846159D01*
X1926129Y845796D01*
X1926062Y845434D01*
X1925986Y845073D01*
X1925900Y844715D01*
X1925807Y844359D01*
X1925704Y844006D01*
X1925593Y843655D01*
X1925473Y843307D01*
X1925345Y842962D01*
X1925208Y842620D01*
X1925063Y842281D01*
X1924910Y841947D01*
X1924748Y841616D01*
X1924579Y841289D01*
X1924401Y840967D01*
X1924216Y840648D01*
X1924023Y840335D01*
X1923822Y840026D01*
X1923614Y839723D01*
X1923398Y839425D01*
X1923175Y839132D01*
X1922945Y838844D01*
X1922708Y838562D01*
X1922464Y838287D01*
X1922214Y838017D01*
X1921957Y837753D01*
X1921693Y837496D01*
X1921423Y837246D01*
X1921148Y837002D01*
X1920866Y836765D01*
X1920578Y836535D01*
X1920285Y836312D01*
X1919987Y836096D01*
X1919684Y835888D01*
X1919375Y835687D01*
X1919062Y835494D01*
X1918743Y835309D01*
X1918421Y835131D01*
X1918094Y834962D01*
X1917763Y834800D01*
X1917429Y834647D01*
X1917090Y834502D01*
X1916748Y834365D01*
X1916403Y834237D01*
X1916055Y834117D01*
X1915704Y834006D01*
X1915351Y833903D01*
X1914995Y833810D01*
X1914637Y833724D01*
X1914276Y833648D01*
X1913914Y833581D01*
X1913551Y833522D01*
X1913186Y833473D01*
X1912820Y833432D01*
X1912453Y833401D01*
X1912086Y833378D01*
X1911718Y833365D01*
X1911350Y833360D01*
X1910982Y833365D01*
X1910614Y833378D01*
X1910247Y833401D01*
X1909880Y833432D01*
X1909514Y833473D01*
X1909149Y833522D01*
X1908786Y833581D01*
X1908424Y833648D01*
X1908063Y833724D01*
X1907705Y833810D01*
X1907349Y833903D01*
X1906996Y834006D01*
X1906645Y834117D01*
X1906297Y834237D01*
X1905952Y834365D01*
X1905610Y834502D01*
X1905271Y834647D01*
X1904937Y834800D01*
X1904606Y834962D01*
X1904279Y835131D01*
X1903957Y835309D01*
X1903638Y835494D01*
X1903325Y835687D01*
X1903016Y835888D01*
X1902713Y836096D01*
X1902415Y836312D01*
X1902122Y836535D01*
X1901834Y836765D01*
X1901552Y837002D01*
X1901277Y837246D01*
X1901007Y837496D01*
X1900743Y837753D01*
X1900486Y838017D01*
X1900236Y838287D01*
X1899992Y838562D01*
X1899755Y838844D01*
X1899525Y839132D01*
X1899302Y839425D01*
X1899086Y839723D01*
X1898878Y840026D01*
X1898677Y840335D01*
X1898484Y840648D01*
X1898299Y840967D01*
X1898121Y841289D01*
X1897952Y841616D01*
X1897790Y841947D01*
X1897637Y842281D01*
X1897492Y842620D01*
X1897355Y842962D01*
X1897227Y843307D01*
X1897107Y843655D01*
X1896996Y844006D01*
X1896893Y844359D01*
X1896800Y844715D01*
X1896714Y845073D01*
X1896638Y845434D01*
X1896571Y845796D01*
X1896512Y846159D01*
X1896463Y846524D01*
X1896422Y846890D01*
X1896391Y847257D01*
X1896368Y847624D01*
X1896355Y847992D01*
X1896350Y848360D01*
D22*
X1917700Y746760D03*
X1917700Y721360D03*
X1917700Y695960D03*
D23*
X1841500Y842010D03*
X1841500Y816610D03*
D17*
X1911350Y798830D02*
X1911350Y783590D01*
X1936750Y783590D02*
X1936750Y798830D01*
D10*
X1902700Y48260D02*
X1902705Y48628D01*
X1902718Y48996D01*
X1902741Y49363D01*
X1902772Y49730D01*
X1902813Y50096D01*
X1902862Y50461D01*
X1902921Y50824D01*
X1902988Y51186D01*
X1903064Y51547D01*
X1903150Y51905D01*
X1903243Y52261D01*
X1903346Y52614D01*
X1903457Y52965D01*
X1903577Y53313D01*
X1903705Y53658D01*
X1903842Y54000D01*
X1903987Y54339D01*
X1904140Y54673D01*
X1904302Y55004D01*
X1904471Y55331D01*
X1904649Y55653D01*
X1904834Y55972D01*
X1905027Y56285D01*
X1905228Y56594D01*
X1905436Y56897D01*
X1905652Y57195D01*
X1905875Y57488D01*
X1906105Y57776D01*
X1906342Y58058D01*
X1906586Y58333D01*
X1906836Y58603D01*
X1907093Y58867D01*
X1907357Y59124D01*
X1907627Y59374D01*
X1907902Y59618D01*
X1908184Y59855D01*
X1908472Y60085D01*
X1908765Y60308D01*
X1909063Y60524D01*
X1909366Y60732D01*
X1909675Y60933D01*
X1909988Y61126D01*
X1910307Y61311D01*
X1910629Y61489D01*
X1910956Y61658D01*
X1911287Y61820D01*
X1911621Y61973D01*
X1911960Y62118D01*
X1912302Y62255D01*
X1912647Y62383D01*
X1912995Y62503D01*
X1913346Y62614D01*
X1913699Y62717D01*
X1914055Y62810D01*
X1914413Y62896D01*
X1914774Y62972D01*
X1915136Y63039D01*
X1915499Y63098D01*
X1915864Y63147D01*
X1916230Y63188D01*
X1916597Y63219D01*
X1916964Y63242D01*
X1917332Y63255D01*
X1917700Y63260D01*
X1918068Y63255D01*
X1918436Y63242D01*
X1918803Y63219D01*
X1919170Y63188D01*
X1919536Y63147D01*
X1919901Y63098D01*
X1920264Y63039D01*
X1920626Y62972D01*
X1920987Y62896D01*
X1921345Y62810D01*
X1921701Y62717D01*
X1922054Y62614D01*
X1922405Y62503D01*
X1922753Y62383D01*
X1923098Y62255D01*
X1923440Y62118D01*
X1923779Y61973D01*
X1924113Y61820D01*
X1924444Y61658D01*
X1924771Y61489D01*
X1925093Y61311D01*
X1925412Y61126D01*
X1925725Y60933D01*
X1926034Y60732D01*
X1926337Y60524D01*
X1926635Y60308D01*
X1926928Y60085D01*
X1927216Y59855D01*
X1927498Y59618D01*
X1927773Y59374D01*
X1928043Y59124D01*
X1928307Y58867D01*
X1928564Y58603D01*
X1928814Y58333D01*
X1929058Y58058D01*
X1929295Y57776D01*
X1929525Y57488D01*
X1929748Y57195D01*
X1929964Y56897D01*
X1930172Y56594D01*
X1930373Y56285D01*
X1930566Y55972D01*
X1930751Y55653D01*
X1930929Y55331D01*
X1931098Y55004D01*
X1931260Y54673D01*
X1931413Y54339D01*
X1931558Y54000D01*
X1931695Y53658D01*
X1931823Y53313D01*
X1931943Y52965D01*
X1932054Y52614D01*
X1932157Y52261D01*
X1932250Y51905D01*
X1932336Y51547D01*
X1932412Y51186D01*
X1932479Y50824D01*
X1932538Y50461D01*
X1932587Y50096D01*
X1932628Y49730D01*
X1932659Y49363D01*
X1932682Y48996D01*
X1932695Y48628D01*
X1932700Y48260D01*
X1932695Y47892D01*
X1932682Y47524D01*
X1932659Y47157D01*
X1932628Y46790D01*
X1932587Y46424D01*
X1932538Y46059D01*
X1932479Y45696D01*
X1932412Y45334D01*
X1932336Y44973D01*
X1932250Y44615D01*
X1932157Y44259D01*
X1932054Y43906D01*
X1931943Y43555D01*
X1931823Y43207D01*
X1931695Y42862D01*
X1931558Y42520D01*
X1931413Y42181D01*
X1931260Y41847D01*
X1931098Y41516D01*
X1930929Y41189D01*
X1930751Y40867D01*
X1930566Y40548D01*
X1930373Y40235D01*
X1930172Y39926D01*
X1929964Y39623D01*
X1929748Y39325D01*
X1929525Y39032D01*
X1929295Y38744D01*
X1929058Y38462D01*
X1928814Y38187D01*
X1928564Y37917D01*
X1928307Y37653D01*
X1928043Y37396D01*
X1927773Y37146D01*
X1927498Y36902D01*
X1927216Y36665D01*
X1926928Y36435D01*
X1926635Y36212D01*
X1926337Y35996D01*
X1926034Y35788D01*
X1925725Y35587D01*
X1925412Y35394D01*
X1925093Y35209D01*
X1924771Y35031D01*
X1924444Y34862D01*
X1924113Y34700D01*
X1923779Y34547D01*
X1923440Y34402D01*
X1923098Y34265D01*
X1922753Y34137D01*
X1922405Y34017D01*
X1922054Y33906D01*
X1921701Y33803D01*
X1921345Y33710D01*
X1920987Y33624D01*
X1920626Y33548D01*
X1920264Y33481D01*
X1919901Y33422D01*
X1919536Y33373D01*
X1919170Y33332D01*
X1918803Y33301D01*
X1918436Y33278D01*
X1918068Y33265D01*
X1917700Y33260D01*
X1917332Y33265D01*
X1916964Y33278D01*
X1916597Y33301D01*
X1916230Y33332D01*
X1915864Y33373D01*
X1915499Y33422D01*
X1915136Y33481D01*
X1914774Y33548D01*
X1914413Y33624D01*
X1914055Y33710D01*
X1913699Y33803D01*
X1913346Y33906D01*
X1912995Y34017D01*
X1912647Y34137D01*
X1912302Y34265D01*
X1911960Y34402D01*
X1911621Y34547D01*
X1911287Y34700D01*
X1910956Y34862D01*
X1910629Y35031D01*
X1910307Y35209D01*
X1909988Y35394D01*
X1909675Y35587D01*
X1909366Y35788D01*
X1909063Y35996D01*
X1908765Y36212D01*
X1908472Y36435D01*
X1908184Y36665D01*
X1907902Y36902D01*
X1907627Y37146D01*
X1907357Y37396D01*
X1907093Y37653D01*
X1906836Y37917D01*
X1906586Y38187D01*
X1906342Y38462D01*
X1906105Y38744D01*
X1905875Y39032D01*
X1905652Y39325D01*
X1905436Y39623D01*
X1905228Y39926D01*
X1905027Y40235D01*
X1904834Y40548D01*
X1904649Y40867D01*
X1904471Y41189D01*
X1904302Y41516D01*
X1904140Y41847D01*
X1903987Y42181D01*
X1903842Y42520D01*
X1903705Y42862D01*
X1903577Y43207D01*
X1903457Y43555D01*
X1903346Y43906D01*
X1903243Y44259D01*
X1903150Y44615D01*
X1903064Y44973D01*
X1902988Y45334D01*
X1902921Y45696D01*
X1902862Y46059D01*
X1902813Y46424D01*
X1902772Y46790D01*
X1902741Y47157D01*
X1902718Y47524D01*
X1902705Y47892D01*
X1902700Y48260D01*
D21*
X1035050Y251460D03*
X1035050Y187960D03*
D24*
X1543050Y340106D02*
X1543050Y353314D01*
X1568450Y353314D02*
X1568450Y340106D01*
X1593850Y340106D02*
X1593850Y353314D01*
X1619250Y353314D02*
X1619250Y340106D01*
X1644650Y340106D02*
X1644650Y353314D01*
X1670050Y353314D02*
X1670050Y340106D01*
X1695450Y340106D02*
X1695450Y353314D01*
X1720850Y353314D02*
X1720850Y340106D01*
D16*
X47054Y721760D02*
X29147Y721760D01*
X29147Y771760D02*
X47054Y771760D01*
D25*
X566420Y797560D03*
X551180Y797560D03*
D26*
X558800Y740410D03*
X558800Y702310D03*
D27*
X215900Y727710D03*
X215900Y753110D03*
X215900Y854710D03*
X215900Y829310D03*
X406400Y727710D03*
X406400Y753110D03*
X406400Y854710D03*
X406400Y829310D03*
D28*
X113030Y877570D03*
X113030Y704850D03*
X509270Y704850D03*
X509270Y877570D03*
D17*
X944880Y429260D02*
X960120Y429260D01*
X960120Y454660D02*
X944880Y454660D01*
X944880Y480060D02*
X960120Y480060D01*
X960120Y505460D02*
X944880Y505460D01*
X944880Y530860D02*
X960120Y530860D01*
X960120Y556260D02*
X944880Y556260D01*
X944880Y581660D02*
X960120Y581660D01*
X960120Y607060D02*
X944880Y607060D01*
X1300480Y429260D02*
X1315720Y429260D01*
X1315720Y454660D02*
X1300480Y454660D01*
X1300480Y480060D02*
X1315720Y480060D01*
X1315720Y505460D02*
X1300480Y505460D01*
X1300480Y530860D02*
X1315720Y530860D01*
X1315720Y556260D02*
X1300480Y556260D01*
X1300480Y581660D02*
X1315720Y581660D01*
X1315720Y607060D02*
X1300480Y607060D01*
X1300480Y632460D02*
X1315720Y632460D01*
X1315720Y657860D02*
X1300480Y657860D01*
D29*
X965200Y594360D03*
X965200Y543560D03*
X965200Y492760D03*
X965200Y441960D03*
D13*
X558800Y822960D03*
X558800Y848360D03*
D23*
X463550Y848360D03*
X463550Y772160D03*
D22*
X1314450Y746760D03*
X1314450Y772160D03*
X1314450Y797560D03*
D30*
X1327150Y835660D03*
X1301750Y835660D03*
D17*
X960120Y86360D02*
X944880Y86360D01*
X944880Y111760D02*
X960120Y111760D01*
X960120Y137160D02*
X944880Y137160D01*
X944880Y162560D02*
X960120Y162560D01*
X960120Y187960D02*
X944880Y187960D01*
X944880Y213360D02*
X960120Y213360D01*
X960120Y238760D02*
X944880Y238760D01*
X944880Y264160D02*
X960120Y264160D01*
X1300480Y86360D02*
X1315720Y86360D01*
X1315720Y111760D02*
X1300480Y111760D01*
X1300480Y137160D02*
X1315720Y137160D01*
X1315720Y162560D02*
X1300480Y162560D01*
X1300480Y187960D02*
X1315720Y187960D01*
X1315720Y213360D02*
X1300480Y213360D01*
X1300480Y238760D02*
X1315720Y238760D01*
X1315720Y264160D02*
X1300480Y264160D01*
X1300480Y289560D02*
X1315720Y289560D01*
X1315720Y314960D02*
X1300480Y314960D01*
D29*
X965200Y251460D03*
X965200Y200660D03*
X965200Y149860D03*
X965200Y99060D03*
D21*
X615950Y594360D03*
X615950Y530860D03*
X615950Y251460D03*
X615950Y187960D03*
D17*
X541020Y429260D02*
X525780Y429260D01*
X525780Y454660D02*
X541020Y454660D01*
X541020Y480060D02*
X525780Y480060D01*
X525780Y505460D02*
X541020Y505460D01*
X541020Y530860D02*
X525780Y530860D01*
X525780Y556260D02*
X541020Y556260D01*
X541020Y581660D02*
X525780Y581660D01*
X525780Y607060D02*
X541020Y607060D01*
X881380Y429260D02*
X896620Y429260D01*
X896620Y454660D02*
X881380Y454660D01*
X881380Y480060D02*
X896620Y480060D01*
X896620Y505460D02*
X881380Y505460D01*
X881380Y530860D02*
X896620Y530860D01*
X896620Y556260D02*
X881380Y556260D01*
X881380Y581660D02*
X896620Y581660D01*
X896620Y607060D02*
X881380Y607060D01*
X881380Y632460D02*
X896620Y632460D01*
X896620Y657860D02*
X881380Y657860D01*
D29*
X546100Y594360D03*
X546100Y543560D03*
X546100Y492760D03*
X546100Y441960D03*
D17*
X541020Y86360D02*
X525780Y86360D01*
X525780Y111760D02*
X541020Y111760D01*
X541020Y137160D02*
X525780Y137160D01*
X525780Y162560D02*
X541020Y162560D01*
X541020Y187960D02*
X525780Y187960D01*
X525780Y213360D02*
X541020Y213360D01*
X541020Y238760D02*
X525780Y238760D01*
X525780Y264160D02*
X541020Y264160D01*
X881380Y86360D02*
X896620Y86360D01*
X896620Y111760D02*
X881380Y111760D01*
X881380Y137160D02*
X896620Y137160D01*
X896620Y162560D02*
X881380Y162560D01*
X881380Y187960D02*
X896620Y187960D01*
X896620Y213360D02*
X881380Y213360D01*
X881380Y238760D02*
X896620Y238760D01*
X896620Y264160D02*
X881380Y264160D01*
X881380Y289560D02*
X896620Y289560D01*
X896620Y314960D02*
X881380Y314960D01*
D29*
X546100Y251460D03*
X546100Y200660D03*
X546100Y149860D03*
X546100Y99060D03*
D21*
X203200Y594360D03*
X203200Y530860D03*
X203200Y251460D03*
X203200Y187960D03*
D17*
X128270Y429260D02*
X113030Y429260D01*
X113030Y454660D02*
X128270Y454660D01*
X128270Y480060D02*
X113030Y480060D01*
X113030Y505460D02*
X128270Y505460D01*
X128270Y530860D02*
X113030Y530860D01*
X113030Y556260D02*
X128270Y556260D01*
X128270Y581660D02*
X113030Y581660D01*
X113030Y607060D02*
X128270Y607060D01*
X468630Y429260D02*
X483870Y429260D01*
X483870Y454660D02*
X468630Y454660D01*
X468630Y480060D02*
X483870Y480060D01*
X483870Y505460D02*
X468630Y505460D01*
X468630Y530860D02*
X483870Y530860D01*
X483870Y556260D02*
X468630Y556260D01*
X468630Y581660D02*
X483870Y581660D01*
X483870Y607060D02*
X468630Y607060D01*
X468630Y632460D02*
X483870Y632460D01*
X483870Y657860D02*
X468630Y657860D01*
D29*
X133350Y594360D03*
X133350Y543560D03*
X133350Y492760D03*
X133350Y441960D03*
D17*
X128270Y86360D02*
X113030Y86360D01*
X113030Y111760D02*
X128270Y111760D01*
X128270Y137160D02*
X113030Y137160D01*
X113030Y162560D02*
X128270Y162560D01*
X128270Y187960D02*
X113030Y187960D01*
X113030Y213360D02*
X128270Y213360D01*
X128270Y238760D02*
X113030Y238760D01*
X113030Y264160D02*
X128270Y264160D01*
X468630Y86360D02*
X483870Y86360D01*
X483870Y111760D02*
X468630Y111760D01*
X468630Y137160D02*
X483870Y137160D01*
X483870Y162560D02*
X468630Y162560D01*
X468630Y187960D02*
X483870Y187960D01*
X483870Y213360D02*
X468630Y213360D01*
X468630Y238760D02*
X483870Y238760D01*
X483870Y264160D02*
X468630Y264160D01*
X468630Y289560D02*
X483870Y289560D01*
X483870Y314960D02*
X468630Y314960D01*
D29*
X133350Y251460D03*
X133350Y200660D03*
X133350Y149860D03*
X133350Y99060D03*
D16*
X47054Y315360D02*
X29147Y315360D01*
X29147Y365360D02*
X47054Y365360D01*
D24*
X1720850Y239014D02*
X1720850Y225806D01*
X1695450Y225806D02*
X1695450Y239014D01*
X1670050Y239014D02*
X1670050Y225806D01*
X1644650Y225806D02*
X1644650Y239014D01*
X1619250Y239014D02*
X1619250Y225806D01*
X1593850Y225806D02*
X1593850Y239014D01*
X1568450Y239014D02*
X1568450Y225806D01*
X1543050Y225806D02*
X1543050Y239014D01*
D26*
X1301750Y869950D03*
X1263650Y869950D03*
X1130300Y869950D03*
X1092200Y869950D03*
D31*
X1206500Y862838D02*
X1206500Y877062D01*
X1181100Y877062D02*
X1181100Y862838D01*
D32*
X1765300Y285750D03*
D33*
X215900Y727710D02*
X215900Y753110D01*
X207963Y756285D02*
X193675Y770573D01*
X114300Y770573D02*
X38100Y770573D01*
X114300Y770573D02*
X193675Y770573D01*
X207963Y756285D02*
X215900Y753110D01*
X38100Y770573D02*
X38100Y771760D01*
X114300Y770573D02*
X114300Y876935D01*
X113030Y877570D01*
X952500Y530860D02*
X965200Y543560D01*
X958850Y549910D02*
X952500Y556260D01*
X958850Y549910D02*
X960438Y549910D01*
X965200Y543560D01*
X546100Y200660D02*
X533400Y187960D01*
X539750Y207010D02*
X533400Y213360D01*
X539750Y207010D02*
X541338Y207010D01*
X546100Y200660D01*
X533400Y530860D02*
X546100Y543560D01*
X539750Y549910D02*
X533400Y556260D01*
X539750Y549910D02*
X541338Y549910D01*
X546100Y543560D01*
X215900Y829310D02*
X215900Y854710D01*
X112713Y705485D02*
X113030Y704850D01*
X133350Y200660D02*
X120650Y187960D01*
X127000Y207010D02*
X120650Y213360D01*
X127000Y207010D02*
X128588Y207010D01*
X133350Y200660D01*
X120650Y530860D02*
X133350Y543560D01*
X127000Y549910D02*
X120650Y556260D01*
X127000Y549910D02*
X128588Y549910D01*
X133350Y543560D01*
D34*
X31750Y371710D02*
X38100Y365360D01*
X31750Y371710D02*
X31750Y441960D01*
X54375Y705485D02*
X38100Y721760D01*
X54375Y705485D02*
X112713Y705485D01*
X117710Y365360D02*
X38100Y365360D01*
X117710Y365360D02*
X133350Y381000D01*
X165100Y381000D01*
X482053Y381000D01*
X492912Y370142D01*
X923671Y370142D02*
X925513Y368300D01*
D35*
X925513Y368300D03*
D34*
X508000Y370142D02*
X492912Y370142D01*
X508000Y370142D02*
X923671Y370142D01*
D35*
X165100Y381000D03*
X508000Y370142D03*
D36*
X1797050Y111760D02*
X1797050Y86360D01*
X1847850Y619760D02*
X1847850Y645160D01*
X760476Y772160D02*
X732790Y772160D01*
X843280Y772160D02*
X870712Y772160D01*
X815594Y772160D02*
X787908Y772160D01*
X815594Y772160D02*
X843280Y772160D01*
X787908Y772160D02*
X760476Y772160D01*
D37*
X558800Y848360D02*
X539750Y829310D01*
X406400Y829310D01*
X406400Y854710D01*
D36*
X557213Y703898D02*
X558800Y702310D01*
X557213Y703898D02*
X509588Y703898D01*
D37*
X509270Y704850D01*
D36*
X655638Y702310D02*
X725488Y772160D01*
X655638Y702310D02*
X558800Y702310D01*
X725488Y772160D02*
X732790Y772160D01*
D37*
X457200Y283210D02*
X476250Y264160D01*
X457200Y283210D02*
X457200Y314960D01*
X476250Y314960D01*
X889000Y314960D01*
D36*
X1365250Y784860D02*
X1355725Y794385D01*
X1317625Y794385D01*
X1314450Y797560D01*
D37*
X1656080Y278130D02*
X1677988Y256223D01*
X1656080Y278130D02*
X1325880Y278130D01*
X1311910Y264160D01*
X1308100Y264160D01*
X1308100Y314960D02*
X889000Y314960D01*
D36*
X889000Y657860D02*
X1308100Y657860D01*
X1809750Y784860D02*
X1841500Y816610D01*
X1809750Y784860D02*
X1365250Y784860D01*
D38*
X1677988Y256223D03*
D37*
X870712Y772160D02*
X870712Y813562D01*
X927100Y869950D02*
X1092200Y869950D01*
X927100Y869950D02*
X870712Y813562D01*
X1847850Y670560D02*
X1892300Y626110D01*
X1892300Y528320D01*
X1896110Y524510D01*
X1935163Y524510D01*
X1954213Y505460D01*
X1954213Y118110D01*
X1917700Y118110D01*
X1905000Y130810D01*
X1346200Y249873D02*
X1319213Y249873D01*
X1346200Y249873D02*
X1609725Y249873D01*
X1319213Y249873D02*
X1308100Y238760D01*
X1346200Y249873D02*
X1346200Y196533D01*
X884555Y234315D02*
X571430Y234315D01*
X884555Y234315D02*
X889000Y238760D01*
D39*
X984250Y632460D02*
X1009650Y632460D01*
X1035050Y632460D01*
X1060450Y632460D01*
X1085850Y632460D01*
X1111250Y632460D01*
X1117600Y581660D02*
X1308100Y581660D01*
D38*
X1609725Y249873D03*
X1346200Y196533D03*
X1117600Y581660D03*
D39*
X495300Y581660D02*
X476250Y581660D01*
X495300Y581660D02*
X508000Y594360D01*
X508000Y626110D01*
X538163Y656273D01*
X730407Y656273D01*
X750172Y676038D01*
X794622Y676038D01*
X863600Y607060D02*
X863600Y588010D01*
X869950Y581660D01*
X889000Y581660D01*
X863600Y607060D02*
X794622Y676038D01*
X889000Y581660D02*
X908050Y581660D01*
X923925Y597535D01*
X939800Y632460D02*
X984250Y632460D01*
X939800Y632460D02*
X923925Y616585D01*
X923925Y597535D01*
X1339850Y670560D02*
X1847850Y670560D01*
X1339850Y670560D02*
X1333500Y664210D01*
X1333500Y651510D01*
D38*
X1333500Y651510D03*
D39*
X1890713Y116523D02*
X1905000Y130810D01*
X1890713Y116523D02*
X1822450Y116523D01*
X1808163Y130810D01*
X1371600Y130810D02*
X1365250Y124460D01*
X1365250Y111760D01*
X1371600Y130810D02*
X1808163Y130810D01*
D37*
X508254Y226314D02*
X508000Y226060D01*
X563429Y226314D02*
X571430Y234315D01*
X563429Y226314D02*
X508254Y226314D01*
X508000Y226060D02*
X488950Y226060D01*
X476250Y238760D01*
D39*
X488950Y797560D02*
X551180Y797560D01*
X488950Y797560D02*
X463550Y772160D01*
D33*
X952500Y429260D02*
X965200Y441960D01*
X952500Y454660D01*
D40*
X951548Y402590D02*
X678815Y402590D01*
D41*
X951548Y402590D03*
X678815Y402590D03*
D40*
X719074Y743712D02*
X719138Y745173D01*
D42*
X889000Y695960D03*
D40*
X876300Y708660D01*
X723900Y708660D01*
X719138Y713423D01*
X719138Y745173D01*
D33*
X965200Y99060D02*
X952500Y86360D01*
X965200Y99060D02*
X952500Y111760D01*
D40*
X965200Y149860D02*
X952500Y162560D01*
X546100Y492760D02*
X533400Y480060D01*
X546100Y492760D02*
X533400Y505460D01*
X660400Y549910D02*
X760413Y649923D01*
X760413Y656273D01*
X660400Y549910D02*
X593725Y549910D01*
X542925Y499110D01*
X533400Y505460D01*
D41*
X760413Y656273D03*
D40*
X546100Y149860D02*
X533400Y137160D01*
X546100Y149860D02*
X533400Y162560D01*
X711200Y151448D02*
X769938Y210185D01*
X711200Y151448D02*
X547688Y151448D01*
X546100Y149860D01*
X769938Y210185D02*
X769938Y222885D01*
D41*
X769938Y222885D03*
D40*
X133350Y492760D02*
X120650Y480060D01*
X133350Y492760D02*
X120650Y505460D01*
X606425Y413385D02*
X779463Y413385D01*
X606425Y413385D02*
X601663Y408623D01*
X114300Y408623D01*
X100013Y422910D01*
X100013Y478473D01*
X119063Y478473D01*
X120650Y480060D01*
D41*
X779463Y413385D03*
D40*
X133350Y149860D02*
X120650Y137160D01*
X133350Y149860D02*
X120650Y162560D01*
X584200Y688023D02*
X825500Y688023D01*
X584200Y688023D02*
X571500Y675323D01*
X466725Y675323D01*
X209550Y418148D01*
D42*
X825500Y688023D03*
D41*
X209550Y418148D03*
D33*
X533400Y429260D02*
X546100Y441960D01*
X533400Y454660D01*
D40*
X547688Y443548D02*
X720725Y443548D01*
X547688Y443548D02*
X546100Y441960D01*
X720725Y443548D02*
X732155Y454978D01*
X732155Y457518D01*
D41*
X732155Y457518D03*
D33*
X546100Y99060D02*
X533400Y86360D01*
X546100Y99060D02*
X533400Y111760D01*
X133350Y441960D02*
X120650Y429260D01*
X133350Y441960D02*
X120650Y454660D01*
D40*
X811721Y818198D02*
X829310Y800608D01*
X678656Y766604D02*
X633413Y721360D01*
X531813Y721360D01*
X523875Y729298D01*
X485775Y729298D01*
X200025Y443548D01*
X134938Y443548D01*
X133350Y441960D01*
X678656Y766604D02*
X678656Y790416D01*
X706438Y818198D01*
X811721Y818198D01*
D33*
X133350Y99060D02*
X120650Y86360D01*
X133350Y99060D02*
X120650Y111760D01*
D43*
X1222375Y373698D02*
X1270000Y326073D01*
X1579563Y326073D01*
X1590675Y314960D01*
X1847850Y314960D01*
D44*
X1222375Y373698D03*
D43*
X1181100Y738823D02*
X1147763Y772160D01*
X1181100Y738823D02*
X1343025Y738823D01*
X1352550Y748348D01*
X1401763Y748348D01*
X1441450Y708660D01*
X1460500Y708660D01*
X1812925Y235585D02*
X1835150Y213360D01*
X1847850Y213360D01*
X1147763Y772160D02*
X1146810Y772160D01*
D44*
X1460500Y708660D03*
X1812925Y235585D03*
D43*
X1285875Y151448D02*
X1143000Y294323D01*
X1285875Y151448D02*
X1811338Y151448D01*
X1847850Y187960D01*
D44*
X1143000Y294323D03*
D43*
X1144588Y732473D02*
X1133475Y743585D01*
X1144588Y732473D02*
X1341438Y732473D01*
X1354138Y745173D01*
X1400175Y745173D01*
X1443038Y702310D01*
X1474788Y702310D01*
X1819275Y257810D02*
X1838325Y238760D01*
X1847850Y238760D01*
X1133475Y743585D02*
X1133094Y743712D01*
D44*
X1474788Y702310D03*
X1819275Y257810D03*
D43*
X1131888Y300673D02*
X1123950Y308610D01*
X1131888Y300673D02*
X1614488Y300673D01*
X1629410Y285750D01*
X1689735Y285750D01*
X1711325Y264160D01*
X1847850Y264160D01*
D44*
X1123950Y308610D03*
D43*
X1106488Y762953D02*
X1106488Y799148D01*
X1106488Y762953D02*
X1119823Y749618D01*
X1119823Y734060D01*
X1360488Y729298D02*
X1365250Y734060D01*
X1106488Y799148D02*
X1105408Y800608D01*
X1119823Y734060D02*
X1124585Y729298D01*
X1360488Y729298D01*
X1235075Y683260D02*
X1214438Y703898D01*
X1235075Y683260D02*
X1365250Y683260D01*
D44*
X1214438Y703898D03*
D43*
X1275080Y647700D02*
X1279208Y643573D01*
X1774825Y643573D01*
X1887220Y531178D01*
X1887220Y458470D01*
X1938655Y448310D02*
X1949450Y437515D01*
X1949450Y143510D01*
X1866900Y143510D01*
X1847850Y162560D01*
D44*
X1275080Y647700D03*
D43*
X1887220Y458470D02*
X1897380Y448310D01*
X1938655Y448310D01*
X1130300Y783273D02*
X1119188Y772160D01*
X1130300Y783273D02*
X1193800Y783273D01*
X1233488Y743585D01*
X1298575Y743585D01*
X1314450Y759460D01*
X1365250Y759460D01*
X1119188Y772160D02*
X1119124Y772160D01*
X1092200Y772160D02*
X1092200Y710248D01*
X1363663Y710248D01*
X1365250Y708660D01*
X1092200Y772160D02*
X1091692Y772160D01*
X1095375Y308610D02*
X1123950Y280035D01*
X1139825Y280035D01*
X1271588Y148273D01*
X1836738Y148273D01*
X1847850Y137160D01*
D44*
X1095375Y308610D03*
D43*
X1417638Y740410D02*
X1384300Y773748D01*
X1325563Y773748D01*
X1287463Y811848D01*
X1035050Y811848D01*
X1023938Y800735D01*
X1022604Y800608D01*
D44*
X1417638Y740410D03*
D43*
X1427163Y798830D02*
X1427163Y799148D01*
X1325563Y799148D01*
X1309688Y815023D01*
X1009650Y815023D01*
X995363Y800735D01*
X994918Y800608D01*
D44*
X1427163Y798830D03*
D43*
X1387475Y821373D02*
X989013Y821373D01*
X968375Y800735D01*
X967486Y800608D01*
D44*
X1387475Y821373D03*
D43*
X1517650Y111760D02*
X1503363Y97473D01*
X1412875Y97473D01*
X1401763Y86360D01*
X1401763Y75248D01*
X1277938Y75248D01*
X1084263Y268923D01*
D44*
X1084263Y268923D03*
D43*
X1544638Y62548D02*
X1568450Y86360D01*
X1544638Y62548D02*
X1109663Y62548D01*
D44*
X1109663Y62548D03*
D37*
X1060450Y683260D02*
X1017588Y726123D01*
X936308Y726123D01*
X925830Y736600D01*
X925830Y749935D01*
X911860Y763905D01*
X920750Y789623D02*
X930275Y789623D01*
X939800Y799148D01*
X939800Y800608D01*
X920750Y789623D02*
X911860Y780733D01*
X911860Y763905D01*
X1062990Y731520D02*
X1111250Y683260D01*
X1054100Y761048D02*
X965200Y761048D01*
X954088Y772160D01*
X953516Y772160D01*
X1054100Y761048D02*
X1062990Y752158D01*
X1062990Y731520D01*
X1037273Y731838D02*
X1085850Y683260D01*
X1037273Y731838D02*
X1037273Y749300D01*
X942975Y756285D02*
X927100Y772160D01*
X926084Y772160D01*
X1030288Y756285D02*
X1037273Y749300D01*
X1030288Y756285D02*
X942975Y756285D01*
X977900Y715010D02*
X1009650Y683260D01*
X977900Y715010D02*
X925513Y715010D01*
X898525Y741998D01*
X898525Y772160D01*
X898398Y772160D01*
D33*
X1035050Y219710D02*
X1035050Y187960D01*
X241300Y226060D02*
X203200Y187960D01*
X241300Y226060D02*
X241300Y314960D01*
D34*
X38100Y314960D01*
X38100Y315360D01*
X228600Y530860D02*
X260350Y562610D01*
X228600Y530860D02*
X203200Y530860D01*
X260350Y562610D02*
X260350Y645160D01*
X101600Y645160D01*
X271463Y340360D02*
X249238Y318135D01*
D33*
X241300Y314960D01*
D34*
X1019810Y340360D02*
X1035050Y355600D01*
D35*
X1035050Y355600D03*
D34*
X615950Y340360D02*
X271463Y340360D01*
D35*
X1035050Y219710D03*
D34*
X1019810Y340360D02*
X615950Y340360D01*
D33*
X1035050Y505460D02*
X1035050Y530860D01*
D35*
X1035050Y505460D03*
X615950Y340360D03*
D33*
X615950Y505460D02*
X615950Y530860D01*
D35*
X615950Y505460D03*
D33*
X615950Y219710D02*
X615950Y187960D01*
D35*
X615950Y219710D03*
D34*
X76600Y620160D02*
X38100Y620160D01*
X76600Y620160D02*
X101600Y645160D01*
X38100Y620160D02*
X38100Y520700D01*
X31750Y514350D01*
X31750Y492760D01*
D37*
X1289050Y499110D02*
X1308100Y480060D01*
X1289050Y499110D02*
X1289050Y543560D01*
X1365250Y543560D01*
X1352550Y467360D02*
X1335088Y449898D01*
X1352550Y467360D02*
X1365250Y467360D01*
D44*
X1335088Y449898D03*
D37*
X1374775Y429260D02*
X1390650Y413385D01*
X1374775Y429260D02*
X1308100Y429260D01*
D44*
X1390650Y413385D03*
D37*
X1408113Y522923D02*
X1374775Y556260D01*
X1308100Y556260D01*
D44*
X1408113Y522923D03*
D37*
X1322388Y100648D02*
X1308100Y86360D01*
X1322388Y100648D02*
X1404938Y100648D01*
X1416050Y111760D01*
X1335088Y186373D02*
X1308100Y213360D01*
D44*
X1335088Y186373D03*
D43*
X908050Y524510D02*
X889000Y505460D01*
X908050Y524510D02*
X908050Y556260D01*
X1083628Y573088D02*
X1128713Y618173D01*
X1795463Y618173D01*
X1866900Y546735D01*
X1866900Y467360D01*
X1847850Y467360D01*
X920750Y568960D02*
X908050Y556260D01*
X999490Y573088D02*
X1083628Y573088D01*
X999490Y573088D02*
X995363Y568960D01*
X920750Y568960D01*
X903288Y176848D02*
X889000Y162560D01*
X903288Y176848D02*
X974725Y176848D01*
X1033463Y235585D01*
X1092200Y235585D01*
X1282700Y426085D02*
X1300163Y443548D01*
X1344613Y443548D01*
X1354138Y453073D01*
X1836738Y453073D01*
X1847850Y441960D01*
D44*
X1092200Y235585D03*
X1282700Y426085D03*
D43*
X476250Y505460D02*
X450850Y480060D01*
X457200Y415608D02*
X582930Y415608D01*
X593408Y426085D01*
X859790Y426085D01*
X872173Y413703D01*
X1345883Y413703D01*
X1354138Y405448D01*
X1397000Y405448D01*
X1408113Y416560D01*
X1847850Y416560D01*
X457200Y415608D02*
X450850Y421958D01*
X450850Y480060D01*
X476250Y162560D02*
X457200Y143510D01*
X457200Y97473D01*
X498475Y97473D01*
X546100Y49848D01*
X1749425Y49848D01*
D44*
X1749425Y49848D03*
D43*
X1308100Y505460D02*
X1309688Y507048D01*
X1811338Y507048D01*
X1847850Y543560D01*
X1322388Y176848D02*
X1308100Y162560D01*
X1322388Y176848D02*
X1762125Y176848D01*
D44*
X1762125Y176848D03*
D37*
X900113Y468948D02*
X889000Y480060D01*
X900113Y468948D02*
X1341438Y468948D01*
X1365250Y492760D01*
X1004888Y492760D02*
X987425Y475298D01*
X1004888Y492760D02*
X1222375Y492760D01*
X1298575Y568960D01*
X1365250Y568960D01*
D44*
X987425Y475298D03*
D37*
X487363Y468948D02*
X476250Y480060D01*
X487363Y468948D02*
X855663Y468948D01*
X881063Y494348D01*
X917575Y494348D01*
X941388Y518160D01*
X984250Y518160D01*
X1031875Y565785D01*
X1087438Y565785D01*
X1116013Y594360D01*
X1365250Y594360D01*
X601345Y421005D02*
X598488Y418148D01*
X601345Y421005D02*
X857568Y421005D01*
X868363Y410210D01*
X1344613Y410210D01*
X1354138Y400685D01*
X1400175Y400685D01*
X1401763Y624523D02*
X1393825Y632460D01*
X1365250Y632460D01*
D44*
X598488Y418148D03*
X1400175Y400685D03*
X1401763Y624523D03*
D37*
X909638Y391160D02*
X906463Y394335D01*
X1398588Y391160D02*
X1404938Y384810D01*
X1398588Y391160D02*
X909638Y391160D01*
D44*
X906463Y394335D03*
X1404938Y384810D03*
D37*
X871538Y300673D02*
X863600Y308610D01*
X871538Y300673D02*
X1098550Y300673D01*
X1273175Y126048D01*
X1338263Y126048D01*
X1354138Y141923D01*
X1414463Y141923D01*
D44*
X863600Y308610D03*
D38*
X1414463Y141923D03*
D37*
X919163Y56198D02*
X889000Y86360D01*
X919163Y56198D02*
X1427163Y56198D01*
D38*
X1427163Y56198D03*
D37*
X933450Y257810D02*
X889000Y213360D01*
X939800Y281623D02*
X1063625Y281623D01*
X1274763Y70485D01*
X1450975Y70485D01*
X1466850Y86360D01*
X939800Y281623D02*
X933450Y275273D01*
X933450Y257810D01*
X503238Y386398D02*
X490538Y399098D01*
X503238Y386398D02*
X1395413Y386398D01*
X1450975Y330835D01*
X1579563Y330835D01*
X1589088Y321310D01*
X1701800Y321310D01*
D38*
X490538Y399098D03*
D44*
X1701800Y321310D03*
D37*
X515938Y173673D02*
X476250Y213360D01*
X515938Y173673D02*
X592138Y173673D01*
X595313Y170498D01*
X698500Y170498D01*
D44*
X698500Y170498D03*
D43*
X1760538Y97473D02*
X1771650Y86360D01*
X1760538Y97473D02*
X1706563Y97473D01*
X1704975Y95885D01*
D44*
X1704975Y95885D03*
D43*
X1610043Y260985D02*
X1620838Y271780D01*
X1610043Y260985D02*
X1595438Y260985D01*
X1771650Y111760D02*
X1785938Y97473D01*
X1785938Y68898D01*
X1647825Y68898D01*
D44*
X1620838Y271780D03*
X1595438Y260985D03*
X1647825Y68898D03*
D43*
X1598613Y216535D02*
X1606550Y224473D01*
X1598613Y216535D02*
X1558925Y216535D01*
X1543050Y232410D01*
X1735138Y75248D02*
X1746250Y86360D01*
X1735138Y75248D02*
X1663700Y75248D01*
D44*
X1606550Y224473D03*
X1663700Y75248D03*
D43*
X1735138Y100648D02*
X1746250Y111760D01*
X1735138Y100648D02*
X1708150Y100648D01*
X1706563Y102235D01*
X1700213Y102235D01*
X1697038Y99060D01*
X1617663Y99060D01*
D44*
X1617663Y99060D03*
D43*
X1390650Y213360D02*
X1365250Y238760D01*
X1390650Y213360D02*
X1625600Y213360D01*
X1644650Y232410D01*
X1670050Y244793D02*
X1643063Y271780D01*
X1670050Y244793D02*
X1670050Y243523D01*
X1374775Y254635D02*
X1365250Y264160D01*
X1374775Y254635D02*
X1600200Y254635D01*
X1601788Y256223D01*
X1644650Y256223D01*
X1657350Y243523D01*
X1670050Y243523D01*
X1670050Y232410D01*
D44*
X1643063Y271780D03*
X1611313Y308610D03*
X1868488Y302260D03*
D43*
X1744980Y308610D02*
X1611313Y308610D01*
X1751330Y302260D02*
X1868488Y302260D01*
X1751330Y302260D02*
X1744980Y308610D01*
X1308100Y454660D02*
X1300163Y446723D01*
X1006475Y446723D01*
X976630Y416878D01*
X926783Y416878D01*
X889000Y454660D01*
X488950Y124460D02*
X476250Y111760D01*
X488950Y124460D02*
X876300Y124460D01*
X889000Y111760D01*
D33*
X952500Y238760D02*
X965200Y251460D01*
X952500Y264160D01*
X965200Y251460D02*
X1035050Y251460D01*
D43*
X1917700Y372110D02*
X1930400Y359410D01*
X1917700Y372110D02*
X1885315Y372110D01*
X1867853Y354648D01*
X1738313Y354648D01*
X1727200Y365760D01*
X1603375Y365760D01*
D44*
X1603375Y365760D03*
D43*
X1608138Y330835D02*
X1609725Y329248D01*
X1608138Y330835D02*
X1584325Y330835D01*
X1570038Y345123D01*
X1920875Y394335D02*
X1930400Y384810D01*
X1920875Y394335D02*
X1911350Y394335D01*
X1908175Y397510D01*
X1888808Y397510D01*
X1868170Y376873D01*
X1601788Y376873D01*
X1570038Y345123D01*
X1568450Y346710D01*
D44*
X1609725Y329248D03*
D43*
X1917700Y422910D02*
X1930400Y410210D01*
X1865313Y380048D02*
X1597025Y380048D01*
D44*
X1597025Y380048D03*
D43*
X1881124Y395859D02*
X1881124Y412299D01*
X1891735Y422910D01*
X1881124Y395859D02*
X1865313Y380048D01*
X1891735Y422910D02*
X1917700Y422910D01*
X1635125Y362585D02*
X1619250Y346710D01*
X1635125Y362585D02*
X1725613Y362585D01*
X1738313Y349885D01*
X1892300Y349885D01*
X1895475Y346710D01*
X1939925Y346710D01*
X1943100Y349885D01*
X1943100Y397510D01*
X1917700Y397510D01*
X1905000Y410210D01*
X1798638Y257810D02*
X1831975Y224473D01*
X1887538Y224473D01*
X1905000Y207010D01*
D44*
X1798638Y257810D03*
D43*
X1905000Y232410D02*
X1917700Y245110D01*
X1939290Y245110D01*
X1943100Y248920D01*
X1943100Y295910D01*
X1889125Y295910D01*
X1854200Y330835D01*
X1685925Y330835D01*
X1670050Y346710D01*
X1368425Y210185D02*
X1365250Y213360D01*
X1368425Y210185D02*
X1673225Y210185D01*
X1695450Y232410D01*
X1376363Y199073D02*
X1365250Y187960D01*
X1376363Y199073D02*
X1687513Y199073D01*
X1720850Y232410D01*
X1917700Y168910D02*
X1930400Y156210D01*
X1917700Y168910D02*
X1889125Y168910D01*
X1855788Y202248D01*
X1782763Y202248D01*
X1727200Y257810D01*
D44*
X1727200Y257810D03*
D43*
X1930400Y181610D02*
X1946275Y197485D01*
X1946275Y321310D01*
X1868488Y321310D01*
X1843088Y346710D01*
X1720850Y346710D01*
X1765300Y275273D02*
X1890713Y275273D01*
X1765300Y275273D02*
X1704975Y275273D01*
X1890713Y275273D02*
X1895475Y270510D01*
X1917700Y270510D01*
X1930400Y257810D01*
D44*
X1681798Y298450D03*
D43*
X1704975Y275273D01*
X1765300Y275273D02*
X1765300Y285750D01*
D37*
X1219200Y869950D02*
X1206500Y869950D01*
X1219200Y869950D02*
X1238250Y850900D01*
X1348740Y847090D02*
X1383030Y847090D01*
X1403985Y826135D01*
X1404620Y825500D01*
X1404620Y815340D01*
X1399540Y810260D01*
X1365250Y810260D01*
X1344930Y850900D02*
X1238250Y850900D01*
X1344930Y850900D02*
X1348740Y847090D01*
D43*
X1419860Y842010D02*
X1841500Y842010D01*
X1419860Y842010D02*
X1403985Y826135D01*
X1847850Y721360D02*
X1911350Y784860D01*
X1911350Y791210D01*
D33*
X965200Y594360D02*
X952500Y581660D01*
X965200Y594360D02*
X952500Y607060D01*
X965200Y594360D02*
X1035050Y594360D01*
D39*
X590550Y803910D02*
X590550Y867410D01*
X590550Y803910D02*
X590550Y772160D01*
X590550Y867410D02*
X577850Y880110D01*
X511810Y880110D01*
X509270Y877570D01*
X406400Y753110D02*
X406400Y727710D01*
X406400Y753110D02*
X546100Y753110D01*
X558800Y740410D01*
X590550Y772160D01*
X584200Y797560D02*
X566420Y797560D01*
X584200Y797560D02*
X590550Y803910D01*
D43*
X564515Y861695D02*
X534670Y861695D01*
X564515Y861695D02*
X574675Y851535D01*
X571500Y822960D02*
X558800Y822960D01*
X521335Y848360D02*
X534670Y861695D01*
X521335Y848360D02*
X463550Y848360D01*
X571500Y822960D02*
X574675Y826135D01*
X574675Y851535D01*
D37*
X1339850Y703898D02*
X1347788Y695960D01*
X1847850Y695960D01*
X1866900Y695960D02*
X1917700Y746760D01*
X1866900Y695960D02*
X1847850Y695960D01*
D38*
X1339850Y703898D03*
D33*
X546100Y594360D02*
X533400Y581660D01*
X546100Y594360D02*
X533400Y607060D01*
X546100Y594360D02*
X615950Y594360D01*
X546100Y251460D02*
X533400Y238760D01*
X546100Y251460D02*
X533400Y264160D01*
X546100Y251460D02*
X615950Y251460D01*
X133350Y594360D02*
X120650Y581660D01*
X133350Y594360D02*
X120650Y607060D01*
X133350Y594360D02*
X203200Y594360D01*
X133350Y251460D02*
X120650Y238760D01*
X133350Y251460D02*
X120650Y264160D01*
X133350Y251460D02*
X203200Y251460D01*
D43*
X1130300Y869950D02*
X1181100Y869950D01*
D37*
X1366520Y889000D02*
X1398270Y857250D01*
X1366520Y889000D02*
X1200150Y889000D01*
X1181100Y869950D01*
D43*
X1398270Y857250D02*
X1841500Y857250D01*
X1871663Y827088D02*
X1871663Y811848D01*
D44*
X1871663Y811848D03*
D43*
X1871663Y827088D02*
X1841500Y857250D01*
M02*
