M48
;GenerationSoftware,Autodesk,EAGLE,9.4.2*%
;CreationDate,2019-08-04T06:56:14Z*%
FMAT,2
ICI,OFF
METRIC,TZ,000.000
T13C0.305
T12C0.406
T11C0.610
T10C0.750
T9C0.800
T8C0.813
T7C1.000
T6C1.016
T5C1.194
T4C1.500
T3C1.702
T2C3.000
T1C3.302
%
G90
M71
T1
X124536Y77216
X63424Y77216
T2
X191135Y84836
X4445Y85471
X4445Y4191
X191770Y4826
T3
X55880Y70231
X55880Y74041
T4
X50927Y87757
X50927Y70485
X11303Y70485
X11303Y87757
X96520Y59436
X13335Y9906
X13335Y14986
X13335Y20066
X13335Y25146
X13335Y44196
X13335Y49276
X13335Y54356
X13335Y59436
X54610Y9906
X54610Y14986
X54610Y25146
X54610Y44196
X54610Y49276
X54610Y54356
X54610Y59436
X96520Y9906
X96520Y14986
X96520Y20066
X96520Y25146
X54610Y20066
X96520Y44196
X96520Y49276
X96520Y54356
T5
X3810Y31536
X3810Y62016
X3810Y36536
X3810Y67016
X3810Y72176
X3810Y77176
T6
X92608Y77216
X53340Y16256
X53340Y18796
X53340Y21336
X53340Y23876
X53340Y26416
X88900Y8636
X88900Y11176
X88900Y13716
X88900Y16256
X88900Y18796
X88900Y21336
X88900Y23876
X88900Y26416
X88900Y28956
X88900Y31496
X12065Y42926
X12065Y45466
X12065Y48006
X12065Y50546
X12065Y53086
X12065Y55626
X12065Y58166
X12065Y60706
X47625Y42926
X47625Y45466
X47625Y48006
X47625Y50546
X47625Y53086
X47625Y55626
X47625Y58166
X47625Y60706
X47625Y63246
X47625Y65786
X12065Y8636
X12065Y11176
X12065Y13716
X12065Y16256
X12065Y18796
X12065Y21336
X12065Y23876
X12065Y26416
X47625Y8636
X47625Y11176
X47625Y13716
X47625Y16256
X47625Y18796
X47625Y21336
X47625Y23876
X47625Y26416
X47625Y28956
X47625Y31496
X179705Y8636
X3175Y49276
X3175Y44196
X116053Y80061
X113309Y80061
X110541Y80061
X107772Y80061
X105029Y80061
X102260Y80061
X99492Y80061
X96749Y80061
X93980Y80061
X91211Y80061
X88468Y80061
X85700Y80061
X114681Y77216
X111912Y77216
X109169Y77216
X106401Y77216
X103632Y77216
X100889Y77216
X98120Y77216
X95352Y77216
X89840Y77216
X87071Y77216
X82931Y80061
X80188Y80061
X77419Y80061
X74651Y80061
X84328Y77216
X81559Y77216
X78791Y77216
X76048Y77216
X71907Y80061
X73279Y77216
X116053Y74371
X113309Y74371
X110541Y74371
X107772Y74371
X105029Y74371
X102260Y74371
X99492Y74371
X96749Y74371
X93980Y74371
X91211Y74371
X88468Y74371
X85700Y74371
X82931Y74371
X80188Y74371
X77419Y74371
X74651Y74371
X71907Y74371
X184785Y72136
X184785Y69596
X184785Y67056
X184785Y64516
X184785Y61976
X184785Y59436
X184785Y54356
X184785Y51816
X184785Y49276
X184785Y46736
X184785Y44196
X184785Y41656
X184785Y39116
X184785Y36576
X184785Y31496
X184785Y28956
X184785Y26416
X184785Y23876
X184785Y21336
X184785Y18796
X184785Y16256
X184785Y13716
X136525Y18796
X136525Y21336
X136525Y23876
X136525Y26416
X136525Y28956
X136525Y31496
X136525Y34036
X136525Y36576
X136525Y41656
X136525Y44196
X136525Y46736
X136525Y49276
X136525Y51816
X136525Y54356
X136525Y56896
X136525Y59436
X136525Y63246
X136525Y65786
X136525Y68326
X136525Y70866
X136525Y73406
X136525Y75946
X136525Y78486
X136525Y81026
X136525Y11176
X136525Y8636
X139065Y11176
X139065Y8636
X141605Y11176
X141605Y8636
X144145Y11176
X144145Y8636
X146685Y11176
X146685Y8636
X149225Y11176
X149225Y8636
X151765Y11176
X151765Y8636
X154305Y11176
X154305Y8636
X156845Y11176
X156845Y8636
X159385Y11176
X159385Y8636
X161925Y11176
X161925Y8636
X164465Y11176
X164465Y8636
X167005Y11176
X167005Y8636
X169545Y11176
X169545Y8636
X172085Y11176
X172085Y8636
X174625Y11176
X174625Y8636
X177165Y11176
X177165Y8636
X179705Y11176
X95250Y26416
X136525Y83566
X136525Y86106
X184785Y77216
X184785Y74676
X191135Y79121
X193675Y79121
X95250Y42926
X95250Y45466
X95250Y48006
X95250Y50546
X95250Y53086
X95250Y55626
X95250Y58166
X95250Y60706
X130810Y42926
X130810Y45466
X130810Y48006
X130810Y50546
X130810Y53086
X130810Y55626
X130810Y58166
X130810Y60706
X130810Y63246
X130810Y65786
X95250Y8636
X95250Y11176
X95250Y13716
X95250Y16256
X95250Y18796
X95250Y21336
X95250Y23876
X130810Y8636
X130810Y11176
X130810Y13716
X130810Y16256
X130810Y18796
X130810Y21336
X130810Y23876
X130810Y26416
X130810Y28956
X130810Y31496
X53340Y42926
X53340Y45466
X53340Y48006
X53340Y50546
X53340Y53086
X53340Y55626
X53340Y58166
X53340Y60706
X88900Y42926
X88900Y45466
X88900Y48006
X88900Y50546
X88900Y53086
X88900Y55626
X88900Y58166
X88900Y60706
X88900Y63246
X88900Y65786
X53340Y8636
X53340Y11176
X53340Y13716
T7
X193040Y35941
X190500Y33401
X193040Y33401
X190500Y30861
X193040Y30861
X190500Y28321
X193040Y28321
X190500Y25781
X193040Y25781
X190500Y23241
X193040Y23241
X193040Y13081
X190500Y46101
X193040Y48641
X190500Y48641
X193040Y51181
X190500Y51181
X193040Y53721
X190500Y53721
X193040Y56261
X193040Y38481
X190500Y56261
X193040Y58801
X190500Y13081
X190500Y20701
X193040Y20701
X190500Y18161
X193040Y46101
X190500Y43561
X193040Y43561
X190500Y58801
X193040Y61341
X190500Y61341
X193040Y18161
X190500Y15621
X193040Y15621
X190500Y41021
X193040Y41021
X190500Y38481
X190500Y35941
T8
X91757Y36576
X111125Y68326
X111125Y63246
X106045Y68326
X106045Y63246
X108585Y68326
X103505Y68326
X46990Y36417
X103505Y63246
X100965Y68326
X100965Y63246
X98425Y68326
X55880Y82296
X55880Y84836
X46355Y84836
X46355Y77216
X132715Y83566
X130175Y83566
X172085Y23241
X169545Y23241
X167005Y23241
X164465Y23241
X161925Y23241
X159385Y23241
X156845Y23241
X154305Y23241
X103505Y21971
X103505Y50546
X61595Y21971
X61595Y50546
X61277Y33401
X103187Y33719
X98425Y63246
X169545Y34671
X184150Y84201
X184150Y81661
X154305Y34671
X156845Y34671
X159385Y34671
X161925Y34671
X164465Y34671
X167005Y34671
X108585Y63246
X172085Y34671
T9
X21590Y82931
X40640Y72771
X21590Y85471
X21590Y75311
X21590Y72771
X40640Y82931
X40640Y85471
X40640Y75311
T10
X82550Y68802
X88900Y69596
T11
X191770Y72136
X131445Y74676
X131445Y77216
X131445Y79756
X191770Y69596
X191770Y74676
T12
X160973Y24987
X134620Y19653
X111760Y58166
X133350Y65151
X67882Y40259
X76994Y22288
X76041Y65627
X168180Y29845
X73343Y45625
X20955Y41815
X95155Y40259
X49054Y39910
X142716Y5620
X141446Y14192
X133985Y70390
X77946Y41339
X167799Y25622
T13
X140176Y62452
X140018Y40069
X59849Y41815
X98742Y47530
X176212Y17685
X174942Y4985
X128270Y42609
X86360Y30861
X133509Y18637
X160338Y36576
X122237Y37370
X166370Y7525
X160655Y22447
X164783Y6890
X159544Y26098
X146050Y70866
X181292Y23558
X109220Y23558
X114300Y29432
X147479Y70231
X112395Y30861
X121444Y70390
X127508Y64770
X109537Y30861
X141764Y74041
X186849Y30226
X142716Y79883
X140811Y52292
X139065Y41339
X133509Y44990
X110966Y6255
X108426Y26892
X138748Y82137
X162084Y27178
X170498Y9589
X170180Y32131
X181927Y25781
X161766Y9906
X179864Y25781
X69850Y17050
X172720Y25781
X159703Y38005
X140494Y38481
X90646Y39434
X161131Y30861
X160973Y32925
X164306Y27178
M30