G04 EAGLE Gerber RS-274X export*
G75*
%MOMM*%
%FSLAX34Y34*%
%LPD*%
%INMill Layer*%
%IPPOS*%
%AMOC8*
5,1,8,0,0,1.08239X$1,22.5*%
G01*
%ADD10C,0.000000*%
%ADD11C,0.254000*%


D10*
X51000Y-3050D02*
X1911350Y-3050D01*
X1912578Y-3035D01*
X1913804Y-2991D01*
X1915030Y-2917D01*
X1916253Y-2813D01*
X1917473Y-2680D01*
X1918690Y-2517D01*
X1919903Y-2325D01*
X1921110Y-2104D01*
X1922312Y-1853D01*
X1923507Y-1574D01*
X1924696Y-1266D01*
X1925876Y-929D01*
X1927048Y-564D01*
X1928211Y-170D01*
X1929364Y251D01*
X1930506Y700D01*
X1931638Y1177D01*
X1932757Y1681D01*
X1933864Y2212D01*
X1934958Y2769D01*
X1936038Y3352D01*
X1937104Y3962D01*
X1938154Y4597D01*
X1939189Y5257D01*
X1940208Y5942D01*
X1941209Y6652D01*
X1942194Y7385D01*
X1943160Y8143D01*
X1944108Y8923D01*
X1945037Y9726D01*
X1945946Y10551D01*
X1946834Y11398D01*
X1947702Y12266D01*
X1948549Y13154D01*
X1949374Y14063D01*
X1950177Y14992D01*
X1950957Y15940D01*
X1951715Y16906D01*
X1952448Y17891D01*
X1953158Y18892D01*
X1953843Y19911D01*
X1954503Y20946D01*
X1955138Y21996D01*
X1955748Y23062D01*
X1956331Y24142D01*
X1956888Y25236D01*
X1957419Y26343D01*
X1957923Y27462D01*
X1958400Y28594D01*
X1958849Y29736D01*
X1959270Y30889D01*
X1959664Y32052D01*
X1960029Y33224D01*
X1960366Y34404D01*
X1960674Y35593D01*
X1960953Y36788D01*
X1961204Y37990D01*
X1961425Y39197D01*
X1961617Y40410D01*
X1961780Y41627D01*
X1961913Y42847D01*
X1962017Y44070D01*
X1962091Y45296D01*
X1962135Y46522D01*
X1962150Y47750D01*
X1962150Y844550D01*
X1962135Y845778D01*
X1962091Y847004D01*
X1962017Y848230D01*
X1961913Y849453D01*
X1961780Y850673D01*
X1961617Y851890D01*
X1961425Y853103D01*
X1961204Y854310D01*
X1960953Y855512D01*
X1960674Y856707D01*
X1960366Y857896D01*
X1960029Y859076D01*
X1959664Y860248D01*
X1959270Y861411D01*
X1958849Y862564D01*
X1958400Y863706D01*
X1957923Y864838D01*
X1957419Y865957D01*
X1956888Y867064D01*
X1956331Y868158D01*
X1955748Y869238D01*
X1955138Y870304D01*
X1954503Y871354D01*
X1953843Y872389D01*
X1953158Y873408D01*
X1952448Y874409D01*
X1951715Y875394D01*
X1950957Y876360D01*
X1950177Y877308D01*
X1949374Y878237D01*
X1948549Y879146D01*
X1947702Y880034D01*
X1946834Y880902D01*
X1945946Y881749D01*
X1945037Y882574D01*
X1944108Y883377D01*
X1943160Y884157D01*
X1942194Y884915D01*
X1941209Y885648D01*
X1940208Y886358D01*
X1939189Y887043D01*
X1938154Y887703D01*
X1937104Y888338D01*
X1936038Y888948D01*
X1934958Y889531D01*
X1933864Y890088D01*
X1932757Y890619D01*
X1931638Y891123D01*
X1930506Y891600D01*
X1929364Y892049D01*
X1928211Y892470D01*
X1927048Y892864D01*
X1925876Y893229D01*
X1924696Y893566D01*
X1923507Y893874D01*
X1922312Y894153D01*
X1921110Y894404D01*
X1919903Y894625D01*
X1918690Y894817D01*
X1917473Y894980D01*
X1916253Y895113D01*
X1915030Y895217D01*
X1913804Y895291D01*
X1912578Y895335D01*
X1911350Y895350D01*
X51000Y895350D01*
X49772Y895335D01*
X48546Y895291D01*
X47320Y895217D01*
X46097Y895113D01*
X44877Y894980D01*
X43660Y894817D01*
X42447Y894625D01*
X41240Y894404D01*
X40038Y894153D01*
X38843Y893874D01*
X37654Y893566D01*
X36474Y893229D01*
X35302Y892864D01*
X34139Y892470D01*
X32986Y892049D01*
X31844Y891600D01*
X30712Y891123D01*
X29593Y890619D01*
X28486Y890088D01*
X27392Y889531D01*
X26312Y888948D01*
X25246Y888338D01*
X24196Y887703D01*
X23161Y887043D01*
X22142Y886358D01*
X21141Y885648D01*
X20156Y884915D01*
X19190Y884157D01*
X18242Y883377D01*
X17313Y882574D01*
X16404Y881749D01*
X15516Y880902D01*
X14648Y880034D01*
X13801Y879146D01*
X12976Y878237D01*
X12173Y877308D01*
X11393Y876360D01*
X10635Y875394D01*
X9902Y874409D01*
X9192Y873408D01*
X8507Y872389D01*
X7847Y871354D01*
X7212Y870304D01*
X6602Y869238D01*
X6019Y868158D01*
X5462Y867064D01*
X4931Y865957D01*
X4427Y864838D01*
X3950Y863706D01*
X3501Y862564D01*
X3080Y861411D01*
X2686Y860248D01*
X2321Y859076D01*
X1984Y857896D01*
X1676Y856707D01*
X1397Y855512D01*
X1146Y854310D01*
X925Y853103D01*
X733Y851890D01*
X570Y850673D01*
X437Y849453D01*
X333Y848230D01*
X259Y847004D01*
X215Y845778D01*
X200Y844550D01*
X200Y47750D01*
X215Y46522D01*
X259Y45296D01*
X333Y44070D01*
X437Y42847D01*
X570Y41627D01*
X733Y40410D01*
X925Y39197D01*
X1146Y37990D01*
X1397Y36788D01*
X1676Y35593D01*
X1984Y34404D01*
X2321Y33224D01*
X2686Y32052D01*
X3080Y30889D01*
X3501Y29736D01*
X3950Y28594D01*
X4427Y27462D01*
X4931Y26343D01*
X5462Y25236D01*
X6019Y24142D01*
X6602Y23062D01*
X7212Y21996D01*
X7847Y20946D01*
X8507Y19911D01*
X9192Y18892D01*
X9902Y17891D01*
X10635Y16906D01*
X11393Y15940D01*
X12173Y14992D01*
X12976Y14063D01*
X13801Y13154D01*
X14648Y12266D01*
X15516Y11398D01*
X16404Y10551D01*
X17313Y9726D01*
X18242Y8923D01*
X19190Y8143D01*
X20156Y7385D01*
X21141Y6652D01*
X22142Y5942D01*
X23161Y5257D01*
X24196Y4597D01*
X25246Y3962D01*
X26312Y3352D01*
X27392Y2769D01*
X28486Y2212D01*
X29593Y1681D01*
X30712Y1177D01*
X31844Y700D01*
X32986Y251D01*
X34139Y-170D01*
X35302Y-564D01*
X36474Y-929D01*
X37654Y-1266D01*
X38843Y-1574D01*
X40038Y-1853D01*
X41240Y-2104D01*
X42447Y-2325D01*
X43660Y-2517D01*
X44877Y-2680D01*
X46097Y-2813D01*
X47320Y-2917D01*
X48546Y-2991D01*
X49772Y-3035D01*
X51000Y-3050D01*
X29450Y38100D02*
X29455Y38468D01*
X29468Y38836D01*
X29491Y39203D01*
X29522Y39570D01*
X29563Y39936D01*
X29612Y40301D01*
X29671Y40664D01*
X29738Y41026D01*
X29814Y41387D01*
X29900Y41745D01*
X29993Y42101D01*
X30096Y42454D01*
X30207Y42805D01*
X30327Y43153D01*
X30455Y43498D01*
X30592Y43840D01*
X30737Y44179D01*
X30890Y44513D01*
X31052Y44844D01*
X31221Y45171D01*
X31399Y45493D01*
X31584Y45812D01*
X31777Y46125D01*
X31978Y46434D01*
X32186Y46737D01*
X32402Y47035D01*
X32625Y47328D01*
X32855Y47616D01*
X33092Y47898D01*
X33336Y48173D01*
X33586Y48443D01*
X33843Y48707D01*
X34107Y48964D01*
X34377Y49214D01*
X34652Y49458D01*
X34934Y49695D01*
X35222Y49925D01*
X35515Y50148D01*
X35813Y50364D01*
X36116Y50572D01*
X36425Y50773D01*
X36738Y50966D01*
X37057Y51151D01*
X37379Y51329D01*
X37706Y51498D01*
X38037Y51660D01*
X38371Y51813D01*
X38710Y51958D01*
X39052Y52095D01*
X39397Y52223D01*
X39745Y52343D01*
X40096Y52454D01*
X40449Y52557D01*
X40805Y52650D01*
X41163Y52736D01*
X41524Y52812D01*
X41886Y52879D01*
X42249Y52938D01*
X42614Y52987D01*
X42980Y53028D01*
X43347Y53059D01*
X43714Y53082D01*
X44082Y53095D01*
X44450Y53100D01*
X44818Y53095D01*
X45186Y53082D01*
X45553Y53059D01*
X45920Y53028D01*
X46286Y52987D01*
X46651Y52938D01*
X47014Y52879D01*
X47376Y52812D01*
X47737Y52736D01*
X48095Y52650D01*
X48451Y52557D01*
X48804Y52454D01*
X49155Y52343D01*
X49503Y52223D01*
X49848Y52095D01*
X50190Y51958D01*
X50529Y51813D01*
X50863Y51660D01*
X51194Y51498D01*
X51521Y51329D01*
X51843Y51151D01*
X52162Y50966D01*
X52475Y50773D01*
X52784Y50572D01*
X53087Y50364D01*
X53385Y50148D01*
X53678Y49925D01*
X53966Y49695D01*
X54248Y49458D01*
X54523Y49214D01*
X54793Y48964D01*
X55057Y48707D01*
X55314Y48443D01*
X55564Y48173D01*
X55808Y47898D01*
X56045Y47616D01*
X56275Y47328D01*
X56498Y47035D01*
X56714Y46737D01*
X56922Y46434D01*
X57123Y46125D01*
X57316Y45812D01*
X57501Y45493D01*
X57679Y45171D01*
X57848Y44844D01*
X58010Y44513D01*
X58163Y44179D01*
X58308Y43840D01*
X58445Y43498D01*
X58573Y43153D01*
X58693Y42805D01*
X58804Y42454D01*
X58907Y42101D01*
X59000Y41745D01*
X59086Y41387D01*
X59162Y41026D01*
X59229Y40664D01*
X59288Y40301D01*
X59337Y39936D01*
X59378Y39570D01*
X59409Y39203D01*
X59432Y38836D01*
X59445Y38468D01*
X59450Y38100D01*
X59445Y37732D01*
X59432Y37364D01*
X59409Y36997D01*
X59378Y36630D01*
X59337Y36264D01*
X59288Y35899D01*
X59229Y35536D01*
X59162Y35174D01*
X59086Y34813D01*
X59000Y34455D01*
X58907Y34099D01*
X58804Y33746D01*
X58693Y33395D01*
X58573Y33047D01*
X58445Y32702D01*
X58308Y32360D01*
X58163Y32021D01*
X58010Y31687D01*
X57848Y31356D01*
X57679Y31029D01*
X57501Y30707D01*
X57316Y30388D01*
X57123Y30075D01*
X56922Y29766D01*
X56714Y29463D01*
X56498Y29165D01*
X56275Y28872D01*
X56045Y28584D01*
X55808Y28302D01*
X55564Y28027D01*
X55314Y27757D01*
X55057Y27493D01*
X54793Y27236D01*
X54523Y26986D01*
X54248Y26742D01*
X53966Y26505D01*
X53678Y26275D01*
X53385Y26052D01*
X53087Y25836D01*
X52784Y25628D01*
X52475Y25427D01*
X52162Y25234D01*
X51843Y25049D01*
X51521Y24871D01*
X51194Y24702D01*
X50863Y24540D01*
X50529Y24387D01*
X50190Y24242D01*
X49848Y24105D01*
X49503Y23977D01*
X49155Y23857D01*
X48804Y23746D01*
X48451Y23643D01*
X48095Y23550D01*
X47737Y23464D01*
X47376Y23388D01*
X47014Y23321D01*
X46651Y23262D01*
X46286Y23213D01*
X45920Y23172D01*
X45553Y23141D01*
X45186Y23118D01*
X44818Y23105D01*
X44450Y23100D01*
X44082Y23105D01*
X43714Y23118D01*
X43347Y23141D01*
X42980Y23172D01*
X42614Y23213D01*
X42249Y23262D01*
X41886Y23321D01*
X41524Y23388D01*
X41163Y23464D01*
X40805Y23550D01*
X40449Y23643D01*
X40096Y23746D01*
X39745Y23857D01*
X39397Y23977D01*
X39052Y24105D01*
X38710Y24242D01*
X38371Y24387D01*
X38037Y24540D01*
X37706Y24702D01*
X37379Y24871D01*
X37057Y25049D01*
X36738Y25234D01*
X36425Y25427D01*
X36116Y25628D01*
X35813Y25836D01*
X35515Y26052D01*
X35222Y26275D01*
X34934Y26505D01*
X34652Y26742D01*
X34377Y26986D01*
X34107Y27236D01*
X33843Y27493D01*
X33586Y27757D01*
X33336Y28027D01*
X33092Y28302D01*
X32855Y28584D01*
X32625Y28872D01*
X32402Y29165D01*
X32186Y29463D01*
X31978Y29766D01*
X31777Y30075D01*
X31584Y30388D01*
X31399Y30707D01*
X31221Y31029D01*
X31052Y31356D01*
X30890Y31687D01*
X30737Y32021D01*
X30592Y32360D01*
X30455Y32702D01*
X30327Y33047D01*
X30207Y33395D01*
X30096Y33746D01*
X29993Y34099D01*
X29900Y34455D01*
X29814Y34813D01*
X29738Y35174D01*
X29671Y35536D01*
X29612Y35899D01*
X29563Y36264D01*
X29522Y36630D01*
X29491Y36997D01*
X29468Y37364D01*
X29455Y37732D01*
X29450Y38100D01*
X29450Y850900D02*
X29455Y851268D01*
X29468Y851636D01*
X29491Y852003D01*
X29522Y852370D01*
X29563Y852736D01*
X29612Y853101D01*
X29671Y853464D01*
X29738Y853826D01*
X29814Y854187D01*
X29900Y854545D01*
X29993Y854901D01*
X30096Y855254D01*
X30207Y855605D01*
X30327Y855953D01*
X30455Y856298D01*
X30592Y856640D01*
X30737Y856979D01*
X30890Y857313D01*
X31052Y857644D01*
X31221Y857971D01*
X31399Y858293D01*
X31584Y858612D01*
X31777Y858925D01*
X31978Y859234D01*
X32186Y859537D01*
X32402Y859835D01*
X32625Y860128D01*
X32855Y860416D01*
X33092Y860698D01*
X33336Y860973D01*
X33586Y861243D01*
X33843Y861507D01*
X34107Y861764D01*
X34377Y862014D01*
X34652Y862258D01*
X34934Y862495D01*
X35222Y862725D01*
X35515Y862948D01*
X35813Y863164D01*
X36116Y863372D01*
X36425Y863573D01*
X36738Y863766D01*
X37057Y863951D01*
X37379Y864129D01*
X37706Y864298D01*
X38037Y864460D01*
X38371Y864613D01*
X38710Y864758D01*
X39052Y864895D01*
X39397Y865023D01*
X39745Y865143D01*
X40096Y865254D01*
X40449Y865357D01*
X40805Y865450D01*
X41163Y865536D01*
X41524Y865612D01*
X41886Y865679D01*
X42249Y865738D01*
X42614Y865787D01*
X42980Y865828D01*
X43347Y865859D01*
X43714Y865882D01*
X44082Y865895D01*
X44450Y865900D01*
X44818Y865895D01*
X45186Y865882D01*
X45553Y865859D01*
X45920Y865828D01*
X46286Y865787D01*
X46651Y865738D01*
X47014Y865679D01*
X47376Y865612D01*
X47737Y865536D01*
X48095Y865450D01*
X48451Y865357D01*
X48804Y865254D01*
X49155Y865143D01*
X49503Y865023D01*
X49848Y864895D01*
X50190Y864758D01*
X50529Y864613D01*
X50863Y864460D01*
X51194Y864298D01*
X51521Y864129D01*
X51843Y863951D01*
X52162Y863766D01*
X52475Y863573D01*
X52784Y863372D01*
X53087Y863164D01*
X53385Y862948D01*
X53678Y862725D01*
X53966Y862495D01*
X54248Y862258D01*
X54523Y862014D01*
X54793Y861764D01*
X55057Y861507D01*
X55314Y861243D01*
X55564Y860973D01*
X55808Y860698D01*
X56045Y860416D01*
X56275Y860128D01*
X56498Y859835D01*
X56714Y859537D01*
X56922Y859234D01*
X57123Y858925D01*
X57316Y858612D01*
X57501Y858293D01*
X57679Y857971D01*
X57848Y857644D01*
X58010Y857313D01*
X58163Y856979D01*
X58308Y856640D01*
X58445Y856298D01*
X58573Y855953D01*
X58693Y855605D01*
X58804Y855254D01*
X58907Y854901D01*
X59000Y854545D01*
X59086Y854187D01*
X59162Y853826D01*
X59229Y853464D01*
X59288Y853101D01*
X59337Y852736D01*
X59378Y852370D01*
X59409Y852003D01*
X59432Y851636D01*
X59445Y851268D01*
X59450Y850900D01*
X59445Y850532D01*
X59432Y850164D01*
X59409Y849797D01*
X59378Y849430D01*
X59337Y849064D01*
X59288Y848699D01*
X59229Y848336D01*
X59162Y847974D01*
X59086Y847613D01*
X59000Y847255D01*
X58907Y846899D01*
X58804Y846546D01*
X58693Y846195D01*
X58573Y845847D01*
X58445Y845502D01*
X58308Y845160D01*
X58163Y844821D01*
X58010Y844487D01*
X57848Y844156D01*
X57679Y843829D01*
X57501Y843507D01*
X57316Y843188D01*
X57123Y842875D01*
X56922Y842566D01*
X56714Y842263D01*
X56498Y841965D01*
X56275Y841672D01*
X56045Y841384D01*
X55808Y841102D01*
X55564Y840827D01*
X55314Y840557D01*
X55057Y840293D01*
X54793Y840036D01*
X54523Y839786D01*
X54248Y839542D01*
X53966Y839305D01*
X53678Y839075D01*
X53385Y838852D01*
X53087Y838636D01*
X52784Y838428D01*
X52475Y838227D01*
X52162Y838034D01*
X51843Y837849D01*
X51521Y837671D01*
X51194Y837502D01*
X50863Y837340D01*
X50529Y837187D01*
X50190Y837042D01*
X49848Y836905D01*
X49503Y836777D01*
X49155Y836657D01*
X48804Y836546D01*
X48451Y836443D01*
X48095Y836350D01*
X47737Y836264D01*
X47376Y836188D01*
X47014Y836121D01*
X46651Y836062D01*
X46286Y836013D01*
X45920Y835972D01*
X45553Y835941D01*
X45186Y835918D01*
X44818Y835905D01*
X44450Y835900D01*
X44082Y835905D01*
X43714Y835918D01*
X43347Y835941D01*
X42980Y835972D01*
X42614Y836013D01*
X42249Y836062D01*
X41886Y836121D01*
X41524Y836188D01*
X41163Y836264D01*
X40805Y836350D01*
X40449Y836443D01*
X40096Y836546D01*
X39745Y836657D01*
X39397Y836777D01*
X39052Y836905D01*
X38710Y837042D01*
X38371Y837187D01*
X38037Y837340D01*
X37706Y837502D01*
X37379Y837671D01*
X37057Y837849D01*
X36738Y838034D01*
X36425Y838227D01*
X36116Y838428D01*
X35813Y838636D01*
X35515Y838852D01*
X35222Y839075D01*
X34934Y839305D01*
X34652Y839542D01*
X34377Y839786D01*
X34107Y840036D01*
X33843Y840293D01*
X33586Y840557D01*
X33336Y840827D01*
X33092Y841102D01*
X32855Y841384D01*
X32625Y841672D01*
X32402Y841965D01*
X32186Y842263D01*
X31978Y842566D01*
X31777Y842875D01*
X31584Y843188D01*
X31399Y843507D01*
X31221Y843829D01*
X31052Y844156D01*
X30890Y844487D01*
X30737Y844821D01*
X30592Y845160D01*
X30455Y845502D01*
X30327Y845847D01*
X30207Y846195D01*
X30096Y846546D01*
X29993Y846899D01*
X29900Y847255D01*
X29814Y847613D01*
X29738Y847974D01*
X29671Y848336D01*
X29612Y848699D01*
X29563Y849064D01*
X29522Y849430D01*
X29491Y849797D01*
X29468Y850164D01*
X29455Y850532D01*
X29450Y850900D01*
X1896350Y844550D02*
X1896355Y844918D01*
X1896368Y845286D01*
X1896391Y845653D01*
X1896422Y846020D01*
X1896463Y846386D01*
X1896512Y846751D01*
X1896571Y847114D01*
X1896638Y847476D01*
X1896714Y847837D01*
X1896800Y848195D01*
X1896893Y848551D01*
X1896996Y848904D01*
X1897107Y849255D01*
X1897227Y849603D01*
X1897355Y849948D01*
X1897492Y850290D01*
X1897637Y850629D01*
X1897790Y850963D01*
X1897952Y851294D01*
X1898121Y851621D01*
X1898299Y851943D01*
X1898484Y852262D01*
X1898677Y852575D01*
X1898878Y852884D01*
X1899086Y853187D01*
X1899302Y853485D01*
X1899525Y853778D01*
X1899755Y854066D01*
X1899992Y854348D01*
X1900236Y854623D01*
X1900486Y854893D01*
X1900743Y855157D01*
X1901007Y855414D01*
X1901277Y855664D01*
X1901552Y855908D01*
X1901834Y856145D01*
X1902122Y856375D01*
X1902415Y856598D01*
X1902713Y856814D01*
X1903016Y857022D01*
X1903325Y857223D01*
X1903638Y857416D01*
X1903957Y857601D01*
X1904279Y857779D01*
X1904606Y857948D01*
X1904937Y858110D01*
X1905271Y858263D01*
X1905610Y858408D01*
X1905952Y858545D01*
X1906297Y858673D01*
X1906645Y858793D01*
X1906996Y858904D01*
X1907349Y859007D01*
X1907705Y859100D01*
X1908063Y859186D01*
X1908424Y859262D01*
X1908786Y859329D01*
X1909149Y859388D01*
X1909514Y859437D01*
X1909880Y859478D01*
X1910247Y859509D01*
X1910614Y859532D01*
X1910982Y859545D01*
X1911350Y859550D01*
X1911718Y859545D01*
X1912086Y859532D01*
X1912453Y859509D01*
X1912820Y859478D01*
X1913186Y859437D01*
X1913551Y859388D01*
X1913914Y859329D01*
X1914276Y859262D01*
X1914637Y859186D01*
X1914995Y859100D01*
X1915351Y859007D01*
X1915704Y858904D01*
X1916055Y858793D01*
X1916403Y858673D01*
X1916748Y858545D01*
X1917090Y858408D01*
X1917429Y858263D01*
X1917763Y858110D01*
X1918094Y857948D01*
X1918421Y857779D01*
X1918743Y857601D01*
X1919062Y857416D01*
X1919375Y857223D01*
X1919684Y857022D01*
X1919987Y856814D01*
X1920285Y856598D01*
X1920578Y856375D01*
X1920866Y856145D01*
X1921148Y855908D01*
X1921423Y855664D01*
X1921693Y855414D01*
X1921957Y855157D01*
X1922214Y854893D01*
X1922464Y854623D01*
X1922708Y854348D01*
X1922945Y854066D01*
X1923175Y853778D01*
X1923398Y853485D01*
X1923614Y853187D01*
X1923822Y852884D01*
X1924023Y852575D01*
X1924216Y852262D01*
X1924401Y851943D01*
X1924579Y851621D01*
X1924748Y851294D01*
X1924910Y850963D01*
X1925063Y850629D01*
X1925208Y850290D01*
X1925345Y849948D01*
X1925473Y849603D01*
X1925593Y849255D01*
X1925704Y848904D01*
X1925807Y848551D01*
X1925900Y848195D01*
X1925986Y847837D01*
X1926062Y847476D01*
X1926129Y847114D01*
X1926188Y846751D01*
X1926237Y846386D01*
X1926278Y846020D01*
X1926309Y845653D01*
X1926332Y845286D01*
X1926345Y844918D01*
X1926350Y844550D01*
X1926345Y844182D01*
X1926332Y843814D01*
X1926309Y843447D01*
X1926278Y843080D01*
X1926237Y842714D01*
X1926188Y842349D01*
X1926129Y841986D01*
X1926062Y841624D01*
X1925986Y841263D01*
X1925900Y840905D01*
X1925807Y840549D01*
X1925704Y840196D01*
X1925593Y839845D01*
X1925473Y839497D01*
X1925345Y839152D01*
X1925208Y838810D01*
X1925063Y838471D01*
X1924910Y838137D01*
X1924748Y837806D01*
X1924579Y837479D01*
X1924401Y837157D01*
X1924216Y836838D01*
X1924023Y836525D01*
X1923822Y836216D01*
X1923614Y835913D01*
X1923398Y835615D01*
X1923175Y835322D01*
X1922945Y835034D01*
X1922708Y834752D01*
X1922464Y834477D01*
X1922214Y834207D01*
X1921957Y833943D01*
X1921693Y833686D01*
X1921423Y833436D01*
X1921148Y833192D01*
X1920866Y832955D01*
X1920578Y832725D01*
X1920285Y832502D01*
X1919987Y832286D01*
X1919684Y832078D01*
X1919375Y831877D01*
X1919062Y831684D01*
X1918743Y831499D01*
X1918421Y831321D01*
X1918094Y831152D01*
X1917763Y830990D01*
X1917429Y830837D01*
X1917090Y830692D01*
X1916748Y830555D01*
X1916403Y830427D01*
X1916055Y830307D01*
X1915704Y830196D01*
X1915351Y830093D01*
X1914995Y830000D01*
X1914637Y829914D01*
X1914276Y829838D01*
X1913914Y829771D01*
X1913551Y829712D01*
X1913186Y829663D01*
X1912820Y829622D01*
X1912453Y829591D01*
X1912086Y829568D01*
X1911718Y829555D01*
X1911350Y829550D01*
X1910982Y829555D01*
X1910614Y829568D01*
X1910247Y829591D01*
X1909880Y829622D01*
X1909514Y829663D01*
X1909149Y829712D01*
X1908786Y829771D01*
X1908424Y829838D01*
X1908063Y829914D01*
X1907705Y830000D01*
X1907349Y830093D01*
X1906996Y830196D01*
X1906645Y830307D01*
X1906297Y830427D01*
X1905952Y830555D01*
X1905610Y830692D01*
X1905271Y830837D01*
X1904937Y830990D01*
X1904606Y831152D01*
X1904279Y831321D01*
X1903957Y831499D01*
X1903638Y831684D01*
X1903325Y831877D01*
X1903016Y832078D01*
X1902713Y832286D01*
X1902415Y832502D01*
X1902122Y832725D01*
X1901834Y832955D01*
X1901552Y833192D01*
X1901277Y833436D01*
X1901007Y833686D01*
X1900743Y833943D01*
X1900486Y834207D01*
X1900236Y834477D01*
X1899992Y834752D01*
X1899755Y835034D01*
X1899525Y835322D01*
X1899302Y835615D01*
X1899086Y835913D01*
X1898878Y836216D01*
X1898677Y836525D01*
X1898484Y836838D01*
X1898299Y837157D01*
X1898121Y837479D01*
X1897952Y837806D01*
X1897790Y838137D01*
X1897637Y838471D01*
X1897492Y838810D01*
X1897355Y839152D01*
X1897227Y839497D01*
X1897107Y839845D01*
X1896996Y840196D01*
X1896893Y840549D01*
X1896800Y840905D01*
X1896714Y841263D01*
X1896638Y841624D01*
X1896571Y841986D01*
X1896512Y842349D01*
X1896463Y842714D01*
X1896422Y843080D01*
X1896391Y843447D01*
X1896368Y843814D01*
X1896355Y844182D01*
X1896350Y844550D01*
X1902700Y44450D02*
X1902705Y44818D01*
X1902718Y45186D01*
X1902741Y45553D01*
X1902772Y45920D01*
X1902813Y46286D01*
X1902862Y46651D01*
X1902921Y47014D01*
X1902988Y47376D01*
X1903064Y47737D01*
X1903150Y48095D01*
X1903243Y48451D01*
X1903346Y48804D01*
X1903457Y49155D01*
X1903577Y49503D01*
X1903705Y49848D01*
X1903842Y50190D01*
X1903987Y50529D01*
X1904140Y50863D01*
X1904302Y51194D01*
X1904471Y51521D01*
X1904649Y51843D01*
X1904834Y52162D01*
X1905027Y52475D01*
X1905228Y52784D01*
X1905436Y53087D01*
X1905652Y53385D01*
X1905875Y53678D01*
X1906105Y53966D01*
X1906342Y54248D01*
X1906586Y54523D01*
X1906836Y54793D01*
X1907093Y55057D01*
X1907357Y55314D01*
X1907627Y55564D01*
X1907902Y55808D01*
X1908184Y56045D01*
X1908472Y56275D01*
X1908765Y56498D01*
X1909063Y56714D01*
X1909366Y56922D01*
X1909675Y57123D01*
X1909988Y57316D01*
X1910307Y57501D01*
X1910629Y57679D01*
X1910956Y57848D01*
X1911287Y58010D01*
X1911621Y58163D01*
X1911960Y58308D01*
X1912302Y58445D01*
X1912647Y58573D01*
X1912995Y58693D01*
X1913346Y58804D01*
X1913699Y58907D01*
X1914055Y59000D01*
X1914413Y59086D01*
X1914774Y59162D01*
X1915136Y59229D01*
X1915499Y59288D01*
X1915864Y59337D01*
X1916230Y59378D01*
X1916597Y59409D01*
X1916964Y59432D01*
X1917332Y59445D01*
X1917700Y59450D01*
X1918068Y59445D01*
X1918436Y59432D01*
X1918803Y59409D01*
X1919170Y59378D01*
X1919536Y59337D01*
X1919901Y59288D01*
X1920264Y59229D01*
X1920626Y59162D01*
X1920987Y59086D01*
X1921345Y59000D01*
X1921701Y58907D01*
X1922054Y58804D01*
X1922405Y58693D01*
X1922753Y58573D01*
X1923098Y58445D01*
X1923440Y58308D01*
X1923779Y58163D01*
X1924113Y58010D01*
X1924444Y57848D01*
X1924771Y57679D01*
X1925093Y57501D01*
X1925412Y57316D01*
X1925725Y57123D01*
X1926034Y56922D01*
X1926337Y56714D01*
X1926635Y56498D01*
X1926928Y56275D01*
X1927216Y56045D01*
X1927498Y55808D01*
X1927773Y55564D01*
X1928043Y55314D01*
X1928307Y55057D01*
X1928564Y54793D01*
X1928814Y54523D01*
X1929058Y54248D01*
X1929295Y53966D01*
X1929525Y53678D01*
X1929748Y53385D01*
X1929964Y53087D01*
X1930172Y52784D01*
X1930373Y52475D01*
X1930566Y52162D01*
X1930751Y51843D01*
X1930929Y51521D01*
X1931098Y51194D01*
X1931260Y50863D01*
X1931413Y50529D01*
X1931558Y50190D01*
X1931695Y49848D01*
X1931823Y49503D01*
X1931943Y49155D01*
X1932054Y48804D01*
X1932157Y48451D01*
X1932250Y48095D01*
X1932336Y47737D01*
X1932412Y47376D01*
X1932479Y47014D01*
X1932538Y46651D01*
X1932587Y46286D01*
X1932628Y45920D01*
X1932659Y45553D01*
X1932682Y45186D01*
X1932695Y44818D01*
X1932700Y44450D01*
X1932695Y44082D01*
X1932682Y43714D01*
X1932659Y43347D01*
X1932628Y42980D01*
X1932587Y42614D01*
X1932538Y42249D01*
X1932479Y41886D01*
X1932412Y41524D01*
X1932336Y41163D01*
X1932250Y40805D01*
X1932157Y40449D01*
X1932054Y40096D01*
X1931943Y39745D01*
X1931823Y39397D01*
X1931695Y39052D01*
X1931558Y38710D01*
X1931413Y38371D01*
X1931260Y38037D01*
X1931098Y37706D01*
X1930929Y37379D01*
X1930751Y37057D01*
X1930566Y36738D01*
X1930373Y36425D01*
X1930172Y36116D01*
X1929964Y35813D01*
X1929748Y35515D01*
X1929525Y35222D01*
X1929295Y34934D01*
X1929058Y34652D01*
X1928814Y34377D01*
X1928564Y34107D01*
X1928307Y33843D01*
X1928043Y33586D01*
X1927773Y33336D01*
X1927498Y33092D01*
X1927216Y32855D01*
X1926928Y32625D01*
X1926635Y32402D01*
X1926337Y32186D01*
X1926034Y31978D01*
X1925725Y31777D01*
X1925412Y31584D01*
X1925093Y31399D01*
X1924771Y31221D01*
X1924444Y31052D01*
X1924113Y30890D01*
X1923779Y30737D01*
X1923440Y30592D01*
X1923098Y30455D01*
X1922753Y30327D01*
X1922405Y30207D01*
X1922054Y30096D01*
X1921701Y29993D01*
X1921345Y29900D01*
X1920987Y29814D01*
X1920626Y29738D01*
X1920264Y29671D01*
X1919901Y29612D01*
X1919536Y29563D01*
X1919170Y29522D01*
X1918803Y29491D01*
X1918436Y29468D01*
X1918068Y29455D01*
X1917700Y29450D01*
X1917332Y29455D01*
X1916964Y29468D01*
X1916597Y29491D01*
X1916230Y29522D01*
X1915864Y29563D01*
X1915499Y29612D01*
X1915136Y29671D01*
X1914774Y29738D01*
X1914413Y29814D01*
X1914055Y29900D01*
X1913699Y29993D01*
X1913346Y30096D01*
X1912995Y30207D01*
X1912647Y30327D01*
X1912302Y30455D01*
X1911960Y30592D01*
X1911621Y30737D01*
X1911287Y30890D01*
X1910956Y31052D01*
X1910629Y31221D01*
X1910307Y31399D01*
X1909988Y31584D01*
X1909675Y31777D01*
X1909366Y31978D01*
X1909063Y32186D01*
X1908765Y32402D01*
X1908472Y32625D01*
X1908184Y32855D01*
X1907902Y33092D01*
X1907627Y33336D01*
X1907357Y33586D01*
X1907093Y33843D01*
X1906836Y34107D01*
X1906586Y34377D01*
X1906342Y34652D01*
X1906105Y34934D01*
X1905875Y35222D01*
X1905652Y35515D01*
X1905436Y35813D01*
X1905228Y36116D01*
X1905027Y36425D01*
X1904834Y36738D01*
X1904649Y37057D01*
X1904471Y37379D01*
X1904302Y37706D01*
X1904140Y38037D01*
X1903987Y38371D01*
X1903842Y38710D01*
X1903705Y39052D01*
X1903577Y39397D01*
X1903457Y39745D01*
X1903346Y40096D01*
X1903243Y40449D01*
X1903150Y40805D01*
X1903064Y41163D01*
X1902988Y41524D01*
X1902921Y41886D01*
X1902862Y42249D01*
X1902813Y42614D01*
X1902772Y42980D01*
X1902741Y43347D01*
X1902718Y43714D01*
X1902705Y44082D01*
X1902700Y44450D01*
D11*
X200Y47750D02*
X393Y43323D01*
X972Y38929D01*
X1931Y34602D01*
X3264Y30375D01*
X4960Y26281D01*
X7006Y22350D01*
X9387Y18612D01*
X12085Y15096D01*
X15079Y11829D01*
X18346Y8835D01*
X21862Y6137D01*
X25600Y3756D01*
X29531Y1710D01*
X33625Y14D01*
X37852Y-1319D01*
X42179Y-2278D01*
X46573Y-2857D01*
X51000Y-3050D01*
X1911350Y-3050D01*
X1915778Y-2857D01*
X1920171Y-2278D01*
X1924498Y-1319D01*
X1928725Y14D01*
X1932819Y1710D01*
X1936750Y3756D01*
X1940488Y6137D01*
X1944004Y8835D01*
X1947271Y11829D01*
X1950265Y15096D01*
X1952963Y18612D01*
X1955344Y22350D01*
X1957390Y26281D01*
X1959086Y30375D01*
X1960419Y34602D01*
X1961378Y38929D01*
X1961957Y43323D01*
X1962150Y47750D01*
X1962150Y844550D01*
X1961957Y848978D01*
X1961378Y853371D01*
X1960419Y857698D01*
X1959086Y861925D01*
X1957390Y866019D01*
X1955344Y869950D01*
X1952963Y873688D01*
X1950265Y877204D01*
X1947271Y880471D01*
X1944004Y883465D01*
X1940488Y886163D01*
X1936750Y888544D01*
X1932819Y890590D01*
X1928725Y892286D01*
X1924498Y893619D01*
X1920171Y894578D01*
X1915778Y895157D01*
X1911350Y895350D01*
X51000Y895350D01*
X46573Y895157D01*
X42179Y894578D01*
X37852Y893619D01*
X33625Y892286D01*
X29531Y890590D01*
X25600Y888544D01*
X21862Y886163D01*
X18346Y883465D01*
X15079Y880471D01*
X12085Y877204D01*
X9387Y873688D01*
X7006Y869950D01*
X4960Y866019D01*
X3264Y861925D01*
X1931Y857698D01*
X972Y853371D01*
X393Y848978D01*
X200Y844550D01*
X200Y47750D01*
X29450Y38636D02*
X29526Y39704D01*
X29679Y40765D01*
X29907Y41812D01*
X30209Y42840D01*
X30583Y43844D01*
X31028Y44819D01*
X31542Y45759D01*
X32121Y46660D01*
X32763Y47518D01*
X33465Y48328D01*
X34222Y49085D01*
X35032Y49787D01*
X35890Y50429D01*
X36791Y51008D01*
X37731Y51522D01*
X38706Y51967D01*
X39710Y52341D01*
X40738Y52643D01*
X41785Y52871D01*
X42846Y53024D01*
X43914Y53100D01*
X44986Y53100D01*
X46054Y53024D01*
X47115Y52871D01*
X48162Y52643D01*
X49190Y52341D01*
X50194Y51967D01*
X51169Y51522D01*
X52109Y51008D01*
X53010Y50429D01*
X53868Y49787D01*
X54678Y49085D01*
X55435Y48328D01*
X56137Y47518D01*
X56779Y46660D01*
X57358Y45759D01*
X57872Y44819D01*
X58317Y43844D01*
X58691Y42840D01*
X58993Y41812D01*
X59221Y40765D01*
X59374Y39704D01*
X59450Y38636D01*
X59450Y37564D01*
X59374Y36496D01*
X59221Y35435D01*
X58993Y34388D01*
X58691Y33360D01*
X58317Y32356D01*
X57872Y31381D01*
X57358Y30441D01*
X56779Y29540D01*
X56137Y28682D01*
X55435Y27872D01*
X54678Y27115D01*
X53868Y26413D01*
X53010Y25771D01*
X52109Y25192D01*
X51169Y24678D01*
X50194Y24233D01*
X49190Y23859D01*
X48162Y23557D01*
X47115Y23329D01*
X46054Y23176D01*
X44986Y23100D01*
X43914Y23100D01*
X42846Y23176D01*
X41785Y23329D01*
X40738Y23557D01*
X39710Y23859D01*
X38706Y24233D01*
X37731Y24678D01*
X36791Y25192D01*
X35890Y25771D01*
X35032Y26413D01*
X34222Y27115D01*
X33465Y27872D01*
X32763Y28682D01*
X32121Y29540D01*
X31542Y30441D01*
X31028Y31381D01*
X30583Y32356D01*
X30209Y33360D01*
X29907Y34388D01*
X29679Y35435D01*
X29526Y36496D01*
X29450Y37564D01*
X29450Y38636D01*
X29450Y851436D02*
X29526Y852504D01*
X29679Y853565D01*
X29907Y854612D01*
X30209Y855640D01*
X30583Y856644D01*
X31028Y857619D01*
X31542Y858559D01*
X32121Y859460D01*
X32763Y860318D01*
X33465Y861128D01*
X34222Y861885D01*
X35032Y862587D01*
X35890Y863229D01*
X36791Y863808D01*
X37731Y864322D01*
X38706Y864767D01*
X39710Y865141D01*
X40738Y865443D01*
X41785Y865671D01*
X42846Y865824D01*
X43914Y865900D01*
X44986Y865900D01*
X46054Y865824D01*
X47115Y865671D01*
X48162Y865443D01*
X49190Y865141D01*
X50194Y864767D01*
X51169Y864322D01*
X52109Y863808D01*
X53010Y863229D01*
X53868Y862587D01*
X54678Y861885D01*
X55435Y861128D01*
X56137Y860318D01*
X56779Y859460D01*
X57358Y858559D01*
X57872Y857619D01*
X58317Y856644D01*
X58691Y855640D01*
X58993Y854612D01*
X59221Y853565D01*
X59374Y852504D01*
X59450Y851436D01*
X59450Y850364D01*
X59374Y849296D01*
X59221Y848235D01*
X58993Y847188D01*
X58691Y846160D01*
X58317Y845156D01*
X57872Y844181D01*
X57358Y843241D01*
X56779Y842340D01*
X56137Y841482D01*
X55435Y840672D01*
X54678Y839915D01*
X53868Y839213D01*
X53010Y838571D01*
X52109Y837992D01*
X51169Y837478D01*
X50194Y837033D01*
X49190Y836659D01*
X48162Y836357D01*
X47115Y836129D01*
X46054Y835976D01*
X44986Y835900D01*
X43914Y835900D01*
X42846Y835976D01*
X41785Y836129D01*
X40738Y836357D01*
X39710Y836659D01*
X38706Y837033D01*
X37731Y837478D01*
X36791Y837992D01*
X35890Y838571D01*
X35032Y839213D01*
X34222Y839915D01*
X33465Y840672D01*
X32763Y841482D01*
X32121Y842340D01*
X31542Y843241D01*
X31028Y844181D01*
X30583Y845156D01*
X30209Y846160D01*
X29907Y847188D01*
X29679Y848235D01*
X29526Y849296D01*
X29450Y850364D01*
X29450Y851436D01*
X1896350Y845086D02*
X1896426Y846154D01*
X1896579Y847215D01*
X1896807Y848262D01*
X1897109Y849290D01*
X1897483Y850294D01*
X1897928Y851269D01*
X1898442Y852209D01*
X1899021Y853110D01*
X1899663Y853968D01*
X1900365Y854778D01*
X1901122Y855535D01*
X1901932Y856237D01*
X1902790Y856879D01*
X1903691Y857458D01*
X1904631Y857972D01*
X1905606Y858417D01*
X1906610Y858791D01*
X1907638Y859093D01*
X1908685Y859321D01*
X1909746Y859474D01*
X1910814Y859550D01*
X1911886Y859550D01*
X1912954Y859474D01*
X1914015Y859321D01*
X1915062Y859093D01*
X1916090Y858791D01*
X1917094Y858417D01*
X1918069Y857972D01*
X1919009Y857458D01*
X1919910Y856879D01*
X1920768Y856237D01*
X1921578Y855535D01*
X1922335Y854778D01*
X1923037Y853968D01*
X1923679Y853110D01*
X1924258Y852209D01*
X1924772Y851269D01*
X1925217Y850294D01*
X1925591Y849290D01*
X1925893Y848262D01*
X1926121Y847215D01*
X1926274Y846154D01*
X1926350Y845086D01*
X1926350Y844014D01*
X1926274Y842946D01*
X1926121Y841885D01*
X1925893Y840838D01*
X1925591Y839810D01*
X1925217Y838806D01*
X1924772Y837831D01*
X1924258Y836891D01*
X1923679Y835990D01*
X1923037Y835132D01*
X1922335Y834322D01*
X1921578Y833565D01*
X1920768Y832863D01*
X1919910Y832221D01*
X1919009Y831642D01*
X1918069Y831128D01*
X1917094Y830683D01*
X1916090Y830309D01*
X1915062Y830007D01*
X1914015Y829779D01*
X1912954Y829626D01*
X1911886Y829550D01*
X1910814Y829550D01*
X1909746Y829626D01*
X1908685Y829779D01*
X1907638Y830007D01*
X1906610Y830309D01*
X1905606Y830683D01*
X1904631Y831128D01*
X1903691Y831642D01*
X1902790Y832221D01*
X1901932Y832863D01*
X1901122Y833565D01*
X1900365Y834322D01*
X1899663Y835132D01*
X1899021Y835990D01*
X1898442Y836891D01*
X1897928Y837831D01*
X1897483Y838806D01*
X1897109Y839810D01*
X1896807Y840838D01*
X1896579Y841885D01*
X1896426Y842946D01*
X1896350Y844014D01*
X1896350Y845086D01*
X1932700Y43914D02*
X1932624Y42846D01*
X1932471Y41785D01*
X1932243Y40738D01*
X1931941Y39710D01*
X1931567Y38706D01*
X1931122Y37731D01*
X1930608Y36791D01*
X1930029Y35890D01*
X1929387Y35032D01*
X1928685Y34222D01*
X1927928Y33465D01*
X1927118Y32763D01*
X1926260Y32121D01*
X1925359Y31542D01*
X1924419Y31028D01*
X1923444Y30583D01*
X1922440Y30209D01*
X1921412Y29907D01*
X1920365Y29679D01*
X1919304Y29526D01*
X1918236Y29450D01*
X1917164Y29450D01*
X1916096Y29526D01*
X1915035Y29679D01*
X1913988Y29907D01*
X1912960Y30209D01*
X1911956Y30583D01*
X1910981Y31028D01*
X1910041Y31542D01*
X1909140Y32121D01*
X1908282Y32763D01*
X1907472Y33465D01*
X1906715Y34222D01*
X1906013Y35032D01*
X1905371Y35890D01*
X1904792Y36791D01*
X1904278Y37731D01*
X1903833Y38706D01*
X1903459Y39710D01*
X1903157Y40738D01*
X1902929Y41785D01*
X1902776Y42846D01*
X1902700Y43914D01*
X1902700Y44986D01*
X1902776Y46054D01*
X1902929Y47115D01*
X1903157Y48162D01*
X1903459Y49190D01*
X1903833Y50194D01*
X1904278Y51169D01*
X1904792Y52109D01*
X1905371Y53010D01*
X1906013Y53868D01*
X1906715Y54678D01*
X1907472Y55435D01*
X1908282Y56137D01*
X1909140Y56779D01*
X1910041Y57358D01*
X1910981Y57872D01*
X1911956Y58317D01*
X1912960Y58691D01*
X1913988Y58993D01*
X1915035Y59221D01*
X1916096Y59374D01*
X1917164Y59450D01*
X1918236Y59450D01*
X1919304Y59374D01*
X1920365Y59221D01*
X1921412Y58993D01*
X1922440Y58691D01*
X1923444Y58317D01*
X1924419Y57872D01*
X1925359Y57358D01*
X1926260Y56779D01*
X1927118Y56137D01*
X1927928Y55435D01*
X1928685Y54678D01*
X1929387Y53868D01*
X1930029Y53010D01*
X1930608Y52109D01*
X1931122Y51169D01*
X1931567Y50194D01*
X1931941Y49190D01*
X1932243Y48162D01*
X1932471Y47115D01*
X1932624Y46054D01*
X1932700Y44986D01*
X1932700Y43914D01*
M02*
