M48
;GenerationSoftware,Autodesk,EAGLE,9.4.2*%
;CreationDate,2019-07-31T11:43:56Z*%
FMAT,2
ICI,OFF
METRIC,TZ,000.000
T12C0.305
T11C0.610
T10C0.750
T9C0.800
T8C0.813
T7C1.000
T6C1.016
T5C1.194
T4C1.500
T3C1.702
T2C3.000
T1C3.302
%
G90
M71
T1
X63424Y76835
X124536Y76835
T2
X191135Y84455
X4445Y85090
X4445Y3810
X191770Y4445
T3
X55880Y73660
X55880Y69850
T4
X50927Y70104
X11303Y70104
X11303Y87376
X50927Y87376
X13335Y9525
X13335Y14605
X13335Y19685
X13335Y24765
X13335Y43815
X13335Y48895
X13335Y53975
X13335Y59055
X54610Y9525
X54610Y14605
X54610Y24765
X54610Y43815
X54610Y48895
X54610Y53975
X54610Y59055
X96520Y9525
X96520Y14605
X96520Y19685
X96520Y24765
X96520Y59055
X54610Y19685
X96520Y43815
X96520Y48895
X96520Y53975
T5
X3810Y31155
X3810Y36155
X3810Y71795
X3810Y64730
X3810Y76795
X3810Y59730
T6
X89840Y76835
X53340Y18415
X53340Y20955
X53340Y23495
X53340Y26035
X88900Y8255
X88900Y10795
X88900Y13335
X88900Y15875
X88900Y18415
X88900Y20955
X88900Y23495
X88900Y26035
X88900Y28575
X88900Y31115
X12065Y42545
X12065Y45085
X12065Y47625
X12065Y50165
X12065Y52705
X12065Y55245
X12065Y57785
X12065Y60325
X47625Y42545
X47625Y45085
X47625Y47625
X47625Y50165
X47625Y52705
X47625Y55245
X47625Y57785
X47625Y60325
X47625Y62865
X47625Y65405
X12065Y8255
X12065Y10795
X12065Y13335
X12065Y15875
X12065Y18415
X12065Y20955
X12065Y23495
X12065Y26035
X47625Y8255
X47625Y10795
X47625Y13335
X47625Y15875
X47625Y18415
X47625Y20955
X47625Y23495
X47625Y26035
X47625Y28575
X47625Y31115
X179705Y8255
X3175Y51435
X3175Y46355
X116053Y79680
X113309Y79680
X110541Y79680
X107772Y79680
X105029Y79680
X102260Y79680
X99492Y79680
X96749Y79680
X93980Y79680
X91211Y79680
X88468Y79680
X85700Y79680
X114681Y76835
X111912Y76835
X109169Y76835
X106401Y76835
X103632Y76835
X100889Y76835
X98120Y76835
X95352Y76835
X92608Y76835
X87071Y76835
X82931Y79680
X80188Y79680
X77419Y79680
X74651Y79680
X84328Y76835
X81559Y76835
X78791Y76835
X76048Y76835
X71907Y79680
X73279Y76835
X116053Y73990
X113309Y73990
X110541Y73990
X107772Y73990
X105029Y73990
X102260Y73990
X99492Y73990
X96749Y73990
X93980Y73990
X91211Y73990
X88468Y73990
X85700Y73990
X82931Y73990
X80188Y73990
X77419Y73990
X74651Y73990
X71907Y73990
X184785Y71755
X184785Y69215
X184785Y66675
X184785Y64135
X184785Y61595
X184785Y59055
X184785Y53975
X184785Y51435
X184785Y48895
X184785Y46355
X184785Y43815
X184785Y41275
X184785Y38735
X184785Y36195
X184785Y31115
X184785Y28575
X184785Y26035
X184785Y23495
X184785Y20955
X184785Y18415
X184785Y15875
X184785Y13335
X136525Y18415
X136525Y20955
X136525Y23495
X136525Y26035
X136525Y28575
X136525Y31115
X136525Y33655
X136525Y36195
X136525Y41275
X136525Y43815
X136525Y46355
X136525Y48895
X136525Y51435
X136525Y53975
X136525Y56515
X136525Y59055
X136525Y62865
X136525Y65405
X136525Y67945
X136525Y70485
X136525Y73025
X136525Y75565
X136525Y78105
X136525Y80645
X136525Y10795
X136525Y8255
X139065Y10795
X139065Y8255
X141605Y10795
X141605Y8255
X144145Y10795
X144145Y8255
X146685Y10795
X146685Y8255
X149225Y10795
X149225Y8255
X151765Y10795
X151765Y8255
X154305Y10795
X154305Y8255
X156845Y10795
X156845Y8255
X159385Y10795
X159385Y8255
X161925Y10795
X161925Y8255
X164465Y10795
X164465Y8255
X167005Y10795
X167005Y8255
X169545Y10795
X169545Y8255
X172085Y10795
X172085Y8255
X174625Y10795
X174625Y8255
X177165Y10795
X177165Y8255
X179705Y10795
X95250Y26035
X136525Y83185
X136525Y85725
X184785Y76835
X184785Y74295
X191135Y78740
X193675Y78740
X95250Y42545
X95250Y45085
X95250Y47625
X95250Y50165
X95250Y52705
X95250Y55245
X95250Y57785
X95250Y60325
X130810Y42545
X130810Y45085
X130810Y47625
X130810Y50165
X130810Y52705
X130810Y55245
X130810Y57785
X130810Y60325
X130810Y62865
X130810Y65405
X95250Y8255
X95250Y10795
X95250Y13335
X95250Y15875
X95250Y18415
X95250Y20955
X95250Y23495
X130810Y8255
X130810Y10795
X130810Y13335
X130810Y15875
X130810Y18415
X130810Y20955
X130810Y23495
X130810Y26035
X130810Y28575
X130810Y31115
X53340Y42545
X53340Y45085
X53340Y47625
X53340Y50165
X53340Y52705
X53340Y55245
X53340Y57785
X53340Y60325
X88900Y42545
X88900Y45085
X88900Y47625
X88900Y50165
X88900Y52705
X88900Y55245
X88900Y57785
X88900Y60325
X88900Y62865
X88900Y65405
X53340Y8255
X53340Y10795
X53340Y13335
X53340Y15875
T7
X190500Y33020
X193040Y33020
X190500Y30480
X193040Y30480
X190500Y27940
X193040Y27940
X190500Y25400
X193040Y25400
X190500Y22860
X193040Y22860
X193040Y12700
X190500Y45720
X193040Y48260
X190500Y48260
X193040Y50800
X190500Y50800
X193040Y53340
X190500Y53340
X193040Y55880
X190500Y55880
X193040Y38100
X193040Y58420
X190500Y12700
X190500Y20320
X193040Y20320
X190500Y17780
X190500Y58420
X193040Y60960
X190500Y60960
X193040Y17780
X190500Y15240
X193040Y15240
X193040Y45720
X190500Y43180
X193040Y43180
X190500Y40640
X193040Y40640
X190500Y38100
X190500Y35560
X193040Y35560
T8
X156845Y34290
X159385Y34290
X161925Y34290
X164465Y34290
X167005Y34290
X108585Y62865
X172085Y34290
X111125Y67945
X111125Y62865
X106045Y67945
X106045Y62865
X108585Y67945
X103505Y67945
X103505Y62865
X100965Y67945
X100965Y62865
X98425Y67945
X55880Y81915
X55880Y84455
X46355Y84455
X46355Y76835
X132715Y83185
X130175Y83185
X172085Y22860
X169545Y22860
X167005Y22860
X164465Y22860
X161925Y22860
X159385Y22860
X156845Y22860
X154305Y22860
X98425Y62865
X169545Y34290
X184150Y83820
X184150Y81280
X154305Y34290
T9
X21590Y72390
X21590Y74930
X21590Y85090
X21590Y82550
X40640Y72390
X40640Y74930
X40640Y85090
X40640Y82550
T10
X88900Y69215
X82550Y68421
T11
X191770Y74295
X131445Y74295
X131445Y76835
X131445Y79375
X191770Y69215
X191770Y71755
T12
X146050Y70485
X181292Y23177
X114300Y29051
X147479Y69850
X181927Y25400
X121444Y70009
X127508Y64389
X109537Y30480
X141764Y73660
X142716Y79502
X138748Y81756
X108426Y26511
X110966Y5874
X103505Y21590
X103505Y50165
X61595Y21590
X164306Y26797
X161766Y9525
X179864Y25400
X172720Y25400
X168434Y29210
X86360Y30480
X140494Y38100
X90646Y39053
X140176Y62071
X140018Y39688
X59849Y41434
X98742Y47149
X176212Y17304
X174942Y4604
X128270Y42228
X109220Y23177
X133509Y18256
X160973Y32544
X160338Y36195
X166370Y7144
X160655Y22066
X164783Y6509
X159544Y25717
X91757Y36195
X167799Y25241
X160973Y24606
X134620Y19526
X111760Y57785
X67882Y39878
X94139Y40005
X76041Y67151
X76994Y22542
X77946Y40958
X20955Y41434
X112395Y30480
X140811Y51911
X139065Y40958
X133509Y44609
X103187Y33338
X61277Y33020
X61595Y50165
X162084Y26797
X69850Y16669
X170180Y31750
X49054Y39529
X142716Y5239
X141446Y12541
X186849Y29845
X170498Y9208
X133985Y70009
X159703Y37624
X73343Y45879
X122237Y36989
X161131Y30480
X46990Y36036
M30