G04 EAGLE Gerber RS-274X export*
G75*
%MOMM*%
%FSLAX34Y34*%
%LPD*%
%INBottom Copper*%
%IPPOS*%
%AMOC8*
5,1,8,0,0,1.08239X$1,22.5*%
G01*
%ADD10C,0.000000*%
%ADD11C,2.540000*%
%ADD12P,2.749271X8X292.500000*%
%ADD13P,1.429621X8X112.500000*%
%ADD14P,1.649562X8X202.500000*%
%ADD15C,5.080000*%
%ADD16C,1.790700*%
%ADD17C,1.524000*%
%ADD18P,1.649562X8X22.500000*%
%ADD19R,1.778000X1.778000*%
%ADD20C,1.778000*%
%ADD21R,0.304800X0.990600*%
%ADD22C,1.117600*%
%ADD23P,1.429621X8X292.500000*%
%ADD24C,1.320800*%
%ADD25C,2.552700*%
%ADD26P,1.924489X8X22.500000*%
%ADD27R,2.500000X2.500000*%
%ADD28C,2.250000*%
%ADD29P,1.429621X8X202.500000*%
%ADD30C,1.778000*%
%ADD31C,0.609600*%
%ADD32C,0.406400*%
%ADD33C,0.203200*%
%ADD34C,0.635000*%
%ADD35C,1.125000*%
%ADD36C,0.152400*%


D10*
X51000Y-3050D02*
X1911350Y-3050D01*
X1912578Y-3035D01*
X1913804Y-2991D01*
X1915030Y-2917D01*
X1916253Y-2813D01*
X1917473Y-2680D01*
X1918690Y-2517D01*
X1919903Y-2325D01*
X1921110Y-2104D01*
X1922312Y-1853D01*
X1923507Y-1574D01*
X1924696Y-1266D01*
X1925876Y-929D01*
X1927048Y-564D01*
X1928211Y-170D01*
X1929364Y251D01*
X1930506Y700D01*
X1931638Y1177D01*
X1932757Y1681D01*
X1933864Y2212D01*
X1934958Y2769D01*
X1936038Y3352D01*
X1937104Y3962D01*
X1938154Y4597D01*
X1939189Y5257D01*
X1940208Y5942D01*
X1941209Y6652D01*
X1942194Y7385D01*
X1943160Y8143D01*
X1944108Y8923D01*
X1945037Y9726D01*
X1945946Y10551D01*
X1946834Y11398D01*
X1947702Y12266D01*
X1948549Y13154D01*
X1949374Y14063D01*
X1950177Y14992D01*
X1950957Y15940D01*
X1951715Y16906D01*
X1952448Y17891D01*
X1953158Y18892D01*
X1953843Y19911D01*
X1954503Y20946D01*
X1955138Y21996D01*
X1955748Y23062D01*
X1956331Y24142D01*
X1956888Y25236D01*
X1957419Y26343D01*
X1957923Y27462D01*
X1958400Y28594D01*
X1958849Y29736D01*
X1959270Y30889D01*
X1959664Y32052D01*
X1960029Y33224D01*
X1960366Y34404D01*
X1960674Y35593D01*
X1960953Y36788D01*
X1961204Y37990D01*
X1961425Y39197D01*
X1961617Y40410D01*
X1961780Y41627D01*
X1961913Y42847D01*
X1962017Y44070D01*
X1962091Y45296D01*
X1962135Y46522D01*
X1962150Y47750D01*
X1962150Y844550D01*
X1962135Y845778D01*
X1962091Y847004D01*
X1962017Y848230D01*
X1961913Y849453D01*
X1961780Y850673D01*
X1961617Y851890D01*
X1961425Y853103D01*
X1961204Y854310D01*
X1960953Y855512D01*
X1960674Y856707D01*
X1960366Y857896D01*
X1960029Y859076D01*
X1959664Y860248D01*
X1959270Y861411D01*
X1958849Y862564D01*
X1958400Y863706D01*
X1957923Y864838D01*
X1957419Y865957D01*
X1956888Y867064D01*
X1956331Y868158D01*
X1955748Y869238D01*
X1955138Y870304D01*
X1954503Y871354D01*
X1953843Y872389D01*
X1953158Y873408D01*
X1952448Y874409D01*
X1951715Y875394D01*
X1950957Y876360D01*
X1950177Y877308D01*
X1949374Y878237D01*
X1948549Y879146D01*
X1947702Y880034D01*
X1946834Y880902D01*
X1945946Y881749D01*
X1945037Y882574D01*
X1944108Y883377D01*
X1943160Y884157D01*
X1942194Y884915D01*
X1941209Y885648D01*
X1940208Y886358D01*
X1939189Y887043D01*
X1938154Y887703D01*
X1937104Y888338D01*
X1936038Y888948D01*
X1934958Y889531D01*
X1933864Y890088D01*
X1932757Y890619D01*
X1931638Y891123D01*
X1930506Y891600D01*
X1929364Y892049D01*
X1928211Y892470D01*
X1927048Y892864D01*
X1925876Y893229D01*
X1924696Y893566D01*
X1923507Y893874D01*
X1922312Y894153D01*
X1921110Y894404D01*
X1919903Y894625D01*
X1918690Y894817D01*
X1917473Y894980D01*
X1916253Y895113D01*
X1915030Y895217D01*
X1913804Y895291D01*
X1912578Y895335D01*
X1911350Y895350D01*
X51000Y895350D01*
X49772Y895335D01*
X48546Y895291D01*
X47320Y895217D01*
X46097Y895113D01*
X44877Y894980D01*
X43660Y894817D01*
X42447Y894625D01*
X41240Y894404D01*
X40038Y894153D01*
X38843Y893874D01*
X37654Y893566D01*
X36474Y893229D01*
X35302Y892864D01*
X34139Y892470D01*
X32986Y892049D01*
X31844Y891600D01*
X30712Y891123D01*
X29593Y890619D01*
X28486Y890088D01*
X27392Y889531D01*
X26312Y888948D01*
X25246Y888338D01*
X24196Y887703D01*
X23161Y887043D01*
X22142Y886358D01*
X21141Y885648D01*
X20156Y884915D01*
X19190Y884157D01*
X18242Y883377D01*
X17313Y882574D01*
X16404Y881749D01*
X15516Y880902D01*
X14648Y880034D01*
X13801Y879146D01*
X12976Y878237D01*
X12173Y877308D01*
X11393Y876360D01*
X10635Y875394D01*
X9902Y874409D01*
X9192Y873408D01*
X8507Y872389D01*
X7847Y871354D01*
X7212Y870304D01*
X6602Y869238D01*
X6019Y868158D01*
X5462Y867064D01*
X4931Y865957D01*
X4427Y864838D01*
X3950Y863706D01*
X3501Y862564D01*
X3080Y861411D01*
X2686Y860248D01*
X2321Y859076D01*
X1984Y857896D01*
X1676Y856707D01*
X1397Y855512D01*
X1146Y854310D01*
X925Y853103D01*
X733Y851890D01*
X570Y850673D01*
X437Y849453D01*
X333Y848230D01*
X259Y847004D01*
X215Y845778D01*
X200Y844550D01*
X200Y47750D01*
X215Y46522D01*
X259Y45296D01*
X333Y44070D01*
X437Y42847D01*
X570Y41627D01*
X733Y40410D01*
X925Y39197D01*
X1146Y37990D01*
X1397Y36788D01*
X1676Y35593D01*
X1984Y34404D01*
X2321Y33224D01*
X2686Y32052D01*
X3080Y30889D01*
X3501Y29736D01*
X3950Y28594D01*
X4427Y27462D01*
X4931Y26343D01*
X5462Y25236D01*
X6019Y24142D01*
X6602Y23062D01*
X7212Y21996D01*
X7847Y20946D01*
X8507Y19911D01*
X9192Y18892D01*
X9902Y17891D01*
X10635Y16906D01*
X11393Y15940D01*
X12173Y14992D01*
X12976Y14063D01*
X13801Y13154D01*
X14648Y12266D01*
X15516Y11398D01*
X16404Y10551D01*
X17313Y9726D01*
X18242Y8923D01*
X19190Y8143D01*
X20156Y7385D01*
X21141Y6652D01*
X22142Y5942D01*
X23161Y5257D01*
X24196Y4597D01*
X25246Y3962D01*
X26312Y3352D01*
X27392Y2769D01*
X28486Y2212D01*
X29593Y1681D01*
X30712Y1177D01*
X31844Y700D01*
X32986Y251D01*
X34139Y-170D01*
X35302Y-564D01*
X36474Y-929D01*
X37654Y-1266D01*
X38843Y-1574D01*
X40038Y-1853D01*
X41240Y-2104D01*
X42447Y-2325D01*
X43660Y-2517D01*
X44877Y-2680D01*
X46097Y-2813D01*
X47320Y-2917D01*
X48546Y-2991D01*
X49772Y-3035D01*
X51000Y-3050D01*
D11*
X31750Y514350D03*
D12*
X31750Y463550D03*
D13*
X984250Y628650D03*
X984250Y679450D03*
X1009650Y628650D03*
X1009650Y679450D03*
X1035050Y628650D03*
X1035050Y679450D03*
X1085850Y628650D03*
X1085850Y679450D03*
X1060450Y628650D03*
X1060450Y679450D03*
X1111250Y628650D03*
X1111250Y679450D03*
D14*
X1160526Y796798D03*
X1133094Y796798D03*
X1105408Y796798D03*
X1077722Y796798D03*
X1050290Y796798D03*
X1022604Y796798D03*
X994918Y796798D03*
X967486Y796798D03*
X939800Y796798D03*
X912114Y796798D03*
X884682Y796798D03*
X856996Y796798D03*
X1146810Y768350D03*
X1119124Y768350D03*
X1091692Y768350D03*
X1064006Y768350D03*
X1036320Y768350D03*
X1008888Y768350D03*
X981202Y768350D03*
X953516Y768350D03*
X926084Y768350D03*
X898398Y768350D03*
X870712Y768350D03*
X829310Y796798D03*
X801878Y796798D03*
X774192Y796798D03*
X746506Y796798D03*
X843280Y768350D03*
X815594Y768350D03*
X787908Y768350D03*
X760476Y768350D03*
X719074Y796798D03*
X732790Y768350D03*
X1160526Y739902D03*
X1133094Y739902D03*
X1105408Y739902D03*
X1077722Y739902D03*
X1050290Y739902D03*
X1022604Y739902D03*
X994918Y739902D03*
X967486Y739902D03*
X939800Y739902D03*
X912114Y739902D03*
X884682Y739902D03*
X856996Y739902D03*
X829310Y739902D03*
X801878Y739902D03*
X774192Y739902D03*
X746506Y739902D03*
X719074Y739902D03*
D15*
X634238Y768350D03*
X1245362Y768350D03*
D16*
X47054Y597300D02*
X29147Y597300D01*
X29147Y647300D02*
X47054Y647300D01*
D17*
X1840230Y717550D02*
X1855470Y717550D01*
X1855470Y692150D02*
X1840230Y692150D01*
X1840230Y666750D02*
X1855470Y666750D01*
X1855470Y641350D02*
X1840230Y641350D01*
X1840230Y615950D02*
X1855470Y615950D01*
X1855470Y590550D02*
X1840230Y590550D01*
X1840230Y539750D02*
X1855470Y539750D01*
X1855470Y514350D02*
X1840230Y514350D01*
X1840230Y488950D02*
X1855470Y488950D01*
X1855470Y463550D02*
X1840230Y463550D01*
X1840230Y438150D02*
X1855470Y438150D01*
X1855470Y412750D02*
X1840230Y412750D01*
X1840230Y387350D02*
X1855470Y387350D01*
X1855470Y361950D02*
X1840230Y361950D01*
X1840230Y311150D02*
X1855470Y311150D01*
X1855470Y285750D02*
X1840230Y285750D01*
X1840230Y260350D02*
X1855470Y260350D01*
X1855470Y234950D02*
X1840230Y234950D01*
X1840230Y209550D02*
X1855470Y209550D01*
X1855470Y184150D02*
X1840230Y184150D01*
X1840230Y158750D02*
X1855470Y158750D01*
X1855470Y133350D02*
X1840230Y133350D01*
X1372870Y184150D02*
X1357630Y184150D01*
X1357630Y209550D02*
X1372870Y209550D01*
X1372870Y234950D02*
X1357630Y234950D01*
X1357630Y260350D02*
X1372870Y260350D01*
X1372870Y285750D02*
X1357630Y285750D01*
X1357630Y311150D02*
X1372870Y311150D01*
X1372870Y336550D02*
X1357630Y336550D01*
X1357630Y361950D02*
X1372870Y361950D01*
X1372870Y412750D02*
X1357630Y412750D01*
X1357630Y438150D02*
X1372870Y438150D01*
X1372870Y463550D02*
X1357630Y463550D01*
X1357630Y488950D02*
X1372870Y488950D01*
X1372870Y514350D02*
X1357630Y514350D01*
X1357630Y539750D02*
X1372870Y539750D01*
X1372870Y565150D02*
X1357630Y565150D01*
X1357630Y590550D02*
X1372870Y590550D01*
X1372870Y628650D02*
X1357630Y628650D01*
X1357630Y654050D02*
X1372870Y654050D01*
X1372870Y679450D02*
X1357630Y679450D01*
X1357630Y704850D02*
X1372870Y704850D01*
X1372870Y730250D02*
X1357630Y730250D01*
X1357630Y755650D02*
X1372870Y755650D01*
X1372870Y781050D02*
X1357630Y781050D01*
X1357630Y806450D02*
X1372870Y806450D01*
D18*
X1365250Y107950D03*
X1365250Y82550D03*
X1390650Y107950D03*
X1390650Y82550D03*
X1416050Y107950D03*
X1416050Y82550D03*
X1441450Y107950D03*
X1441450Y82550D03*
X1466850Y107950D03*
X1466850Y82550D03*
X1492250Y107950D03*
X1492250Y82550D03*
X1517650Y107950D03*
X1517650Y82550D03*
X1543050Y107950D03*
X1543050Y82550D03*
X1568450Y107950D03*
X1568450Y82550D03*
X1593850Y107950D03*
X1593850Y82550D03*
X1619250Y107950D03*
X1619250Y82550D03*
X1644650Y107950D03*
X1644650Y82550D03*
X1670050Y107950D03*
X1670050Y82550D03*
X1695450Y107950D03*
X1695450Y82550D03*
X1720850Y107950D03*
X1720850Y82550D03*
X1746250Y107950D03*
X1746250Y82550D03*
X1771650Y107950D03*
X1771650Y82550D03*
X1797050Y107950D03*
X1797050Y82550D03*
D17*
X1372870Y831850D02*
X1357630Y831850D01*
X1357630Y857250D02*
X1372870Y857250D01*
X1840230Y768350D02*
X1855470Y768350D01*
X1855470Y742950D02*
X1840230Y742950D01*
D19*
X1930400Y127000D03*
D20*
X1905000Y127000D03*
X1930400Y152400D03*
X1905000Y152400D03*
X1930400Y177800D03*
X1905000Y177800D03*
X1930400Y203200D03*
X1905000Y203200D03*
X1930400Y228600D03*
X1905000Y228600D03*
X1930400Y254000D03*
X1905000Y254000D03*
X1930400Y279400D03*
X1905000Y279400D03*
X1930400Y304800D03*
X1905000Y304800D03*
X1930400Y330200D03*
X1905000Y330200D03*
X1930400Y355600D03*
X1905000Y355600D03*
X1930400Y381000D03*
X1905000Y381000D03*
X1930400Y406400D03*
X1905000Y406400D03*
X1930400Y431800D03*
X1905000Y431800D03*
X1930400Y457200D03*
X1905000Y457200D03*
X1930400Y482600D03*
X1905000Y482600D03*
X1930400Y508000D03*
X1905000Y508000D03*
X1930400Y533400D03*
X1905000Y533400D03*
X1930400Y558800D03*
X1905000Y558800D03*
X1930400Y584200D03*
X1905000Y584200D03*
X1930400Y609600D03*
X1905000Y609600D03*
D21*
X1602700Y314928D03*
X1609200Y314928D03*
X1615700Y314928D03*
X1622200Y314928D03*
X1628700Y314928D03*
X1635200Y314928D03*
X1641700Y314928D03*
X1648200Y314928D03*
X1648200Y256572D03*
X1641700Y256572D03*
X1635200Y256572D03*
X1628700Y256572D03*
X1622200Y256572D03*
X1615700Y256572D03*
X1609200Y256572D03*
X1602700Y256572D03*
X1654700Y314928D03*
X1661200Y314928D03*
X1654700Y256572D03*
X1661200Y256572D03*
D10*
X29450Y38100D02*
X29455Y38468D01*
X29468Y38836D01*
X29491Y39203D01*
X29522Y39570D01*
X29563Y39936D01*
X29612Y40301D01*
X29671Y40664D01*
X29738Y41026D01*
X29814Y41387D01*
X29900Y41745D01*
X29993Y42101D01*
X30096Y42454D01*
X30207Y42805D01*
X30327Y43153D01*
X30455Y43498D01*
X30592Y43840D01*
X30737Y44179D01*
X30890Y44513D01*
X31052Y44844D01*
X31221Y45171D01*
X31399Y45493D01*
X31584Y45812D01*
X31777Y46125D01*
X31978Y46434D01*
X32186Y46737D01*
X32402Y47035D01*
X32625Y47328D01*
X32855Y47616D01*
X33092Y47898D01*
X33336Y48173D01*
X33586Y48443D01*
X33843Y48707D01*
X34107Y48964D01*
X34377Y49214D01*
X34652Y49458D01*
X34934Y49695D01*
X35222Y49925D01*
X35515Y50148D01*
X35813Y50364D01*
X36116Y50572D01*
X36425Y50773D01*
X36738Y50966D01*
X37057Y51151D01*
X37379Y51329D01*
X37706Y51498D01*
X38037Y51660D01*
X38371Y51813D01*
X38710Y51958D01*
X39052Y52095D01*
X39397Y52223D01*
X39745Y52343D01*
X40096Y52454D01*
X40449Y52557D01*
X40805Y52650D01*
X41163Y52736D01*
X41524Y52812D01*
X41886Y52879D01*
X42249Y52938D01*
X42614Y52987D01*
X42980Y53028D01*
X43347Y53059D01*
X43714Y53082D01*
X44082Y53095D01*
X44450Y53100D01*
X44818Y53095D01*
X45186Y53082D01*
X45553Y53059D01*
X45920Y53028D01*
X46286Y52987D01*
X46651Y52938D01*
X47014Y52879D01*
X47376Y52812D01*
X47737Y52736D01*
X48095Y52650D01*
X48451Y52557D01*
X48804Y52454D01*
X49155Y52343D01*
X49503Y52223D01*
X49848Y52095D01*
X50190Y51958D01*
X50529Y51813D01*
X50863Y51660D01*
X51194Y51498D01*
X51521Y51329D01*
X51843Y51151D01*
X52162Y50966D01*
X52475Y50773D01*
X52784Y50572D01*
X53087Y50364D01*
X53385Y50148D01*
X53678Y49925D01*
X53966Y49695D01*
X54248Y49458D01*
X54523Y49214D01*
X54793Y48964D01*
X55057Y48707D01*
X55314Y48443D01*
X55564Y48173D01*
X55808Y47898D01*
X56045Y47616D01*
X56275Y47328D01*
X56498Y47035D01*
X56714Y46737D01*
X56922Y46434D01*
X57123Y46125D01*
X57316Y45812D01*
X57501Y45493D01*
X57679Y45171D01*
X57848Y44844D01*
X58010Y44513D01*
X58163Y44179D01*
X58308Y43840D01*
X58445Y43498D01*
X58573Y43153D01*
X58693Y42805D01*
X58804Y42454D01*
X58907Y42101D01*
X59000Y41745D01*
X59086Y41387D01*
X59162Y41026D01*
X59229Y40664D01*
X59288Y40301D01*
X59337Y39936D01*
X59378Y39570D01*
X59409Y39203D01*
X59432Y38836D01*
X59445Y38468D01*
X59450Y38100D01*
X59445Y37732D01*
X59432Y37364D01*
X59409Y36997D01*
X59378Y36630D01*
X59337Y36264D01*
X59288Y35899D01*
X59229Y35536D01*
X59162Y35174D01*
X59086Y34813D01*
X59000Y34455D01*
X58907Y34099D01*
X58804Y33746D01*
X58693Y33395D01*
X58573Y33047D01*
X58445Y32702D01*
X58308Y32360D01*
X58163Y32021D01*
X58010Y31687D01*
X57848Y31356D01*
X57679Y31029D01*
X57501Y30707D01*
X57316Y30388D01*
X57123Y30075D01*
X56922Y29766D01*
X56714Y29463D01*
X56498Y29165D01*
X56275Y28872D01*
X56045Y28584D01*
X55808Y28302D01*
X55564Y28027D01*
X55314Y27757D01*
X55057Y27493D01*
X54793Y27236D01*
X54523Y26986D01*
X54248Y26742D01*
X53966Y26505D01*
X53678Y26275D01*
X53385Y26052D01*
X53087Y25836D01*
X52784Y25628D01*
X52475Y25427D01*
X52162Y25234D01*
X51843Y25049D01*
X51521Y24871D01*
X51194Y24702D01*
X50863Y24540D01*
X50529Y24387D01*
X50190Y24242D01*
X49848Y24105D01*
X49503Y23977D01*
X49155Y23857D01*
X48804Y23746D01*
X48451Y23643D01*
X48095Y23550D01*
X47737Y23464D01*
X47376Y23388D01*
X47014Y23321D01*
X46651Y23262D01*
X46286Y23213D01*
X45920Y23172D01*
X45553Y23141D01*
X45186Y23118D01*
X44818Y23105D01*
X44450Y23100D01*
X44082Y23105D01*
X43714Y23118D01*
X43347Y23141D01*
X42980Y23172D01*
X42614Y23213D01*
X42249Y23262D01*
X41886Y23321D01*
X41524Y23388D01*
X41163Y23464D01*
X40805Y23550D01*
X40449Y23643D01*
X40096Y23746D01*
X39745Y23857D01*
X39397Y23977D01*
X39052Y24105D01*
X38710Y24242D01*
X38371Y24387D01*
X38037Y24540D01*
X37706Y24702D01*
X37379Y24871D01*
X37057Y25049D01*
X36738Y25234D01*
X36425Y25427D01*
X36116Y25628D01*
X35813Y25836D01*
X35515Y26052D01*
X35222Y26275D01*
X34934Y26505D01*
X34652Y26742D01*
X34377Y26986D01*
X34107Y27236D01*
X33843Y27493D01*
X33586Y27757D01*
X33336Y28027D01*
X33092Y28302D01*
X32855Y28584D01*
X32625Y28872D01*
X32402Y29165D01*
X32186Y29463D01*
X31978Y29766D01*
X31777Y30075D01*
X31584Y30388D01*
X31399Y30707D01*
X31221Y31029D01*
X31052Y31356D01*
X30890Y31687D01*
X30737Y32021D01*
X30592Y32360D01*
X30455Y32702D01*
X30327Y33047D01*
X30207Y33395D01*
X30096Y33746D01*
X29993Y34099D01*
X29900Y34455D01*
X29814Y34813D01*
X29738Y35174D01*
X29671Y35536D01*
X29612Y35899D01*
X29563Y36264D01*
X29522Y36630D01*
X29491Y36997D01*
X29468Y37364D01*
X29455Y37732D01*
X29450Y38100D01*
X29450Y850900D02*
X29455Y851268D01*
X29468Y851636D01*
X29491Y852003D01*
X29522Y852370D01*
X29563Y852736D01*
X29612Y853101D01*
X29671Y853464D01*
X29738Y853826D01*
X29814Y854187D01*
X29900Y854545D01*
X29993Y854901D01*
X30096Y855254D01*
X30207Y855605D01*
X30327Y855953D01*
X30455Y856298D01*
X30592Y856640D01*
X30737Y856979D01*
X30890Y857313D01*
X31052Y857644D01*
X31221Y857971D01*
X31399Y858293D01*
X31584Y858612D01*
X31777Y858925D01*
X31978Y859234D01*
X32186Y859537D01*
X32402Y859835D01*
X32625Y860128D01*
X32855Y860416D01*
X33092Y860698D01*
X33336Y860973D01*
X33586Y861243D01*
X33843Y861507D01*
X34107Y861764D01*
X34377Y862014D01*
X34652Y862258D01*
X34934Y862495D01*
X35222Y862725D01*
X35515Y862948D01*
X35813Y863164D01*
X36116Y863372D01*
X36425Y863573D01*
X36738Y863766D01*
X37057Y863951D01*
X37379Y864129D01*
X37706Y864298D01*
X38037Y864460D01*
X38371Y864613D01*
X38710Y864758D01*
X39052Y864895D01*
X39397Y865023D01*
X39745Y865143D01*
X40096Y865254D01*
X40449Y865357D01*
X40805Y865450D01*
X41163Y865536D01*
X41524Y865612D01*
X41886Y865679D01*
X42249Y865738D01*
X42614Y865787D01*
X42980Y865828D01*
X43347Y865859D01*
X43714Y865882D01*
X44082Y865895D01*
X44450Y865900D01*
X44818Y865895D01*
X45186Y865882D01*
X45553Y865859D01*
X45920Y865828D01*
X46286Y865787D01*
X46651Y865738D01*
X47014Y865679D01*
X47376Y865612D01*
X47737Y865536D01*
X48095Y865450D01*
X48451Y865357D01*
X48804Y865254D01*
X49155Y865143D01*
X49503Y865023D01*
X49848Y864895D01*
X50190Y864758D01*
X50529Y864613D01*
X50863Y864460D01*
X51194Y864298D01*
X51521Y864129D01*
X51843Y863951D01*
X52162Y863766D01*
X52475Y863573D01*
X52784Y863372D01*
X53087Y863164D01*
X53385Y862948D01*
X53678Y862725D01*
X53966Y862495D01*
X54248Y862258D01*
X54523Y862014D01*
X54793Y861764D01*
X55057Y861507D01*
X55314Y861243D01*
X55564Y860973D01*
X55808Y860698D01*
X56045Y860416D01*
X56275Y860128D01*
X56498Y859835D01*
X56714Y859537D01*
X56922Y859234D01*
X57123Y858925D01*
X57316Y858612D01*
X57501Y858293D01*
X57679Y857971D01*
X57848Y857644D01*
X58010Y857313D01*
X58163Y856979D01*
X58308Y856640D01*
X58445Y856298D01*
X58573Y855953D01*
X58693Y855605D01*
X58804Y855254D01*
X58907Y854901D01*
X59000Y854545D01*
X59086Y854187D01*
X59162Y853826D01*
X59229Y853464D01*
X59288Y853101D01*
X59337Y852736D01*
X59378Y852370D01*
X59409Y852003D01*
X59432Y851636D01*
X59445Y851268D01*
X59450Y850900D01*
X59445Y850532D01*
X59432Y850164D01*
X59409Y849797D01*
X59378Y849430D01*
X59337Y849064D01*
X59288Y848699D01*
X59229Y848336D01*
X59162Y847974D01*
X59086Y847613D01*
X59000Y847255D01*
X58907Y846899D01*
X58804Y846546D01*
X58693Y846195D01*
X58573Y845847D01*
X58445Y845502D01*
X58308Y845160D01*
X58163Y844821D01*
X58010Y844487D01*
X57848Y844156D01*
X57679Y843829D01*
X57501Y843507D01*
X57316Y843188D01*
X57123Y842875D01*
X56922Y842566D01*
X56714Y842263D01*
X56498Y841965D01*
X56275Y841672D01*
X56045Y841384D01*
X55808Y841102D01*
X55564Y840827D01*
X55314Y840557D01*
X55057Y840293D01*
X54793Y840036D01*
X54523Y839786D01*
X54248Y839542D01*
X53966Y839305D01*
X53678Y839075D01*
X53385Y838852D01*
X53087Y838636D01*
X52784Y838428D01*
X52475Y838227D01*
X52162Y838034D01*
X51843Y837849D01*
X51521Y837671D01*
X51194Y837502D01*
X50863Y837340D01*
X50529Y837187D01*
X50190Y837042D01*
X49848Y836905D01*
X49503Y836777D01*
X49155Y836657D01*
X48804Y836546D01*
X48451Y836443D01*
X48095Y836350D01*
X47737Y836264D01*
X47376Y836188D01*
X47014Y836121D01*
X46651Y836062D01*
X46286Y836013D01*
X45920Y835972D01*
X45553Y835941D01*
X45186Y835918D01*
X44818Y835905D01*
X44450Y835900D01*
X44082Y835905D01*
X43714Y835918D01*
X43347Y835941D01*
X42980Y835972D01*
X42614Y836013D01*
X42249Y836062D01*
X41886Y836121D01*
X41524Y836188D01*
X41163Y836264D01*
X40805Y836350D01*
X40449Y836443D01*
X40096Y836546D01*
X39745Y836657D01*
X39397Y836777D01*
X39052Y836905D01*
X38710Y837042D01*
X38371Y837187D01*
X38037Y837340D01*
X37706Y837502D01*
X37379Y837671D01*
X37057Y837849D01*
X36738Y838034D01*
X36425Y838227D01*
X36116Y838428D01*
X35813Y838636D01*
X35515Y838852D01*
X35222Y839075D01*
X34934Y839305D01*
X34652Y839542D01*
X34377Y839786D01*
X34107Y840036D01*
X33843Y840293D01*
X33586Y840557D01*
X33336Y840827D01*
X33092Y841102D01*
X32855Y841384D01*
X32625Y841672D01*
X32402Y841965D01*
X32186Y842263D01*
X31978Y842566D01*
X31777Y842875D01*
X31584Y843188D01*
X31399Y843507D01*
X31221Y843829D01*
X31052Y844156D01*
X30890Y844487D01*
X30737Y844821D01*
X30592Y845160D01*
X30455Y845502D01*
X30327Y845847D01*
X30207Y846195D01*
X30096Y846546D01*
X29993Y846899D01*
X29900Y847255D01*
X29814Y847613D01*
X29738Y847974D01*
X29671Y848336D01*
X29612Y848699D01*
X29563Y849064D01*
X29522Y849430D01*
X29491Y849797D01*
X29468Y850164D01*
X29455Y850532D01*
X29450Y850900D01*
X1896350Y844550D02*
X1896355Y844918D01*
X1896368Y845286D01*
X1896391Y845653D01*
X1896422Y846020D01*
X1896463Y846386D01*
X1896512Y846751D01*
X1896571Y847114D01*
X1896638Y847476D01*
X1896714Y847837D01*
X1896800Y848195D01*
X1896893Y848551D01*
X1896996Y848904D01*
X1897107Y849255D01*
X1897227Y849603D01*
X1897355Y849948D01*
X1897492Y850290D01*
X1897637Y850629D01*
X1897790Y850963D01*
X1897952Y851294D01*
X1898121Y851621D01*
X1898299Y851943D01*
X1898484Y852262D01*
X1898677Y852575D01*
X1898878Y852884D01*
X1899086Y853187D01*
X1899302Y853485D01*
X1899525Y853778D01*
X1899755Y854066D01*
X1899992Y854348D01*
X1900236Y854623D01*
X1900486Y854893D01*
X1900743Y855157D01*
X1901007Y855414D01*
X1901277Y855664D01*
X1901552Y855908D01*
X1901834Y856145D01*
X1902122Y856375D01*
X1902415Y856598D01*
X1902713Y856814D01*
X1903016Y857022D01*
X1903325Y857223D01*
X1903638Y857416D01*
X1903957Y857601D01*
X1904279Y857779D01*
X1904606Y857948D01*
X1904937Y858110D01*
X1905271Y858263D01*
X1905610Y858408D01*
X1905952Y858545D01*
X1906297Y858673D01*
X1906645Y858793D01*
X1906996Y858904D01*
X1907349Y859007D01*
X1907705Y859100D01*
X1908063Y859186D01*
X1908424Y859262D01*
X1908786Y859329D01*
X1909149Y859388D01*
X1909514Y859437D01*
X1909880Y859478D01*
X1910247Y859509D01*
X1910614Y859532D01*
X1910982Y859545D01*
X1911350Y859550D01*
X1911718Y859545D01*
X1912086Y859532D01*
X1912453Y859509D01*
X1912820Y859478D01*
X1913186Y859437D01*
X1913551Y859388D01*
X1913914Y859329D01*
X1914276Y859262D01*
X1914637Y859186D01*
X1914995Y859100D01*
X1915351Y859007D01*
X1915704Y858904D01*
X1916055Y858793D01*
X1916403Y858673D01*
X1916748Y858545D01*
X1917090Y858408D01*
X1917429Y858263D01*
X1917763Y858110D01*
X1918094Y857948D01*
X1918421Y857779D01*
X1918743Y857601D01*
X1919062Y857416D01*
X1919375Y857223D01*
X1919684Y857022D01*
X1919987Y856814D01*
X1920285Y856598D01*
X1920578Y856375D01*
X1920866Y856145D01*
X1921148Y855908D01*
X1921423Y855664D01*
X1921693Y855414D01*
X1921957Y855157D01*
X1922214Y854893D01*
X1922464Y854623D01*
X1922708Y854348D01*
X1922945Y854066D01*
X1923175Y853778D01*
X1923398Y853485D01*
X1923614Y853187D01*
X1923822Y852884D01*
X1924023Y852575D01*
X1924216Y852262D01*
X1924401Y851943D01*
X1924579Y851621D01*
X1924748Y851294D01*
X1924910Y850963D01*
X1925063Y850629D01*
X1925208Y850290D01*
X1925345Y849948D01*
X1925473Y849603D01*
X1925593Y849255D01*
X1925704Y848904D01*
X1925807Y848551D01*
X1925900Y848195D01*
X1925986Y847837D01*
X1926062Y847476D01*
X1926129Y847114D01*
X1926188Y846751D01*
X1926237Y846386D01*
X1926278Y846020D01*
X1926309Y845653D01*
X1926332Y845286D01*
X1926345Y844918D01*
X1926350Y844550D01*
X1926345Y844182D01*
X1926332Y843814D01*
X1926309Y843447D01*
X1926278Y843080D01*
X1926237Y842714D01*
X1926188Y842349D01*
X1926129Y841986D01*
X1926062Y841624D01*
X1925986Y841263D01*
X1925900Y840905D01*
X1925807Y840549D01*
X1925704Y840196D01*
X1925593Y839845D01*
X1925473Y839497D01*
X1925345Y839152D01*
X1925208Y838810D01*
X1925063Y838471D01*
X1924910Y838137D01*
X1924748Y837806D01*
X1924579Y837479D01*
X1924401Y837157D01*
X1924216Y836838D01*
X1924023Y836525D01*
X1923822Y836216D01*
X1923614Y835913D01*
X1923398Y835615D01*
X1923175Y835322D01*
X1922945Y835034D01*
X1922708Y834752D01*
X1922464Y834477D01*
X1922214Y834207D01*
X1921957Y833943D01*
X1921693Y833686D01*
X1921423Y833436D01*
X1921148Y833192D01*
X1920866Y832955D01*
X1920578Y832725D01*
X1920285Y832502D01*
X1919987Y832286D01*
X1919684Y832078D01*
X1919375Y831877D01*
X1919062Y831684D01*
X1918743Y831499D01*
X1918421Y831321D01*
X1918094Y831152D01*
X1917763Y830990D01*
X1917429Y830837D01*
X1917090Y830692D01*
X1916748Y830555D01*
X1916403Y830427D01*
X1916055Y830307D01*
X1915704Y830196D01*
X1915351Y830093D01*
X1914995Y830000D01*
X1914637Y829914D01*
X1914276Y829838D01*
X1913914Y829771D01*
X1913551Y829712D01*
X1913186Y829663D01*
X1912820Y829622D01*
X1912453Y829591D01*
X1912086Y829568D01*
X1911718Y829555D01*
X1911350Y829550D01*
X1910982Y829555D01*
X1910614Y829568D01*
X1910247Y829591D01*
X1909880Y829622D01*
X1909514Y829663D01*
X1909149Y829712D01*
X1908786Y829771D01*
X1908424Y829838D01*
X1908063Y829914D01*
X1907705Y830000D01*
X1907349Y830093D01*
X1906996Y830196D01*
X1906645Y830307D01*
X1906297Y830427D01*
X1905952Y830555D01*
X1905610Y830692D01*
X1905271Y830837D01*
X1904937Y830990D01*
X1904606Y831152D01*
X1904279Y831321D01*
X1903957Y831499D01*
X1903638Y831684D01*
X1903325Y831877D01*
X1903016Y832078D01*
X1902713Y832286D01*
X1902415Y832502D01*
X1902122Y832725D01*
X1901834Y832955D01*
X1901552Y833192D01*
X1901277Y833436D01*
X1901007Y833686D01*
X1900743Y833943D01*
X1900486Y834207D01*
X1900236Y834477D01*
X1899992Y834752D01*
X1899755Y835034D01*
X1899525Y835322D01*
X1899302Y835615D01*
X1899086Y835913D01*
X1898878Y836216D01*
X1898677Y836525D01*
X1898484Y836838D01*
X1898299Y837157D01*
X1898121Y837479D01*
X1897952Y837806D01*
X1897790Y838137D01*
X1897637Y838471D01*
X1897492Y838810D01*
X1897355Y839152D01*
X1897227Y839497D01*
X1897107Y839845D01*
X1896996Y840196D01*
X1896893Y840549D01*
X1896800Y840905D01*
X1896714Y841263D01*
X1896638Y841624D01*
X1896571Y841986D01*
X1896512Y842349D01*
X1896463Y842714D01*
X1896422Y843080D01*
X1896391Y843447D01*
X1896368Y843814D01*
X1896355Y844182D01*
X1896350Y844550D01*
D22*
X1917700Y742950D03*
X1917700Y717550D03*
X1917700Y692150D03*
D23*
X1841500Y838200D03*
X1841500Y812800D03*
D17*
X1911350Y795020D02*
X1911350Y779780D01*
X1936750Y779780D02*
X1936750Y795020D01*
D10*
X1902700Y44450D02*
X1902705Y44818D01*
X1902718Y45186D01*
X1902741Y45553D01*
X1902772Y45920D01*
X1902813Y46286D01*
X1902862Y46651D01*
X1902921Y47014D01*
X1902988Y47376D01*
X1903064Y47737D01*
X1903150Y48095D01*
X1903243Y48451D01*
X1903346Y48804D01*
X1903457Y49155D01*
X1903577Y49503D01*
X1903705Y49848D01*
X1903842Y50190D01*
X1903987Y50529D01*
X1904140Y50863D01*
X1904302Y51194D01*
X1904471Y51521D01*
X1904649Y51843D01*
X1904834Y52162D01*
X1905027Y52475D01*
X1905228Y52784D01*
X1905436Y53087D01*
X1905652Y53385D01*
X1905875Y53678D01*
X1906105Y53966D01*
X1906342Y54248D01*
X1906586Y54523D01*
X1906836Y54793D01*
X1907093Y55057D01*
X1907357Y55314D01*
X1907627Y55564D01*
X1907902Y55808D01*
X1908184Y56045D01*
X1908472Y56275D01*
X1908765Y56498D01*
X1909063Y56714D01*
X1909366Y56922D01*
X1909675Y57123D01*
X1909988Y57316D01*
X1910307Y57501D01*
X1910629Y57679D01*
X1910956Y57848D01*
X1911287Y58010D01*
X1911621Y58163D01*
X1911960Y58308D01*
X1912302Y58445D01*
X1912647Y58573D01*
X1912995Y58693D01*
X1913346Y58804D01*
X1913699Y58907D01*
X1914055Y59000D01*
X1914413Y59086D01*
X1914774Y59162D01*
X1915136Y59229D01*
X1915499Y59288D01*
X1915864Y59337D01*
X1916230Y59378D01*
X1916597Y59409D01*
X1916964Y59432D01*
X1917332Y59445D01*
X1917700Y59450D01*
X1918068Y59445D01*
X1918436Y59432D01*
X1918803Y59409D01*
X1919170Y59378D01*
X1919536Y59337D01*
X1919901Y59288D01*
X1920264Y59229D01*
X1920626Y59162D01*
X1920987Y59086D01*
X1921345Y59000D01*
X1921701Y58907D01*
X1922054Y58804D01*
X1922405Y58693D01*
X1922753Y58573D01*
X1923098Y58445D01*
X1923440Y58308D01*
X1923779Y58163D01*
X1924113Y58010D01*
X1924444Y57848D01*
X1924771Y57679D01*
X1925093Y57501D01*
X1925412Y57316D01*
X1925725Y57123D01*
X1926034Y56922D01*
X1926337Y56714D01*
X1926635Y56498D01*
X1926928Y56275D01*
X1927216Y56045D01*
X1927498Y55808D01*
X1927773Y55564D01*
X1928043Y55314D01*
X1928307Y55057D01*
X1928564Y54793D01*
X1928814Y54523D01*
X1929058Y54248D01*
X1929295Y53966D01*
X1929525Y53678D01*
X1929748Y53385D01*
X1929964Y53087D01*
X1930172Y52784D01*
X1930373Y52475D01*
X1930566Y52162D01*
X1930751Y51843D01*
X1930929Y51521D01*
X1931098Y51194D01*
X1931260Y50863D01*
X1931413Y50529D01*
X1931558Y50190D01*
X1931695Y49848D01*
X1931823Y49503D01*
X1931943Y49155D01*
X1932054Y48804D01*
X1932157Y48451D01*
X1932250Y48095D01*
X1932336Y47737D01*
X1932412Y47376D01*
X1932479Y47014D01*
X1932538Y46651D01*
X1932587Y46286D01*
X1932628Y45920D01*
X1932659Y45553D01*
X1932682Y45186D01*
X1932695Y44818D01*
X1932700Y44450D01*
X1932695Y44082D01*
X1932682Y43714D01*
X1932659Y43347D01*
X1932628Y42980D01*
X1932587Y42614D01*
X1932538Y42249D01*
X1932479Y41886D01*
X1932412Y41524D01*
X1932336Y41163D01*
X1932250Y40805D01*
X1932157Y40449D01*
X1932054Y40096D01*
X1931943Y39745D01*
X1931823Y39397D01*
X1931695Y39052D01*
X1931558Y38710D01*
X1931413Y38371D01*
X1931260Y38037D01*
X1931098Y37706D01*
X1930929Y37379D01*
X1930751Y37057D01*
X1930566Y36738D01*
X1930373Y36425D01*
X1930172Y36116D01*
X1929964Y35813D01*
X1929748Y35515D01*
X1929525Y35222D01*
X1929295Y34934D01*
X1929058Y34652D01*
X1928814Y34377D01*
X1928564Y34107D01*
X1928307Y33843D01*
X1928043Y33586D01*
X1927773Y33336D01*
X1927498Y33092D01*
X1927216Y32855D01*
X1926928Y32625D01*
X1926635Y32402D01*
X1926337Y32186D01*
X1926034Y31978D01*
X1925725Y31777D01*
X1925412Y31584D01*
X1925093Y31399D01*
X1924771Y31221D01*
X1924444Y31052D01*
X1924113Y30890D01*
X1923779Y30737D01*
X1923440Y30592D01*
X1923098Y30455D01*
X1922753Y30327D01*
X1922405Y30207D01*
X1922054Y30096D01*
X1921701Y29993D01*
X1921345Y29900D01*
X1920987Y29814D01*
X1920626Y29738D01*
X1920264Y29671D01*
X1919901Y29612D01*
X1919536Y29563D01*
X1919170Y29522D01*
X1918803Y29491D01*
X1918436Y29468D01*
X1918068Y29455D01*
X1917700Y29450D01*
X1917332Y29455D01*
X1916964Y29468D01*
X1916597Y29491D01*
X1916230Y29522D01*
X1915864Y29563D01*
X1915499Y29612D01*
X1915136Y29671D01*
X1914774Y29738D01*
X1914413Y29814D01*
X1914055Y29900D01*
X1913699Y29993D01*
X1913346Y30096D01*
X1912995Y30207D01*
X1912647Y30327D01*
X1912302Y30455D01*
X1911960Y30592D01*
X1911621Y30737D01*
X1911287Y30890D01*
X1910956Y31052D01*
X1910629Y31221D01*
X1910307Y31399D01*
X1909988Y31584D01*
X1909675Y31777D01*
X1909366Y31978D01*
X1909063Y32186D01*
X1908765Y32402D01*
X1908472Y32625D01*
X1908184Y32855D01*
X1907902Y33092D01*
X1907627Y33336D01*
X1907357Y33586D01*
X1907093Y33843D01*
X1906836Y34107D01*
X1906586Y34377D01*
X1906342Y34652D01*
X1906105Y34934D01*
X1905875Y35222D01*
X1905652Y35515D01*
X1905436Y35813D01*
X1905228Y36116D01*
X1905027Y36425D01*
X1904834Y36738D01*
X1904649Y37057D01*
X1904471Y37379D01*
X1904302Y37706D01*
X1904140Y38037D01*
X1903987Y38371D01*
X1903842Y38710D01*
X1903705Y39052D01*
X1903577Y39397D01*
X1903457Y39745D01*
X1903346Y40096D01*
X1903243Y40449D01*
X1903150Y40805D01*
X1903064Y41163D01*
X1902988Y41524D01*
X1902921Y41886D01*
X1902862Y42249D01*
X1902813Y42614D01*
X1902772Y42980D01*
X1902741Y43347D01*
X1902718Y43714D01*
X1902705Y44082D01*
X1902700Y44450D01*
D24*
X1543050Y336296D02*
X1543050Y349504D01*
X1568450Y349504D02*
X1568450Y336296D01*
X1593850Y336296D02*
X1593850Y349504D01*
X1619250Y349504D02*
X1619250Y336296D01*
X1644650Y336296D02*
X1644650Y349504D01*
X1670050Y349504D02*
X1670050Y336296D01*
X1695450Y336296D02*
X1695450Y349504D01*
X1720850Y349504D02*
X1720850Y336296D01*
D16*
X47054Y717950D02*
X29147Y717950D01*
X29147Y767950D02*
X47054Y767950D01*
D25*
X546037Y736600D02*
X571564Y736600D01*
X571564Y698500D02*
X546037Y698500D01*
D26*
X215900Y723900D03*
X215900Y749300D03*
X215900Y850900D03*
X215900Y825500D03*
X406400Y723900D03*
X406400Y749300D03*
X406400Y850900D03*
X406400Y825500D03*
D27*
X113030Y873760D03*
X113030Y701040D03*
X509270Y701040D03*
X509270Y873760D03*
D17*
X944880Y425450D02*
X960120Y425450D01*
X960120Y450850D02*
X944880Y450850D01*
X944880Y476250D02*
X960120Y476250D01*
X960120Y501650D02*
X944880Y501650D01*
X944880Y527050D02*
X960120Y527050D01*
X960120Y552450D02*
X944880Y552450D01*
X944880Y577850D02*
X960120Y577850D01*
X960120Y603250D02*
X944880Y603250D01*
X1300480Y425450D02*
X1315720Y425450D01*
X1315720Y450850D02*
X1300480Y450850D01*
X1300480Y476250D02*
X1315720Y476250D01*
X1315720Y501650D02*
X1300480Y501650D01*
X1300480Y527050D02*
X1315720Y527050D01*
X1315720Y552450D02*
X1300480Y552450D01*
X1300480Y577850D02*
X1315720Y577850D01*
X1315720Y603250D02*
X1300480Y603250D01*
X1300480Y628650D02*
X1315720Y628650D01*
X1315720Y654050D02*
X1300480Y654050D01*
D28*
X965200Y590550D03*
X965200Y539750D03*
X965200Y488950D03*
X965200Y438150D03*
D13*
X558800Y819150D03*
X558800Y844550D03*
D23*
X463550Y844550D03*
X463550Y768350D03*
D22*
X1314450Y742950D03*
X1314450Y768350D03*
X1314450Y793750D03*
D29*
X1327150Y831850D03*
X1301750Y831850D03*
D17*
X960120Y82550D02*
X944880Y82550D01*
X944880Y107950D02*
X960120Y107950D01*
X960120Y133350D02*
X944880Y133350D01*
X944880Y158750D02*
X960120Y158750D01*
X960120Y184150D02*
X944880Y184150D01*
X944880Y209550D02*
X960120Y209550D01*
X960120Y234950D02*
X944880Y234950D01*
X944880Y260350D02*
X960120Y260350D01*
X1300480Y82550D02*
X1315720Y82550D01*
X1315720Y107950D02*
X1300480Y107950D01*
X1300480Y133350D02*
X1315720Y133350D01*
X1315720Y158750D02*
X1300480Y158750D01*
X1300480Y184150D02*
X1315720Y184150D01*
X1315720Y209550D02*
X1300480Y209550D01*
X1300480Y234950D02*
X1315720Y234950D01*
X1315720Y260350D02*
X1300480Y260350D01*
X1300480Y285750D02*
X1315720Y285750D01*
X1315720Y311150D02*
X1300480Y311150D01*
D28*
X965200Y247650D03*
X965200Y196850D03*
X965200Y146050D03*
X965200Y95250D03*
D17*
X541020Y425450D02*
X525780Y425450D01*
X525780Y450850D02*
X541020Y450850D01*
X541020Y476250D02*
X525780Y476250D01*
X525780Y501650D02*
X541020Y501650D01*
X541020Y527050D02*
X525780Y527050D01*
X525780Y552450D02*
X541020Y552450D01*
X541020Y577850D02*
X525780Y577850D01*
X525780Y603250D02*
X541020Y603250D01*
X881380Y425450D02*
X896620Y425450D01*
X896620Y450850D02*
X881380Y450850D01*
X881380Y476250D02*
X896620Y476250D01*
X896620Y501650D02*
X881380Y501650D01*
X881380Y527050D02*
X896620Y527050D01*
X896620Y552450D02*
X881380Y552450D01*
X881380Y577850D02*
X896620Y577850D01*
X896620Y603250D02*
X881380Y603250D01*
X881380Y628650D02*
X896620Y628650D01*
X896620Y654050D02*
X881380Y654050D01*
D28*
X546100Y590550D03*
X546100Y539750D03*
X546100Y488950D03*
X546100Y438150D03*
D17*
X541020Y82550D02*
X525780Y82550D01*
X525780Y107950D02*
X541020Y107950D01*
X541020Y133350D02*
X525780Y133350D01*
X525780Y158750D02*
X541020Y158750D01*
X541020Y184150D02*
X525780Y184150D01*
X525780Y209550D02*
X541020Y209550D01*
X541020Y234950D02*
X525780Y234950D01*
X525780Y260350D02*
X541020Y260350D01*
X881380Y82550D02*
X896620Y82550D01*
X896620Y107950D02*
X881380Y107950D01*
X881380Y133350D02*
X896620Y133350D01*
X896620Y158750D02*
X881380Y158750D01*
X881380Y184150D02*
X896620Y184150D01*
X896620Y209550D02*
X881380Y209550D01*
X881380Y234950D02*
X896620Y234950D01*
X896620Y260350D02*
X881380Y260350D01*
X881380Y285750D02*
X896620Y285750D01*
X896620Y311150D02*
X881380Y311150D01*
D28*
X546100Y247650D03*
X546100Y196850D03*
X546100Y146050D03*
X546100Y95250D03*
D17*
X128270Y425450D02*
X113030Y425450D01*
X113030Y450850D02*
X128270Y450850D01*
X128270Y476250D02*
X113030Y476250D01*
X113030Y501650D02*
X128270Y501650D01*
X128270Y527050D02*
X113030Y527050D01*
X113030Y552450D02*
X128270Y552450D01*
X128270Y577850D02*
X113030Y577850D01*
X113030Y603250D02*
X128270Y603250D01*
X468630Y425450D02*
X483870Y425450D01*
X483870Y450850D02*
X468630Y450850D01*
X468630Y476250D02*
X483870Y476250D01*
X483870Y501650D02*
X468630Y501650D01*
X468630Y527050D02*
X483870Y527050D01*
X483870Y552450D02*
X468630Y552450D01*
X468630Y577850D02*
X483870Y577850D01*
X483870Y603250D02*
X468630Y603250D01*
X468630Y628650D02*
X483870Y628650D01*
X483870Y654050D02*
X468630Y654050D01*
D28*
X133350Y590550D03*
X133350Y539750D03*
X133350Y488950D03*
X133350Y438150D03*
D17*
X128270Y82550D02*
X113030Y82550D01*
X113030Y107950D02*
X128270Y107950D01*
X128270Y133350D02*
X113030Y133350D01*
X113030Y158750D02*
X128270Y158750D01*
X128270Y184150D02*
X113030Y184150D01*
X113030Y209550D02*
X128270Y209550D01*
X128270Y234950D02*
X113030Y234950D01*
X113030Y260350D02*
X128270Y260350D01*
X468630Y82550D02*
X483870Y82550D01*
X483870Y107950D02*
X468630Y107950D01*
X468630Y133350D02*
X483870Y133350D01*
X483870Y158750D02*
X468630Y158750D01*
X468630Y184150D02*
X483870Y184150D01*
X483870Y209550D02*
X468630Y209550D01*
X468630Y234950D02*
X483870Y234950D01*
X483870Y260350D02*
X468630Y260350D01*
X468630Y285750D02*
X483870Y285750D01*
X483870Y311150D02*
X468630Y311150D01*
D28*
X133350Y247650D03*
X133350Y196850D03*
X133350Y146050D03*
X133350Y95250D03*
D16*
X47054Y311550D02*
X29147Y311550D01*
X29147Y361550D02*
X47054Y361550D01*
D24*
X1720850Y235204D02*
X1720850Y221996D01*
X1695450Y221996D02*
X1695450Y235204D01*
X1670050Y235204D02*
X1670050Y221996D01*
X1644650Y221996D02*
X1644650Y235204D01*
X1619250Y235204D02*
X1619250Y221996D01*
X1593850Y221996D02*
X1593850Y235204D01*
X1568450Y235204D02*
X1568450Y221996D01*
X1543050Y221996D02*
X1543050Y235204D01*
D30*
X68263Y677863D02*
X38100Y647700D01*
X68263Y677863D02*
X68263Y736600D01*
X38100Y766763D01*
X38100Y647700D02*
X38100Y647300D01*
X38100Y766763D02*
X38100Y767950D01*
X952500Y184150D02*
X965200Y196850D01*
X958850Y203200D02*
X952500Y209550D01*
X958850Y203200D02*
X958850Y201613D01*
X965200Y196850D01*
X944563Y212725D02*
X925513Y212725D01*
X925513Y361950D02*
X925513Y509588D01*
X925513Y361950D02*
X925513Y212725D01*
X925513Y509588D02*
X942975Y527050D01*
X952500Y527050D01*
X944563Y212725D02*
X952500Y209550D01*
X533400Y209550D02*
X506413Y209550D01*
X506413Y360363D02*
X506413Y509588D01*
X506413Y360363D02*
X506413Y209550D01*
X506413Y509588D02*
X523875Y527050D01*
X533400Y527050D01*
X215900Y825500D02*
X114300Y723900D01*
X114300Y701675D01*
X113030Y701040D01*
X31750Y368300D02*
X38100Y361950D01*
X31750Y368300D02*
X31750Y463550D01*
X38100Y361950D02*
X38100Y361550D01*
X157163Y220663D02*
X133350Y196850D01*
X157163Y220663D02*
X157163Y515938D01*
X151606Y521494D02*
X133350Y539750D01*
X151606Y521494D02*
X157163Y515938D01*
X157163Y654050D02*
X117475Y693738D01*
X157163Y654050D02*
X157163Y527050D01*
X117475Y693738D02*
X113030Y701040D01*
X157163Y527050D02*
X151606Y521494D01*
X469900Y360363D02*
X506413Y360363D01*
X917575Y361950D02*
X925513Y361950D01*
D31*
X469900Y360363D03*
X917575Y361950D03*
D32*
X1905000Y177800D02*
X1917700Y165100D01*
X1944370Y165100D01*
X1944370Y113665D01*
X1938655Y107950D01*
X1797050Y107950D01*
D33*
X1924050Y698500D02*
X1936750Y711200D01*
D32*
X1924050Y698500D02*
X1917700Y692150D01*
D33*
X1936750Y711200D02*
X1936750Y787400D01*
D32*
X1866900Y787400D02*
X1841500Y812800D01*
X1866900Y787400D02*
X1866900Y749300D01*
X1911350Y704850D01*
X1847850Y641350D01*
X1885950Y196850D02*
X1905000Y177800D01*
X1885950Y196850D02*
X1885950Y577850D01*
X1847850Y615950D01*
D33*
X889000Y603250D02*
X869950Y622300D01*
X869950Y635000D01*
X889000Y654050D01*
D32*
X871538Y671513D01*
X871538Y768350D01*
X870712Y768350D01*
D33*
X495300Y622300D02*
X476250Y603250D01*
X495300Y622300D02*
X495300Y635000D01*
X476250Y654050D01*
X508000Y685800D01*
X508000Y700088D01*
X509270Y701040D01*
X509588Y795338D02*
X558800Y844550D01*
X509588Y795338D02*
X509588Y701675D01*
X509270Y701040D01*
X908050Y279400D02*
X889000Y260350D01*
X908050Y279400D02*
X908050Y292100D01*
X889000Y311150D01*
D32*
X1301750Y603250D02*
X1308100Y603250D01*
D33*
X1301750Y603250D02*
X1289050Y615950D01*
X1289050Y637540D01*
D32*
X1305560Y654050D02*
X1308100Y654050D01*
D33*
X1305560Y654050D02*
X1289050Y637540D01*
D32*
X1304925Y803275D02*
X1301750Y806450D01*
X1304925Y803275D02*
X1314450Y793750D01*
D33*
X1301750Y806450D02*
X1301750Y831850D01*
D32*
X1304925Y657225D02*
X1308100Y654050D01*
X1304925Y657225D02*
X1304925Y803275D01*
D33*
X1665360Y252413D02*
X1677988Y252413D01*
X1665360Y252413D02*
X1661200Y256572D01*
X1327150Y292100D02*
X1308100Y311150D01*
X1327150Y292100D02*
X1327150Y279400D01*
X1308100Y260350D01*
X1308100Y603250D02*
X1300480Y603250D01*
X1285240Y588010D01*
X1285240Y551815D01*
X1296353Y540703D01*
X1327150Y540703D01*
X1327150Y292100D01*
D31*
X1677988Y252413D03*
D32*
X1917700Y698500D02*
X1911350Y704850D01*
X1917700Y698500D02*
X1917700Y692150D01*
D33*
X1365250Y107950D02*
X1365250Y82550D01*
X1609725Y246063D02*
X1609725Y255588D01*
X1609200Y256572D01*
X1365250Y107950D02*
X1346200Y127000D01*
X1346200Y195263D01*
X476250Y577850D02*
X457200Y596900D01*
X457200Y762000D01*
X463550Y768350D01*
X1111250Y584200D02*
X1117600Y577850D01*
X1111250Y584200D02*
X1111250Y628650D01*
X912813Y258763D02*
X889000Y234950D01*
X912813Y258763D02*
X912813Y347663D01*
X904875Y355600D01*
X904875Y381000D01*
X912813Y388938D01*
X912813Y554038D01*
X889000Y577850D01*
X1341438Y200025D02*
X1346200Y195263D01*
X1341438Y200025D02*
X1341438Y544513D01*
X1308100Y577850D01*
D31*
X1609725Y246063D03*
X1346200Y195263D03*
X1117600Y577850D03*
D34*
X717550Y795338D02*
X678815Y756603D01*
X678815Y398780D01*
X941388Y400050D02*
X952500Y411163D01*
X952500Y425450D01*
X717550Y795338D02*
X719074Y796798D01*
D31*
X678815Y398780D03*
X941388Y400050D03*
D34*
X982663Y506413D02*
X982663Y600075D01*
X982663Y506413D02*
X965200Y488950D01*
X952500Y476250D01*
X965200Y488950D02*
X952500Y501650D01*
X890588Y692150D02*
X889000Y692150D01*
D35*
X889000Y692150D03*
D34*
X890588Y692150D02*
X982663Y600075D01*
X746125Y795338D02*
X733425Y782638D01*
X723900Y782638D01*
X692150Y750888D01*
X692150Y239713D01*
X873125Y58738D01*
X952500Y58738D01*
X952500Y82550D01*
X746125Y795338D02*
X746506Y796798D01*
X747713Y739775D02*
X750888Y736600D01*
X750888Y193675D01*
X876300Y68263D01*
X931863Y68263D01*
X931863Y114300D01*
X950913Y133350D01*
X952500Y133350D01*
X747713Y739775D02*
X746506Y739902D01*
X965200Y146050D02*
X952500Y133350D01*
X760413Y727075D02*
X773113Y739775D01*
X760413Y727075D02*
X760413Y671513D01*
X773113Y739775D02*
X774192Y739902D01*
D31*
X760413Y671513D03*
D34*
X769938Y708025D02*
X801688Y739775D01*
X769938Y708025D02*
X769938Y225425D01*
X801688Y739775D02*
X801878Y739902D01*
D31*
X769938Y225425D03*
D34*
X779463Y690563D02*
X828675Y739775D01*
X779463Y690563D02*
X779463Y409575D01*
X828675Y739775D02*
X829310Y739902D01*
D31*
X779463Y409575D03*
D34*
X209550Y414338D02*
X173038Y377825D01*
X173038Y185738D01*
X133350Y146050D01*
D31*
X209550Y414338D03*
D35*
X825500Y684213D03*
D34*
X856996Y715709D01*
X856996Y739902D01*
X773113Y795338D02*
X760413Y782638D01*
X747395Y782638D01*
X747395Y761365D01*
X733425Y747395D01*
X733425Y458788D01*
X773113Y795338D02*
X774192Y796798D01*
D31*
X733425Y458788D03*
D34*
X801688Y796925D02*
X783590Y815023D01*
X665163Y793750D02*
X665163Y573088D01*
X563563Y471488D01*
X563563Y112713D01*
X546100Y95250D01*
X801878Y796798D02*
X801688Y796925D01*
X686435Y815023D02*
X665163Y793750D01*
X686435Y815023D02*
X783590Y815023D01*
X795338Y857250D02*
X855663Y796925D01*
X795338Y857250D02*
X525463Y857250D01*
X525463Y847725D01*
X420688Y742950D01*
X420688Y382588D01*
X133350Y95250D01*
X855663Y796925D02*
X856996Y796798D01*
D36*
X1162050Y796925D02*
X1236663Y871538D01*
X1828800Y871538D01*
X1828800Y581025D01*
X1866900Y542925D01*
X1866900Y304800D01*
X1847850Y285750D01*
X1162050Y796925D02*
X1160526Y796798D01*
X1146175Y782638D02*
X1133475Y795338D01*
X1146175Y782638D02*
X1155700Y782638D01*
X1222375Y715963D01*
X1222375Y369888D01*
X1133475Y795338D02*
X1133094Y796798D01*
D31*
X1222375Y369888D03*
D36*
X1460500Y704850D02*
X1812925Y352425D01*
X1812925Y231775D01*
D31*
X1460500Y704850D03*
X1812925Y231775D03*
D36*
X1160463Y307975D02*
X1160463Y739775D01*
X1160463Y307975D02*
X1143000Y290513D01*
X1160463Y739775D02*
X1160526Y739902D01*
D31*
X1143000Y290513D03*
D36*
X1474788Y698500D02*
X1819275Y354013D01*
X1819275Y254000D01*
D31*
X1474788Y698500D03*
X1819275Y254000D03*
D36*
X1123950Y718503D02*
X1105408Y737045D01*
X1105408Y739902D01*
X1123950Y718503D02*
X1123950Y304800D01*
D31*
X1123950Y304800D03*
D36*
X1095375Y795338D02*
X1077913Y795338D01*
X1095375Y795338D02*
X1095375Y792163D01*
X1108075Y779463D01*
X1154113Y779463D01*
X1214438Y719138D01*
X1214438Y700088D01*
X1077913Y795338D02*
X1077722Y796798D01*
D31*
X1214438Y700088D03*
D36*
X1066800Y812800D02*
X1050925Y796925D01*
X1156970Y786130D02*
X1270000Y673100D01*
X1270000Y648970D01*
X1275080Y643890D01*
X1050925Y796925D02*
X1050290Y796798D01*
D31*
X1275080Y643890D03*
D36*
X1156970Y786130D02*
X1150620Y786130D01*
X1145540Y791210D01*
X1145540Y806450D01*
X1139190Y812800D01*
X1066800Y812800D01*
X1071563Y768350D02*
X1091406Y748506D01*
X1071563Y768350D02*
X1064006Y768350D01*
X1097915Y307340D02*
X1095375Y304800D01*
D31*
X1095375Y304800D03*
D36*
X1091406Y731044D02*
X1091406Y748506D01*
X1097915Y724535D02*
X1097915Y307340D01*
X1097915Y724535D02*
X1091406Y731044D01*
X1503363Y96838D02*
X1517650Y82550D01*
X1503363Y96838D02*
X1503363Y142875D01*
X1417638Y228600D01*
X1417638Y736600D01*
D31*
X1417638Y736600D03*
D36*
X1427163Y249238D02*
X1568450Y107950D01*
X1427163Y249238D02*
X1427163Y795020D01*
D31*
X1427163Y795020D03*
D36*
X1423988Y227013D02*
X1543050Y107950D01*
X1423988Y227013D02*
X1423988Y781050D01*
X1387475Y817563D01*
D31*
X1387475Y817563D03*
D36*
X1050925Y298450D02*
X1084263Y265113D01*
X1050925Y298450D02*
X1050925Y650875D01*
X1025525Y676275D01*
X1025525Y723583D01*
X1035050Y733108D01*
X1035050Y768350D01*
X1036320Y768350D01*
D31*
X1084263Y265113D03*
D36*
X1047750Y120650D02*
X1109663Y58738D01*
X1047750Y120650D02*
X1047750Y182563D01*
X1019175Y211138D01*
X1019175Y723583D01*
X1009650Y733108D01*
X1009650Y768350D01*
X1008888Y768350D01*
D31*
X1109663Y58738D03*
D36*
X1503363Y42863D02*
X1543050Y82550D01*
X1503363Y42863D02*
X1044575Y42863D01*
X1044575Y174625D01*
X993775Y225425D01*
X993775Y720408D01*
X982663Y731520D01*
X982663Y768350D01*
X981202Y768350D01*
D33*
X953453Y710248D02*
X984250Y679450D01*
X953453Y710248D02*
X953453Y746760D01*
X940435Y759778D01*
X940435Y777240D01*
X936625Y781050D01*
X900430Y781050D02*
X884682Y796798D01*
X900430Y781050D02*
X936625Y781050D01*
X1035050Y679450D02*
X1039813Y684213D01*
X1039813Y750888D01*
X1050290Y761365D01*
X1050290Y775335D01*
X920750Y812800D02*
X912114Y804164D01*
X912114Y796798D01*
X1028700Y812800D02*
X1035050Y806450D01*
X1028700Y812800D02*
X920750Y812800D01*
X1035050Y790575D02*
X1050290Y775335D01*
X1035050Y790575D02*
X1035050Y806450D01*
D30*
X1035050Y501650D02*
X1035050Y333375D01*
X1035050Y215900D01*
X615950Y330200D02*
X615950Y501650D01*
X615950Y330200D02*
X615950Y215900D01*
X68263Y342900D02*
X38100Y312738D01*
X68263Y342900D02*
X68263Y477838D01*
X31750Y514350D01*
X38100Y312738D02*
X38100Y311550D01*
X34925Y593725D02*
X38100Y596900D01*
X34925Y593725D02*
X34925Y522288D01*
X38100Y596900D02*
X38100Y597300D01*
X34925Y522288D02*
X31750Y514350D01*
X612775Y330200D02*
X615950Y330200D01*
X1031875Y333375D02*
X1035050Y333375D01*
D31*
X1035050Y215900D03*
X1035050Y501650D03*
X615950Y215900D03*
X615950Y501650D03*
X612775Y330200D03*
X1031875Y333375D03*
D33*
X1308100Y133350D02*
X1328738Y153988D01*
X1328738Y274638D01*
X1335088Y280988D01*
X1335088Y446088D01*
D31*
X1335088Y446088D03*
D33*
X1390650Y409575D02*
X1390650Y107950D01*
D31*
X1390650Y409575D03*
D33*
X1401763Y93663D02*
X1390650Y82550D01*
X1401763Y93663D02*
X1401763Y376238D01*
X1398588Y379413D01*
X1398588Y387350D01*
X1408113Y396875D01*
X1408113Y519113D01*
D31*
X1408113Y519113D03*
D33*
X1416050Y82550D02*
X1401763Y68263D01*
X1335088Y68263D01*
X1335088Y182563D01*
D31*
X1335088Y182563D03*
D36*
X1282700Y422275D02*
X1092200Y231775D01*
D31*
X1092200Y231775D03*
X1282700Y422275D03*
D36*
X1749425Y46038D02*
X1785938Y82550D01*
X1785938Y192088D01*
X1828800Y234950D01*
X1828800Y368300D01*
X1847850Y387350D01*
D31*
X1749425Y46038D03*
D36*
X1762125Y173038D02*
X1825625Y236538D01*
X1825625Y466725D01*
X1847850Y488950D01*
D31*
X1762125Y173038D03*
D33*
X928688Y173038D02*
X889000Y133350D01*
X928688Y173038D02*
X939800Y173038D01*
X941388Y171450D01*
X987425Y171450D01*
X987425Y471488D01*
D31*
X987425Y471488D03*
D33*
X514350Y95250D02*
X476250Y133350D01*
X514350Y95250D02*
X514350Y77788D01*
X520700Y71438D01*
X598488Y71438D01*
X598488Y414338D01*
X1400175Y396875D02*
X1401763Y398463D01*
X1401763Y620713D01*
D31*
X598488Y414338D03*
X1400175Y396875D03*
X1401763Y620713D03*
D33*
X906463Y407988D02*
X889000Y425450D01*
X906463Y407988D02*
X906463Y390525D01*
X1404938Y381000D02*
X1412875Y373063D01*
X1412875Y136525D01*
X1441450Y107950D01*
D31*
X906463Y390525D03*
X1404938Y381000D03*
D33*
X889000Y552450D02*
X863600Y527050D01*
X863600Y304800D01*
X1414463Y125413D02*
X1430338Y109538D01*
X1430338Y93663D01*
X1441450Y82550D01*
D31*
X863600Y304800D03*
X1414463Y125413D03*
D33*
X1455738Y80963D02*
X1427163Y52388D01*
X1455738Y80963D02*
X1455738Y96838D01*
X1466850Y107950D01*
D31*
X1427163Y52388D03*
D33*
X490538Y411163D02*
X476250Y425450D01*
X490538Y411163D02*
X490538Y395288D01*
X1701800Y317500D02*
X1733550Y285750D01*
X1733550Y95250D01*
X1720850Y82550D01*
D31*
X490538Y395288D03*
X1701800Y317500D03*
D33*
X476250Y552450D02*
X452438Y528638D01*
X452438Y84138D01*
X508000Y28575D01*
X1709738Y28575D01*
X1709738Y88900D01*
X1720850Y100013D01*
X1720850Y107950D01*
X525463Y33338D02*
X476250Y82550D01*
X525463Y33338D02*
X1695450Y33338D01*
X1695450Y82550D01*
X755650Y166688D02*
X698500Y166688D01*
X755650Y166688D02*
X884238Y38100D01*
X1644650Y38100D01*
X1644650Y41275D01*
X1684338Y80963D01*
X1684338Y96838D01*
X1695450Y107950D01*
D31*
X698500Y166688D03*
D36*
X1627188Y236538D02*
X1627188Y255588D01*
X1627188Y236538D02*
X1619250Y228600D01*
X1627188Y255588D02*
X1628700Y256572D01*
X1706563Y93663D02*
X1704975Y92075D01*
X1706563Y93663D02*
X1706563Y141288D01*
X1619250Y228600D01*
D31*
X1704975Y92075D03*
D36*
X1620838Y257175D02*
X1620838Y267970D01*
X1595438Y257175D02*
X1593850Y255588D01*
X1593850Y228600D01*
X1620838Y257175D02*
X1622200Y256572D01*
X1630363Y82550D02*
X1647825Y65088D01*
X1630363Y82550D02*
X1630363Y144463D01*
X1593850Y180975D01*
X1593850Y228600D01*
D31*
X1620838Y267970D03*
X1595438Y257175D03*
X1647825Y65088D03*
D36*
X1603375Y223838D02*
X1603375Y255588D01*
X1603375Y223838D02*
X1606550Y220663D01*
X1603375Y255588D02*
X1602700Y256572D01*
X1655763Y79375D02*
X1663700Y71438D01*
X1655763Y79375D02*
X1655763Y123825D01*
X1606550Y173038D01*
X1606550Y220663D01*
D31*
X1606550Y220663D03*
X1663700Y71438D03*
D36*
X1614488Y257175D02*
X1614488Y261938D01*
X1611313Y265113D01*
X1568450Y265113D01*
X1568450Y228600D01*
X1614488Y257175D02*
X1615700Y256572D01*
X1604963Y107950D02*
X1617663Y95250D01*
X1604963Y107950D02*
X1604963Y165100D01*
X1568450Y201613D01*
X1568450Y228600D01*
D31*
X1617663Y95250D03*
D36*
X1636713Y236538D02*
X1636713Y255588D01*
X1636713Y236538D02*
X1644650Y228600D01*
X1636713Y255588D02*
X1635200Y256572D01*
X1643063Y257175D02*
X1643063Y267970D01*
X1643063Y257175D02*
X1641700Y256572D01*
D31*
X1643063Y267970D03*
D36*
X1611313Y312738D02*
X1609725Y314325D01*
X1611313Y312738D02*
X1611313Y304800D01*
X1868488Y298450D02*
X1881188Y285750D01*
X1881188Y160338D01*
X1901825Y139700D01*
X1930400Y139700D01*
X1930400Y127000D01*
X1609725Y314325D02*
X1609200Y314928D01*
D31*
X1611313Y304800D03*
X1868488Y298450D03*
D36*
X1308100Y450850D02*
X1289050Y469900D01*
X1289050Y508000D01*
X1308100Y527050D01*
X1289050Y127000D02*
X1308100Y107950D01*
X1289050Y127000D02*
X1289050Y165100D01*
X1308100Y184150D01*
X1579563Y93663D02*
X1593850Y107950D01*
X1579563Y93663D02*
X1528763Y93663D01*
X1528763Y79375D01*
X1495425Y46038D01*
X1327150Y46038D01*
X1327150Y88900D01*
X1308100Y107950D01*
X1289050Y431800D02*
X1308100Y450850D01*
X1289050Y431800D02*
X1289050Y165100D01*
X476250Y107950D02*
X457200Y127000D01*
X457200Y165100D01*
X476250Y184150D01*
X476250Y450850D02*
X457200Y469900D01*
X457200Y508000D01*
X476250Y527050D01*
X457200Y203200D02*
X476250Y184150D01*
X457200Y203200D02*
X457200Y469900D01*
X869950Y127000D02*
X889000Y107950D01*
X869950Y127000D02*
X869950Y165100D01*
X889000Y184150D01*
X889000Y450850D02*
X869950Y469900D01*
X869950Y508000D01*
X889000Y527050D01*
X869950Y203200D02*
X889000Y184150D01*
X869950Y203200D02*
X869950Y469900D01*
X1603375Y377825D02*
X1603375Y361950D01*
X1603375Y315913D01*
X1603375Y377825D02*
X1598613Y382588D01*
X1543050Y382588D01*
X1543050Y342900D01*
X1602700Y314928D02*
X1603375Y315913D01*
D31*
X1603375Y361950D03*
D36*
X1614488Y320675D02*
X1614488Y315913D01*
X1614488Y320675D02*
X1609725Y325438D01*
X1614488Y315913D02*
X1615700Y314928D01*
D31*
X1609725Y325438D03*
D36*
X1620838Y314325D02*
X1620838Y306388D01*
X1612900Y298450D01*
X1593850Y298450D01*
X1593850Y342900D01*
X1620838Y314325D02*
X1622200Y314928D01*
X1593850Y373063D02*
X1597025Y376238D01*
X1593850Y373063D02*
X1593850Y342900D01*
D31*
X1597025Y376238D03*
D36*
X1627188Y334963D02*
X1627188Y315913D01*
X1627188Y334963D02*
X1619250Y342900D01*
X1627188Y315913D02*
X1628700Y314928D01*
X1636713Y315913D02*
X1636713Y334963D01*
X1644650Y342900D01*
X1636713Y315913D02*
X1635200Y314928D01*
X1644650Y342900D02*
X1663700Y361950D01*
X1798638Y361950D01*
X1798638Y254000D01*
D31*
X1798638Y254000D03*
D36*
X1643063Y315913D02*
X1643063Y320675D01*
X1665288Y342900D01*
X1670050Y342900D01*
X1643063Y315913D02*
X1641700Y314928D01*
X1649413Y255588D02*
X1649413Y247650D01*
X1657350Y239713D01*
X1660525Y239713D01*
X1665288Y244475D01*
X1695450Y244475D01*
X1695450Y228600D01*
X1649413Y255588D02*
X1648200Y256572D01*
X1384300Y812800D02*
X1365250Y831850D01*
X1384300Y812800D02*
X1384300Y228600D01*
X1365250Y209550D01*
X1655763Y257175D02*
X1657350Y258763D01*
X1657350Y263525D01*
X1658938Y265113D01*
X1711325Y265113D01*
X1711325Y238125D01*
X1720850Y228600D01*
X1655763Y257175D02*
X1654700Y256572D01*
X1346200Y838200D02*
X1365250Y857250D01*
X1346200Y838200D02*
X1346200Y203200D01*
X1365250Y184150D01*
X1649413Y309563D02*
X1649413Y314325D01*
X1649413Y309563D02*
X1673225Y285750D01*
X1695450Y285750D01*
X1695450Y342900D01*
X1649413Y314325D02*
X1648200Y314928D01*
X1695450Y285750D02*
X1727200Y254000D01*
D31*
X1727200Y254000D03*
D36*
X1657350Y317500D02*
X1655763Y315913D01*
X1657350Y317500D02*
X1657350Y322263D01*
X1662113Y327025D01*
X1685925Y327025D01*
X1685925Y354013D01*
X1690688Y358775D01*
X1720850Y358775D01*
X1720850Y342900D01*
X1655763Y315913D02*
X1654700Y314928D01*
X1662113Y314325D02*
X1684338Y292100D01*
X1662113Y314325D02*
X1661200Y314928D01*
D31*
X1684338Y292100D03*
D36*
X1917700Y717550D02*
X1871663Y763588D01*
X1871663Y808038D01*
X1841500Y838200D01*
D33*
X1339850Y717550D02*
X1314450Y742950D01*
X1339850Y717550D02*
X1339850Y700088D01*
D31*
X1339850Y700088D03*
D36*
X1314450Y768350D02*
X1327150Y781050D01*
X1327150Y831850D01*
X1493838Y868363D02*
X1847850Y514350D01*
X1493838Y868363D02*
X1327150Y868363D01*
X1327150Y831850D01*
M02*
