G04 EAGLE Gerber RS-274X export*
G75*
%MOMM*%
%FSLAX34Y34*%
%LPD*%
%INMill Layer*%
%IPPOS*%
%AMOC8*
5,1,8,0,0,1.08239X$1,22.5*%
G01*
%ADD10C,0.000000*%
%ADD11C,0.254000*%


D10*
X1688900Y898400D02*
X50800Y898400D01*
X49572Y898385D01*
X48346Y898341D01*
X47120Y898267D01*
X45897Y898163D01*
X44677Y898030D01*
X43460Y897867D01*
X42247Y897675D01*
X41040Y897454D01*
X39838Y897203D01*
X38643Y896924D01*
X37454Y896616D01*
X36274Y896279D01*
X35102Y895914D01*
X33939Y895520D01*
X32786Y895099D01*
X31644Y894650D01*
X30512Y894173D01*
X29393Y893669D01*
X28286Y893138D01*
X27192Y892581D01*
X26112Y891998D01*
X25046Y891388D01*
X23996Y890753D01*
X22961Y890093D01*
X21942Y889408D01*
X20941Y888698D01*
X19956Y887965D01*
X18990Y887207D01*
X18042Y886427D01*
X17113Y885624D01*
X16204Y884799D01*
X15316Y883952D01*
X14448Y883084D01*
X13601Y882196D01*
X12776Y881287D01*
X11973Y880358D01*
X11193Y879410D01*
X10435Y878444D01*
X9702Y877459D01*
X8992Y876458D01*
X8307Y875439D01*
X7647Y874404D01*
X7012Y873354D01*
X6402Y872288D01*
X5819Y871208D01*
X5262Y870114D01*
X4731Y869007D01*
X4227Y867888D01*
X3750Y866756D01*
X3301Y865614D01*
X2880Y864461D01*
X2486Y863298D01*
X2121Y862126D01*
X1784Y860946D01*
X1476Y859757D01*
X1197Y858562D01*
X946Y857360D01*
X725Y856153D01*
X533Y854940D01*
X370Y853723D01*
X237Y852503D01*
X133Y851280D01*
X59Y850054D01*
X15Y848828D01*
X0Y847600D01*
X0Y50800D01*
X15Y49572D01*
X59Y48346D01*
X133Y47120D01*
X237Y45897D01*
X370Y44677D01*
X533Y43460D01*
X725Y42247D01*
X946Y41040D01*
X1197Y39838D01*
X1476Y38643D01*
X1784Y37454D01*
X2121Y36274D01*
X2486Y35102D01*
X2880Y33939D01*
X3301Y32786D01*
X3750Y31644D01*
X4227Y30512D01*
X4731Y29393D01*
X5262Y28286D01*
X5819Y27192D01*
X6402Y26112D01*
X7012Y25046D01*
X7647Y23996D01*
X8307Y22961D01*
X8992Y21942D01*
X9702Y20941D01*
X10435Y19956D01*
X11193Y18990D01*
X11973Y18042D01*
X12776Y17113D01*
X13601Y16204D01*
X14448Y15316D01*
X15316Y14448D01*
X16204Y13601D01*
X17113Y12776D01*
X18042Y11973D01*
X18990Y11193D01*
X19956Y10435D01*
X20941Y9702D01*
X21942Y8992D01*
X22961Y8307D01*
X23996Y7647D01*
X25046Y7012D01*
X26112Y6402D01*
X27192Y5819D01*
X28286Y5262D01*
X29393Y4731D01*
X30512Y4227D01*
X31644Y3750D01*
X32786Y3301D01*
X33939Y2880D01*
X35102Y2486D01*
X36274Y2121D01*
X37454Y1784D01*
X38643Y1476D01*
X39838Y1197D01*
X41040Y946D01*
X42247Y725D01*
X43460Y533D01*
X44677Y370D01*
X45897Y237D01*
X47120Y133D01*
X48346Y59D01*
X49572Y15D01*
X50800Y0D01*
X1688900Y0D01*
X1690128Y15D01*
X1691354Y59D01*
X1692580Y133D01*
X1693803Y237D01*
X1695023Y370D01*
X1696240Y533D01*
X1697453Y725D01*
X1698660Y946D01*
X1699862Y1197D01*
X1701057Y1476D01*
X1702246Y1784D01*
X1703426Y2121D01*
X1704598Y2486D01*
X1705761Y2880D01*
X1706914Y3301D01*
X1708056Y3750D01*
X1709188Y4227D01*
X1710307Y4731D01*
X1711414Y5262D01*
X1712508Y5819D01*
X1713588Y6402D01*
X1714654Y7012D01*
X1715704Y7647D01*
X1716739Y8307D01*
X1717758Y8992D01*
X1718759Y9702D01*
X1719744Y10435D01*
X1720710Y11193D01*
X1721658Y11973D01*
X1722587Y12776D01*
X1723496Y13601D01*
X1724384Y14448D01*
X1725252Y15316D01*
X1726099Y16204D01*
X1726924Y17113D01*
X1727727Y18042D01*
X1728507Y18990D01*
X1729265Y19956D01*
X1729998Y20941D01*
X1730708Y21942D01*
X1731393Y22961D01*
X1732053Y23996D01*
X1732688Y25046D01*
X1733298Y26112D01*
X1733881Y27192D01*
X1734438Y28286D01*
X1734969Y29393D01*
X1735473Y30512D01*
X1735950Y31644D01*
X1736399Y32786D01*
X1736820Y33939D01*
X1737214Y35102D01*
X1737579Y36274D01*
X1737916Y37454D01*
X1738224Y38643D01*
X1738503Y39838D01*
X1738754Y41040D01*
X1738975Y42247D01*
X1739167Y43460D01*
X1739330Y44677D01*
X1739463Y45897D01*
X1739567Y47120D01*
X1739641Y48346D01*
X1739685Y49572D01*
X1739700Y50800D01*
X1739700Y847600D01*
X1739685Y848828D01*
X1739641Y850054D01*
X1739567Y851280D01*
X1739463Y852503D01*
X1739330Y853723D01*
X1739167Y854940D01*
X1738975Y856153D01*
X1738754Y857360D01*
X1738503Y858562D01*
X1738224Y859757D01*
X1737916Y860946D01*
X1737579Y862126D01*
X1737214Y863298D01*
X1736820Y864461D01*
X1736399Y865614D01*
X1735950Y866756D01*
X1735473Y867888D01*
X1734969Y869007D01*
X1734438Y870114D01*
X1733881Y871208D01*
X1733298Y872288D01*
X1732688Y873354D01*
X1732053Y874404D01*
X1731393Y875439D01*
X1730708Y876458D01*
X1729998Y877459D01*
X1729265Y878444D01*
X1728507Y879410D01*
X1727727Y880358D01*
X1726924Y881287D01*
X1726099Y882196D01*
X1725252Y883084D01*
X1724384Y883952D01*
X1723496Y884799D01*
X1722587Y885624D01*
X1721658Y886427D01*
X1720710Y887207D01*
X1719744Y887965D01*
X1718759Y888698D01*
X1717758Y889408D01*
X1716739Y890093D01*
X1715704Y890753D01*
X1714654Y891388D01*
X1713588Y891998D01*
X1712508Y892581D01*
X1711414Y893138D01*
X1710307Y893669D01*
X1709188Y894173D01*
X1708056Y894650D01*
X1706914Y895099D01*
X1705761Y895520D01*
X1704598Y895914D01*
X1703426Y896279D01*
X1702246Y896616D01*
X1701057Y896924D01*
X1699862Y897203D01*
X1698660Y897454D01*
X1697453Y897675D01*
X1696240Y897867D01*
X1695023Y898030D01*
X1693803Y898163D01*
X1692580Y898267D01*
X1691354Y898341D01*
X1690128Y898385D01*
X1688900Y898400D01*
X1680450Y857250D02*
X1680455Y857618D01*
X1680468Y857986D01*
X1680491Y858353D01*
X1680522Y858720D01*
X1680563Y859086D01*
X1680612Y859451D01*
X1680671Y859814D01*
X1680738Y860176D01*
X1680814Y860537D01*
X1680900Y860895D01*
X1680993Y861251D01*
X1681096Y861604D01*
X1681207Y861955D01*
X1681327Y862303D01*
X1681455Y862648D01*
X1681592Y862990D01*
X1681737Y863329D01*
X1681890Y863663D01*
X1682052Y863994D01*
X1682221Y864321D01*
X1682399Y864643D01*
X1682584Y864962D01*
X1682777Y865275D01*
X1682978Y865584D01*
X1683186Y865887D01*
X1683402Y866185D01*
X1683625Y866478D01*
X1683855Y866766D01*
X1684092Y867048D01*
X1684336Y867323D01*
X1684586Y867593D01*
X1684843Y867857D01*
X1685107Y868114D01*
X1685377Y868364D01*
X1685652Y868608D01*
X1685934Y868845D01*
X1686222Y869075D01*
X1686515Y869298D01*
X1686813Y869514D01*
X1687116Y869722D01*
X1687425Y869923D01*
X1687738Y870116D01*
X1688057Y870301D01*
X1688379Y870479D01*
X1688706Y870648D01*
X1689037Y870810D01*
X1689371Y870963D01*
X1689710Y871108D01*
X1690052Y871245D01*
X1690397Y871373D01*
X1690745Y871493D01*
X1691096Y871604D01*
X1691449Y871707D01*
X1691805Y871800D01*
X1692163Y871886D01*
X1692524Y871962D01*
X1692886Y872029D01*
X1693249Y872088D01*
X1693614Y872137D01*
X1693980Y872178D01*
X1694347Y872209D01*
X1694714Y872232D01*
X1695082Y872245D01*
X1695450Y872250D01*
X1695818Y872245D01*
X1696186Y872232D01*
X1696553Y872209D01*
X1696920Y872178D01*
X1697286Y872137D01*
X1697651Y872088D01*
X1698014Y872029D01*
X1698376Y871962D01*
X1698737Y871886D01*
X1699095Y871800D01*
X1699451Y871707D01*
X1699804Y871604D01*
X1700155Y871493D01*
X1700503Y871373D01*
X1700848Y871245D01*
X1701190Y871108D01*
X1701529Y870963D01*
X1701863Y870810D01*
X1702194Y870648D01*
X1702521Y870479D01*
X1702843Y870301D01*
X1703162Y870116D01*
X1703475Y869923D01*
X1703784Y869722D01*
X1704087Y869514D01*
X1704385Y869298D01*
X1704678Y869075D01*
X1704966Y868845D01*
X1705248Y868608D01*
X1705523Y868364D01*
X1705793Y868114D01*
X1706057Y867857D01*
X1706314Y867593D01*
X1706564Y867323D01*
X1706808Y867048D01*
X1707045Y866766D01*
X1707275Y866478D01*
X1707498Y866185D01*
X1707714Y865887D01*
X1707922Y865584D01*
X1708123Y865275D01*
X1708316Y864962D01*
X1708501Y864643D01*
X1708679Y864321D01*
X1708848Y863994D01*
X1709010Y863663D01*
X1709163Y863329D01*
X1709308Y862990D01*
X1709445Y862648D01*
X1709573Y862303D01*
X1709693Y861955D01*
X1709804Y861604D01*
X1709907Y861251D01*
X1710000Y860895D01*
X1710086Y860537D01*
X1710162Y860176D01*
X1710229Y859814D01*
X1710288Y859451D01*
X1710337Y859086D01*
X1710378Y858720D01*
X1710409Y858353D01*
X1710432Y857986D01*
X1710445Y857618D01*
X1710450Y857250D01*
X1710445Y856882D01*
X1710432Y856514D01*
X1710409Y856147D01*
X1710378Y855780D01*
X1710337Y855414D01*
X1710288Y855049D01*
X1710229Y854686D01*
X1710162Y854324D01*
X1710086Y853963D01*
X1710000Y853605D01*
X1709907Y853249D01*
X1709804Y852896D01*
X1709693Y852545D01*
X1709573Y852197D01*
X1709445Y851852D01*
X1709308Y851510D01*
X1709163Y851171D01*
X1709010Y850837D01*
X1708848Y850506D01*
X1708679Y850179D01*
X1708501Y849857D01*
X1708316Y849538D01*
X1708123Y849225D01*
X1707922Y848916D01*
X1707714Y848613D01*
X1707498Y848315D01*
X1707275Y848022D01*
X1707045Y847734D01*
X1706808Y847452D01*
X1706564Y847177D01*
X1706314Y846907D01*
X1706057Y846643D01*
X1705793Y846386D01*
X1705523Y846136D01*
X1705248Y845892D01*
X1704966Y845655D01*
X1704678Y845425D01*
X1704385Y845202D01*
X1704087Y844986D01*
X1703784Y844778D01*
X1703475Y844577D01*
X1703162Y844384D01*
X1702843Y844199D01*
X1702521Y844021D01*
X1702194Y843852D01*
X1701863Y843690D01*
X1701529Y843537D01*
X1701190Y843392D01*
X1700848Y843255D01*
X1700503Y843127D01*
X1700155Y843007D01*
X1699804Y842896D01*
X1699451Y842793D01*
X1699095Y842700D01*
X1698737Y842614D01*
X1698376Y842538D01*
X1698014Y842471D01*
X1697651Y842412D01*
X1697286Y842363D01*
X1696920Y842322D01*
X1696553Y842291D01*
X1696186Y842268D01*
X1695818Y842255D01*
X1695450Y842250D01*
X1695082Y842255D01*
X1694714Y842268D01*
X1694347Y842291D01*
X1693980Y842322D01*
X1693614Y842363D01*
X1693249Y842412D01*
X1692886Y842471D01*
X1692524Y842538D01*
X1692163Y842614D01*
X1691805Y842700D01*
X1691449Y842793D01*
X1691096Y842896D01*
X1690745Y843007D01*
X1690397Y843127D01*
X1690052Y843255D01*
X1689710Y843392D01*
X1689371Y843537D01*
X1689037Y843690D01*
X1688706Y843852D01*
X1688379Y844021D01*
X1688057Y844199D01*
X1687738Y844384D01*
X1687425Y844577D01*
X1687116Y844778D01*
X1686813Y844986D01*
X1686515Y845202D01*
X1686222Y845425D01*
X1685934Y845655D01*
X1685652Y845892D01*
X1685377Y846136D01*
X1685107Y846386D01*
X1684843Y846643D01*
X1684586Y846907D01*
X1684336Y847177D01*
X1684092Y847452D01*
X1683855Y847734D01*
X1683625Y848022D01*
X1683402Y848315D01*
X1683186Y848613D01*
X1682978Y848916D01*
X1682777Y849225D01*
X1682584Y849538D01*
X1682399Y849857D01*
X1682221Y850179D01*
X1682052Y850506D01*
X1681890Y850837D01*
X1681737Y851171D01*
X1681592Y851510D01*
X1681455Y851852D01*
X1681327Y852197D01*
X1681207Y852545D01*
X1681096Y852896D01*
X1680993Y853249D01*
X1680900Y853605D01*
X1680814Y853963D01*
X1680738Y854324D01*
X1680671Y854686D01*
X1680612Y855049D01*
X1680563Y855414D01*
X1680522Y855780D01*
X1680491Y856147D01*
X1680468Y856514D01*
X1680455Y856882D01*
X1680450Y857250D01*
X1680450Y44450D02*
X1680455Y44818D01*
X1680468Y45186D01*
X1680491Y45553D01*
X1680522Y45920D01*
X1680563Y46286D01*
X1680612Y46651D01*
X1680671Y47014D01*
X1680738Y47376D01*
X1680814Y47737D01*
X1680900Y48095D01*
X1680993Y48451D01*
X1681096Y48804D01*
X1681207Y49155D01*
X1681327Y49503D01*
X1681455Y49848D01*
X1681592Y50190D01*
X1681737Y50529D01*
X1681890Y50863D01*
X1682052Y51194D01*
X1682221Y51521D01*
X1682399Y51843D01*
X1682584Y52162D01*
X1682777Y52475D01*
X1682978Y52784D01*
X1683186Y53087D01*
X1683402Y53385D01*
X1683625Y53678D01*
X1683855Y53966D01*
X1684092Y54248D01*
X1684336Y54523D01*
X1684586Y54793D01*
X1684843Y55057D01*
X1685107Y55314D01*
X1685377Y55564D01*
X1685652Y55808D01*
X1685934Y56045D01*
X1686222Y56275D01*
X1686515Y56498D01*
X1686813Y56714D01*
X1687116Y56922D01*
X1687425Y57123D01*
X1687738Y57316D01*
X1688057Y57501D01*
X1688379Y57679D01*
X1688706Y57848D01*
X1689037Y58010D01*
X1689371Y58163D01*
X1689710Y58308D01*
X1690052Y58445D01*
X1690397Y58573D01*
X1690745Y58693D01*
X1691096Y58804D01*
X1691449Y58907D01*
X1691805Y59000D01*
X1692163Y59086D01*
X1692524Y59162D01*
X1692886Y59229D01*
X1693249Y59288D01*
X1693614Y59337D01*
X1693980Y59378D01*
X1694347Y59409D01*
X1694714Y59432D01*
X1695082Y59445D01*
X1695450Y59450D01*
X1695818Y59445D01*
X1696186Y59432D01*
X1696553Y59409D01*
X1696920Y59378D01*
X1697286Y59337D01*
X1697651Y59288D01*
X1698014Y59229D01*
X1698376Y59162D01*
X1698737Y59086D01*
X1699095Y59000D01*
X1699451Y58907D01*
X1699804Y58804D01*
X1700155Y58693D01*
X1700503Y58573D01*
X1700848Y58445D01*
X1701190Y58308D01*
X1701529Y58163D01*
X1701863Y58010D01*
X1702194Y57848D01*
X1702521Y57679D01*
X1702843Y57501D01*
X1703162Y57316D01*
X1703475Y57123D01*
X1703784Y56922D01*
X1704087Y56714D01*
X1704385Y56498D01*
X1704678Y56275D01*
X1704966Y56045D01*
X1705248Y55808D01*
X1705523Y55564D01*
X1705793Y55314D01*
X1706057Y55057D01*
X1706314Y54793D01*
X1706564Y54523D01*
X1706808Y54248D01*
X1707045Y53966D01*
X1707275Y53678D01*
X1707498Y53385D01*
X1707714Y53087D01*
X1707922Y52784D01*
X1708123Y52475D01*
X1708316Y52162D01*
X1708501Y51843D01*
X1708679Y51521D01*
X1708848Y51194D01*
X1709010Y50863D01*
X1709163Y50529D01*
X1709308Y50190D01*
X1709445Y49848D01*
X1709573Y49503D01*
X1709693Y49155D01*
X1709804Y48804D01*
X1709907Y48451D01*
X1710000Y48095D01*
X1710086Y47737D01*
X1710162Y47376D01*
X1710229Y47014D01*
X1710288Y46651D01*
X1710337Y46286D01*
X1710378Y45920D01*
X1710409Y45553D01*
X1710432Y45186D01*
X1710445Y44818D01*
X1710450Y44450D01*
X1710445Y44082D01*
X1710432Y43714D01*
X1710409Y43347D01*
X1710378Y42980D01*
X1710337Y42614D01*
X1710288Y42249D01*
X1710229Y41886D01*
X1710162Y41524D01*
X1710086Y41163D01*
X1710000Y40805D01*
X1709907Y40449D01*
X1709804Y40096D01*
X1709693Y39745D01*
X1709573Y39397D01*
X1709445Y39052D01*
X1709308Y38710D01*
X1709163Y38371D01*
X1709010Y38037D01*
X1708848Y37706D01*
X1708679Y37379D01*
X1708501Y37057D01*
X1708316Y36738D01*
X1708123Y36425D01*
X1707922Y36116D01*
X1707714Y35813D01*
X1707498Y35515D01*
X1707275Y35222D01*
X1707045Y34934D01*
X1706808Y34652D01*
X1706564Y34377D01*
X1706314Y34107D01*
X1706057Y33843D01*
X1705793Y33586D01*
X1705523Y33336D01*
X1705248Y33092D01*
X1704966Y32855D01*
X1704678Y32625D01*
X1704385Y32402D01*
X1704087Y32186D01*
X1703784Y31978D01*
X1703475Y31777D01*
X1703162Y31584D01*
X1702843Y31399D01*
X1702521Y31221D01*
X1702194Y31052D01*
X1701863Y30890D01*
X1701529Y30737D01*
X1701190Y30592D01*
X1700848Y30455D01*
X1700503Y30327D01*
X1700155Y30207D01*
X1699804Y30096D01*
X1699451Y29993D01*
X1699095Y29900D01*
X1698737Y29814D01*
X1698376Y29738D01*
X1698014Y29671D01*
X1697651Y29612D01*
X1697286Y29563D01*
X1696920Y29522D01*
X1696553Y29491D01*
X1696186Y29468D01*
X1695818Y29455D01*
X1695450Y29450D01*
X1695082Y29455D01*
X1694714Y29468D01*
X1694347Y29491D01*
X1693980Y29522D01*
X1693614Y29563D01*
X1693249Y29612D01*
X1692886Y29671D01*
X1692524Y29738D01*
X1692163Y29814D01*
X1691805Y29900D01*
X1691449Y29993D01*
X1691096Y30096D01*
X1690745Y30207D01*
X1690397Y30327D01*
X1690052Y30455D01*
X1689710Y30592D01*
X1689371Y30737D01*
X1689037Y30890D01*
X1688706Y31052D01*
X1688379Y31221D01*
X1688057Y31399D01*
X1687738Y31584D01*
X1687425Y31777D01*
X1687116Y31978D01*
X1686813Y32186D01*
X1686515Y32402D01*
X1686222Y32625D01*
X1685934Y32855D01*
X1685652Y33092D01*
X1685377Y33336D01*
X1685107Y33586D01*
X1684843Y33843D01*
X1684586Y34107D01*
X1684336Y34377D01*
X1684092Y34652D01*
X1683855Y34934D01*
X1683625Y35222D01*
X1683402Y35515D01*
X1683186Y35813D01*
X1682978Y36116D01*
X1682777Y36425D01*
X1682584Y36738D01*
X1682399Y37057D01*
X1682221Y37379D01*
X1682052Y37706D01*
X1681890Y38037D01*
X1681737Y38371D01*
X1681592Y38710D01*
X1681455Y39052D01*
X1681327Y39397D01*
X1681207Y39745D01*
X1681096Y40096D01*
X1680993Y40449D01*
X1680900Y40805D01*
X1680814Y41163D01*
X1680738Y41524D01*
X1680671Y41886D01*
X1680612Y42249D01*
X1680563Y42614D01*
X1680522Y42980D01*
X1680491Y43347D01*
X1680468Y43714D01*
X1680455Y44082D01*
X1680450Y44450D01*
X35800Y50800D02*
X35805Y51168D01*
X35818Y51536D01*
X35841Y51903D01*
X35872Y52270D01*
X35913Y52636D01*
X35962Y53001D01*
X36021Y53364D01*
X36088Y53726D01*
X36164Y54087D01*
X36250Y54445D01*
X36343Y54801D01*
X36446Y55154D01*
X36557Y55505D01*
X36677Y55853D01*
X36805Y56198D01*
X36942Y56540D01*
X37087Y56879D01*
X37240Y57213D01*
X37402Y57544D01*
X37571Y57871D01*
X37749Y58193D01*
X37934Y58512D01*
X38127Y58825D01*
X38328Y59134D01*
X38536Y59437D01*
X38752Y59735D01*
X38975Y60028D01*
X39205Y60316D01*
X39442Y60598D01*
X39686Y60873D01*
X39936Y61143D01*
X40193Y61407D01*
X40457Y61664D01*
X40727Y61914D01*
X41002Y62158D01*
X41284Y62395D01*
X41572Y62625D01*
X41865Y62848D01*
X42163Y63064D01*
X42466Y63272D01*
X42775Y63473D01*
X43088Y63666D01*
X43407Y63851D01*
X43729Y64029D01*
X44056Y64198D01*
X44387Y64360D01*
X44721Y64513D01*
X45060Y64658D01*
X45402Y64795D01*
X45747Y64923D01*
X46095Y65043D01*
X46446Y65154D01*
X46799Y65257D01*
X47155Y65350D01*
X47513Y65436D01*
X47874Y65512D01*
X48236Y65579D01*
X48599Y65638D01*
X48964Y65687D01*
X49330Y65728D01*
X49697Y65759D01*
X50064Y65782D01*
X50432Y65795D01*
X50800Y65800D01*
X51168Y65795D01*
X51536Y65782D01*
X51903Y65759D01*
X52270Y65728D01*
X52636Y65687D01*
X53001Y65638D01*
X53364Y65579D01*
X53726Y65512D01*
X54087Y65436D01*
X54445Y65350D01*
X54801Y65257D01*
X55154Y65154D01*
X55505Y65043D01*
X55853Y64923D01*
X56198Y64795D01*
X56540Y64658D01*
X56879Y64513D01*
X57213Y64360D01*
X57544Y64198D01*
X57871Y64029D01*
X58193Y63851D01*
X58512Y63666D01*
X58825Y63473D01*
X59134Y63272D01*
X59437Y63064D01*
X59735Y62848D01*
X60028Y62625D01*
X60316Y62395D01*
X60598Y62158D01*
X60873Y61914D01*
X61143Y61664D01*
X61407Y61407D01*
X61664Y61143D01*
X61914Y60873D01*
X62158Y60598D01*
X62395Y60316D01*
X62625Y60028D01*
X62848Y59735D01*
X63064Y59437D01*
X63272Y59134D01*
X63473Y58825D01*
X63666Y58512D01*
X63851Y58193D01*
X64029Y57871D01*
X64198Y57544D01*
X64360Y57213D01*
X64513Y56879D01*
X64658Y56540D01*
X64795Y56198D01*
X64923Y55853D01*
X65043Y55505D01*
X65154Y55154D01*
X65257Y54801D01*
X65350Y54445D01*
X65436Y54087D01*
X65512Y53726D01*
X65579Y53364D01*
X65638Y53001D01*
X65687Y52636D01*
X65728Y52270D01*
X65759Y51903D01*
X65782Y51536D01*
X65795Y51168D01*
X65800Y50800D01*
X65795Y50432D01*
X65782Y50064D01*
X65759Y49697D01*
X65728Y49330D01*
X65687Y48964D01*
X65638Y48599D01*
X65579Y48236D01*
X65512Y47874D01*
X65436Y47513D01*
X65350Y47155D01*
X65257Y46799D01*
X65154Y46446D01*
X65043Y46095D01*
X64923Y45747D01*
X64795Y45402D01*
X64658Y45060D01*
X64513Y44721D01*
X64360Y44387D01*
X64198Y44056D01*
X64029Y43729D01*
X63851Y43407D01*
X63666Y43088D01*
X63473Y42775D01*
X63272Y42466D01*
X63064Y42163D01*
X62848Y41865D01*
X62625Y41572D01*
X62395Y41284D01*
X62158Y41002D01*
X61914Y40727D01*
X61664Y40457D01*
X61407Y40193D01*
X61143Y39936D01*
X60873Y39686D01*
X60598Y39442D01*
X60316Y39205D01*
X60028Y38975D01*
X59735Y38752D01*
X59437Y38536D01*
X59134Y38328D01*
X58825Y38127D01*
X58512Y37934D01*
X58193Y37749D01*
X57871Y37571D01*
X57544Y37402D01*
X57213Y37240D01*
X56879Y37087D01*
X56540Y36942D01*
X56198Y36805D01*
X55853Y36677D01*
X55505Y36557D01*
X55154Y36446D01*
X54801Y36343D01*
X54445Y36250D01*
X54087Y36164D01*
X53726Y36088D01*
X53364Y36021D01*
X53001Y35962D01*
X52636Y35913D01*
X52270Y35872D01*
X51903Y35841D01*
X51536Y35818D01*
X51168Y35805D01*
X50800Y35800D01*
X50432Y35805D01*
X50064Y35818D01*
X49697Y35841D01*
X49330Y35872D01*
X48964Y35913D01*
X48599Y35962D01*
X48236Y36021D01*
X47874Y36088D01*
X47513Y36164D01*
X47155Y36250D01*
X46799Y36343D01*
X46446Y36446D01*
X46095Y36557D01*
X45747Y36677D01*
X45402Y36805D01*
X45060Y36942D01*
X44721Y37087D01*
X44387Y37240D01*
X44056Y37402D01*
X43729Y37571D01*
X43407Y37749D01*
X43088Y37934D01*
X42775Y38127D01*
X42466Y38328D01*
X42163Y38536D01*
X41865Y38752D01*
X41572Y38975D01*
X41284Y39205D01*
X41002Y39442D01*
X40727Y39686D01*
X40457Y39936D01*
X40193Y40193D01*
X39936Y40457D01*
X39686Y40727D01*
X39442Y41002D01*
X39205Y41284D01*
X38975Y41572D01*
X38752Y41865D01*
X38536Y42163D01*
X38328Y42466D01*
X38127Y42775D01*
X37934Y43088D01*
X37749Y43407D01*
X37571Y43729D01*
X37402Y44056D01*
X37240Y44387D01*
X37087Y44721D01*
X36942Y45060D01*
X36805Y45402D01*
X36677Y45747D01*
X36557Y46095D01*
X36446Y46446D01*
X36343Y46799D01*
X36250Y47155D01*
X36164Y47513D01*
X36088Y47874D01*
X36021Y48236D01*
X35962Y48599D01*
X35913Y48964D01*
X35872Y49330D01*
X35841Y49697D01*
X35818Y50064D01*
X35805Y50432D01*
X35800Y50800D01*
X701050Y127000D02*
X701055Y127405D01*
X701070Y127810D01*
X701095Y128214D01*
X701129Y128617D01*
X701174Y129020D01*
X701229Y129421D01*
X701293Y129821D01*
X701367Y130219D01*
X701451Y130615D01*
X701544Y131009D01*
X701648Y131401D01*
X701760Y131790D01*
X701883Y132176D01*
X702015Y132559D01*
X702156Y132938D01*
X702306Y133314D01*
X702466Y133686D01*
X702634Y134055D01*
X702812Y134419D01*
X702998Y134778D01*
X703194Y135133D01*
X703397Y135483D01*
X703610Y135827D01*
X703831Y136167D01*
X704060Y136501D01*
X704297Y136829D01*
X704542Y137151D01*
X704795Y137467D01*
X705056Y137777D01*
X705324Y138081D01*
X705600Y138377D01*
X705883Y138667D01*
X706173Y138950D01*
X706469Y139226D01*
X706773Y139494D01*
X707083Y139755D01*
X707399Y140008D01*
X707721Y140253D01*
X708049Y140490D01*
X708383Y140719D01*
X708723Y140940D01*
X709067Y141153D01*
X709417Y141356D01*
X709772Y141552D01*
X710131Y141738D01*
X710495Y141916D01*
X710864Y142084D01*
X711236Y142244D01*
X711612Y142394D01*
X711991Y142535D01*
X712374Y142667D01*
X712760Y142790D01*
X713149Y142902D01*
X713541Y143006D01*
X713935Y143099D01*
X714331Y143183D01*
X714729Y143257D01*
X715129Y143321D01*
X715530Y143376D01*
X715933Y143421D01*
X716336Y143455D01*
X716740Y143480D01*
X717145Y143495D01*
X717550Y143500D01*
X717955Y143495D01*
X718360Y143480D01*
X718764Y143455D01*
X719167Y143421D01*
X719570Y143376D01*
X719971Y143321D01*
X720371Y143257D01*
X720769Y143183D01*
X721165Y143099D01*
X721559Y143006D01*
X721951Y142902D01*
X722340Y142790D01*
X722726Y142667D01*
X723109Y142535D01*
X723488Y142394D01*
X723864Y142244D01*
X724236Y142084D01*
X724605Y141916D01*
X724969Y141738D01*
X725328Y141552D01*
X725683Y141356D01*
X726033Y141153D01*
X726377Y140940D01*
X726717Y140719D01*
X727051Y140490D01*
X727379Y140253D01*
X727701Y140008D01*
X728017Y139755D01*
X728327Y139494D01*
X728631Y139226D01*
X728927Y138950D01*
X729217Y138667D01*
X729500Y138377D01*
X729776Y138081D01*
X730044Y137777D01*
X730305Y137467D01*
X730558Y137151D01*
X730803Y136829D01*
X731040Y136501D01*
X731269Y136167D01*
X731490Y135827D01*
X731703Y135483D01*
X731906Y135133D01*
X732102Y134778D01*
X732288Y134419D01*
X732466Y134055D01*
X732634Y133686D01*
X732794Y133314D01*
X732944Y132938D01*
X733085Y132559D01*
X733217Y132176D01*
X733340Y131790D01*
X733452Y131401D01*
X733556Y131009D01*
X733649Y130615D01*
X733733Y130219D01*
X733807Y129821D01*
X733871Y129421D01*
X733926Y129020D01*
X733971Y128617D01*
X734005Y128214D01*
X734030Y127810D01*
X734045Y127405D01*
X734050Y127000D01*
X734045Y126595D01*
X734030Y126190D01*
X734005Y125786D01*
X733971Y125383D01*
X733926Y124980D01*
X733871Y124579D01*
X733807Y124179D01*
X733733Y123781D01*
X733649Y123385D01*
X733556Y122991D01*
X733452Y122599D01*
X733340Y122210D01*
X733217Y121824D01*
X733085Y121441D01*
X732944Y121062D01*
X732794Y120686D01*
X732634Y120314D01*
X732466Y119945D01*
X732288Y119581D01*
X732102Y119222D01*
X731906Y118867D01*
X731703Y118517D01*
X731490Y118173D01*
X731269Y117833D01*
X731040Y117499D01*
X730803Y117171D01*
X730558Y116849D01*
X730305Y116533D01*
X730044Y116223D01*
X729776Y115919D01*
X729500Y115623D01*
X729217Y115333D01*
X728927Y115050D01*
X728631Y114774D01*
X728327Y114506D01*
X728017Y114245D01*
X727701Y113992D01*
X727379Y113747D01*
X727051Y113510D01*
X726717Y113281D01*
X726377Y113060D01*
X726033Y112847D01*
X725683Y112644D01*
X725328Y112448D01*
X724969Y112262D01*
X724605Y112084D01*
X724236Y111916D01*
X723864Y111756D01*
X723488Y111606D01*
X723109Y111465D01*
X722726Y111333D01*
X722340Y111210D01*
X721951Y111098D01*
X721559Y110994D01*
X721165Y110901D01*
X720769Y110817D01*
X720371Y110743D01*
X719971Y110679D01*
X719570Y110624D01*
X719167Y110579D01*
X718764Y110545D01*
X718360Y110520D01*
X717955Y110505D01*
X717550Y110500D01*
X717145Y110505D01*
X716740Y110520D01*
X716336Y110545D01*
X715933Y110579D01*
X715530Y110624D01*
X715129Y110679D01*
X714729Y110743D01*
X714331Y110817D01*
X713935Y110901D01*
X713541Y110994D01*
X713149Y111098D01*
X712760Y111210D01*
X712374Y111333D01*
X711991Y111465D01*
X711612Y111606D01*
X711236Y111756D01*
X710864Y111916D01*
X710495Y112084D01*
X710131Y112262D01*
X709772Y112448D01*
X709417Y112644D01*
X709067Y112847D01*
X708723Y113060D01*
X708383Y113281D01*
X708049Y113510D01*
X707721Y113747D01*
X707399Y113992D01*
X707083Y114245D01*
X706773Y114506D01*
X706469Y114774D01*
X706173Y115050D01*
X705883Y115333D01*
X705600Y115623D01*
X705324Y115919D01*
X705056Y116223D01*
X704795Y116533D01*
X704542Y116849D01*
X704297Y117171D01*
X704060Y117499D01*
X703831Y117833D01*
X703610Y118173D01*
X703397Y118517D01*
X703194Y118867D01*
X702998Y119222D01*
X702812Y119581D01*
X702634Y119945D01*
X702466Y120314D01*
X702306Y120686D01*
X702156Y121062D01*
X702015Y121441D01*
X701883Y121824D01*
X701760Y122210D01*
X701648Y122599D01*
X701544Y122991D01*
X701451Y123385D01*
X701367Y123781D01*
X701293Y124179D01*
X701229Y124579D01*
X701174Y124980D01*
X701129Y125383D01*
X701095Y125786D01*
X701070Y126190D01*
X701055Y126595D01*
X701050Y127000D01*
X1311920Y127000D02*
X1311925Y127405D01*
X1311940Y127810D01*
X1311965Y128214D01*
X1311999Y128617D01*
X1312044Y129020D01*
X1312099Y129421D01*
X1312163Y129821D01*
X1312237Y130219D01*
X1312321Y130615D01*
X1312414Y131009D01*
X1312518Y131401D01*
X1312630Y131790D01*
X1312753Y132176D01*
X1312885Y132559D01*
X1313026Y132938D01*
X1313176Y133314D01*
X1313336Y133686D01*
X1313504Y134055D01*
X1313682Y134419D01*
X1313868Y134778D01*
X1314064Y135133D01*
X1314267Y135483D01*
X1314480Y135827D01*
X1314701Y136167D01*
X1314930Y136501D01*
X1315167Y136829D01*
X1315412Y137151D01*
X1315665Y137467D01*
X1315926Y137777D01*
X1316194Y138081D01*
X1316470Y138377D01*
X1316753Y138667D01*
X1317043Y138950D01*
X1317339Y139226D01*
X1317643Y139494D01*
X1317953Y139755D01*
X1318269Y140008D01*
X1318591Y140253D01*
X1318919Y140490D01*
X1319253Y140719D01*
X1319593Y140940D01*
X1319937Y141153D01*
X1320287Y141356D01*
X1320642Y141552D01*
X1321001Y141738D01*
X1321365Y141916D01*
X1321734Y142084D01*
X1322106Y142244D01*
X1322482Y142394D01*
X1322861Y142535D01*
X1323244Y142667D01*
X1323630Y142790D01*
X1324019Y142902D01*
X1324411Y143006D01*
X1324805Y143099D01*
X1325201Y143183D01*
X1325599Y143257D01*
X1325999Y143321D01*
X1326400Y143376D01*
X1326803Y143421D01*
X1327206Y143455D01*
X1327610Y143480D01*
X1328015Y143495D01*
X1328420Y143500D01*
X1328825Y143495D01*
X1329230Y143480D01*
X1329634Y143455D01*
X1330037Y143421D01*
X1330440Y143376D01*
X1330841Y143321D01*
X1331241Y143257D01*
X1331639Y143183D01*
X1332035Y143099D01*
X1332429Y143006D01*
X1332821Y142902D01*
X1333210Y142790D01*
X1333596Y142667D01*
X1333979Y142535D01*
X1334358Y142394D01*
X1334734Y142244D01*
X1335106Y142084D01*
X1335475Y141916D01*
X1335839Y141738D01*
X1336198Y141552D01*
X1336553Y141356D01*
X1336903Y141153D01*
X1337247Y140940D01*
X1337587Y140719D01*
X1337921Y140490D01*
X1338249Y140253D01*
X1338571Y140008D01*
X1338887Y139755D01*
X1339197Y139494D01*
X1339501Y139226D01*
X1339797Y138950D01*
X1340087Y138667D01*
X1340370Y138377D01*
X1340646Y138081D01*
X1340914Y137777D01*
X1341175Y137467D01*
X1341428Y137151D01*
X1341673Y136829D01*
X1341910Y136501D01*
X1342139Y136167D01*
X1342360Y135827D01*
X1342573Y135483D01*
X1342776Y135133D01*
X1342972Y134778D01*
X1343158Y134419D01*
X1343336Y134055D01*
X1343504Y133686D01*
X1343664Y133314D01*
X1343814Y132938D01*
X1343955Y132559D01*
X1344087Y132176D01*
X1344210Y131790D01*
X1344322Y131401D01*
X1344426Y131009D01*
X1344519Y130615D01*
X1344603Y130219D01*
X1344677Y129821D01*
X1344741Y129421D01*
X1344796Y129020D01*
X1344841Y128617D01*
X1344875Y128214D01*
X1344900Y127810D01*
X1344915Y127405D01*
X1344920Y127000D01*
X1344915Y126595D01*
X1344900Y126190D01*
X1344875Y125786D01*
X1344841Y125383D01*
X1344796Y124980D01*
X1344741Y124579D01*
X1344677Y124179D01*
X1344603Y123781D01*
X1344519Y123385D01*
X1344426Y122991D01*
X1344322Y122599D01*
X1344210Y122210D01*
X1344087Y121824D01*
X1343955Y121441D01*
X1343814Y121062D01*
X1343664Y120686D01*
X1343504Y120314D01*
X1343336Y119945D01*
X1343158Y119581D01*
X1342972Y119222D01*
X1342776Y118867D01*
X1342573Y118517D01*
X1342360Y118173D01*
X1342139Y117833D01*
X1341910Y117499D01*
X1341673Y117171D01*
X1341428Y116849D01*
X1341175Y116533D01*
X1340914Y116223D01*
X1340646Y115919D01*
X1340370Y115623D01*
X1340087Y115333D01*
X1339797Y115050D01*
X1339501Y114774D01*
X1339197Y114506D01*
X1338887Y114245D01*
X1338571Y113992D01*
X1338249Y113747D01*
X1337921Y113510D01*
X1337587Y113281D01*
X1337247Y113060D01*
X1336903Y112847D01*
X1336553Y112644D01*
X1336198Y112448D01*
X1335839Y112262D01*
X1335475Y112084D01*
X1335106Y111916D01*
X1334734Y111756D01*
X1334358Y111606D01*
X1333979Y111465D01*
X1333596Y111333D01*
X1333210Y111210D01*
X1332821Y111098D01*
X1332429Y110994D01*
X1332035Y110901D01*
X1331639Y110817D01*
X1331241Y110743D01*
X1330841Y110679D01*
X1330440Y110624D01*
X1330037Y110579D01*
X1329634Y110545D01*
X1329230Y110520D01*
X1328825Y110505D01*
X1328420Y110500D01*
X1328015Y110505D01*
X1327610Y110520D01*
X1327206Y110545D01*
X1326803Y110579D01*
X1326400Y110624D01*
X1325999Y110679D01*
X1325599Y110743D01*
X1325201Y110817D01*
X1324805Y110901D01*
X1324411Y110994D01*
X1324019Y111098D01*
X1323630Y111210D01*
X1323244Y111333D01*
X1322861Y111465D01*
X1322482Y111606D01*
X1322106Y111756D01*
X1321734Y111916D01*
X1321365Y112084D01*
X1321001Y112262D01*
X1320642Y112448D01*
X1320287Y112644D01*
X1319937Y112847D01*
X1319593Y113060D01*
X1319253Y113281D01*
X1318919Y113510D01*
X1318591Y113747D01*
X1318269Y113992D01*
X1317953Y114245D01*
X1317643Y114506D01*
X1317339Y114774D01*
X1317043Y115050D01*
X1316753Y115333D01*
X1316470Y115623D01*
X1316194Y115919D01*
X1315926Y116223D01*
X1315665Y116533D01*
X1315412Y116849D01*
X1315167Y117171D01*
X1314930Y117499D01*
X1314701Y117833D01*
X1314480Y118173D01*
X1314267Y118517D01*
X1314064Y118867D01*
X1313868Y119222D01*
X1313682Y119581D01*
X1313504Y119945D01*
X1313336Y120314D01*
X1313176Y120686D01*
X1313026Y121062D01*
X1312885Y121441D01*
X1312753Y121824D01*
X1312630Y122210D01*
X1312518Y122599D01*
X1312414Y122991D01*
X1312321Y123385D01*
X1312237Y123781D01*
X1312163Y124179D01*
X1312099Y124579D01*
X1312044Y124980D01*
X1311999Y125383D01*
X1311965Y125786D01*
X1311940Y126190D01*
X1311925Y126595D01*
X1311920Y127000D01*
D11*
X0Y50800D02*
X193Y46373D01*
X772Y41979D01*
X1731Y37652D01*
X3064Y33425D01*
X4760Y29331D01*
X6806Y25400D01*
X9187Y21662D01*
X11885Y18146D01*
X14879Y14879D01*
X18146Y11885D01*
X21662Y9187D01*
X25400Y6806D01*
X29331Y4760D01*
X33425Y3064D01*
X37652Y1731D01*
X41979Y772D01*
X46373Y193D01*
X50800Y0D01*
X1688900Y0D01*
X1693328Y193D01*
X1697721Y772D01*
X1702048Y1731D01*
X1706275Y3064D01*
X1710369Y4760D01*
X1714300Y6806D01*
X1718038Y9187D01*
X1721554Y11885D01*
X1724821Y14879D01*
X1727815Y18146D01*
X1730513Y21662D01*
X1732894Y25400D01*
X1734940Y29331D01*
X1736636Y33425D01*
X1737969Y37652D01*
X1738928Y41979D01*
X1739507Y46373D01*
X1739700Y50800D01*
X1739700Y847600D01*
X1739507Y852028D01*
X1738928Y856421D01*
X1737969Y860748D01*
X1736636Y864975D01*
X1734940Y869069D01*
X1732894Y873000D01*
X1730513Y876738D01*
X1727815Y880254D01*
X1724821Y883521D01*
X1721554Y886515D01*
X1718038Y889213D01*
X1714300Y891594D01*
X1710369Y893640D01*
X1706275Y895336D01*
X1702048Y896669D01*
X1697721Y897628D01*
X1693328Y898207D01*
X1688900Y898400D01*
X50800Y898400D01*
X46373Y898207D01*
X41979Y897628D01*
X37652Y896669D01*
X33425Y895336D01*
X29331Y893640D01*
X25400Y891594D01*
X21662Y889213D01*
X18146Y886515D01*
X14879Y883521D01*
X11885Y880254D01*
X9187Y876738D01*
X6806Y873000D01*
X4760Y869069D01*
X3064Y864975D01*
X1731Y860748D01*
X772Y856421D01*
X193Y852028D01*
X0Y847600D01*
X0Y50800D01*
X1710450Y856714D02*
X1710374Y855646D01*
X1710221Y854585D01*
X1709993Y853538D01*
X1709691Y852510D01*
X1709317Y851506D01*
X1708872Y850531D01*
X1708358Y849591D01*
X1707779Y848690D01*
X1707137Y847832D01*
X1706435Y847022D01*
X1705678Y846265D01*
X1704868Y845563D01*
X1704010Y844921D01*
X1703109Y844342D01*
X1702169Y843828D01*
X1701194Y843383D01*
X1700190Y843009D01*
X1699162Y842707D01*
X1698115Y842479D01*
X1697054Y842326D01*
X1695986Y842250D01*
X1694914Y842250D01*
X1693846Y842326D01*
X1692785Y842479D01*
X1691738Y842707D01*
X1690710Y843009D01*
X1689706Y843383D01*
X1688731Y843828D01*
X1687791Y844342D01*
X1686890Y844921D01*
X1686032Y845563D01*
X1685222Y846265D01*
X1684465Y847022D01*
X1683763Y847832D01*
X1683121Y848690D01*
X1682542Y849591D01*
X1682028Y850531D01*
X1681583Y851506D01*
X1681209Y852510D01*
X1680907Y853538D01*
X1680679Y854585D01*
X1680526Y855646D01*
X1680450Y856714D01*
X1680450Y857786D01*
X1680526Y858854D01*
X1680679Y859915D01*
X1680907Y860962D01*
X1681209Y861990D01*
X1681583Y862994D01*
X1682028Y863969D01*
X1682542Y864909D01*
X1683121Y865810D01*
X1683763Y866668D01*
X1684465Y867478D01*
X1685222Y868235D01*
X1686032Y868937D01*
X1686890Y869579D01*
X1687791Y870158D01*
X1688731Y870672D01*
X1689706Y871117D01*
X1690710Y871491D01*
X1691738Y871793D01*
X1692785Y872021D01*
X1693846Y872174D01*
X1694914Y872250D01*
X1695986Y872250D01*
X1697054Y872174D01*
X1698115Y872021D01*
X1699162Y871793D01*
X1700190Y871491D01*
X1701194Y871117D01*
X1702169Y870672D01*
X1703109Y870158D01*
X1704010Y869579D01*
X1704868Y868937D01*
X1705678Y868235D01*
X1706435Y867478D01*
X1707137Y866668D01*
X1707779Y865810D01*
X1708358Y864909D01*
X1708872Y863969D01*
X1709317Y862994D01*
X1709691Y861990D01*
X1709993Y860962D01*
X1710221Y859915D01*
X1710374Y858854D01*
X1710450Y857786D01*
X1710450Y856714D01*
X1710450Y43914D02*
X1710374Y42846D01*
X1710221Y41785D01*
X1709993Y40738D01*
X1709691Y39710D01*
X1709317Y38706D01*
X1708872Y37731D01*
X1708358Y36791D01*
X1707779Y35890D01*
X1707137Y35032D01*
X1706435Y34222D01*
X1705678Y33465D01*
X1704868Y32763D01*
X1704010Y32121D01*
X1703109Y31542D01*
X1702169Y31028D01*
X1701194Y30583D01*
X1700190Y30209D01*
X1699162Y29907D01*
X1698115Y29679D01*
X1697054Y29526D01*
X1695986Y29450D01*
X1694914Y29450D01*
X1693846Y29526D01*
X1692785Y29679D01*
X1691738Y29907D01*
X1690710Y30209D01*
X1689706Y30583D01*
X1688731Y31028D01*
X1687791Y31542D01*
X1686890Y32121D01*
X1686032Y32763D01*
X1685222Y33465D01*
X1684465Y34222D01*
X1683763Y35032D01*
X1683121Y35890D01*
X1682542Y36791D01*
X1682028Y37731D01*
X1681583Y38706D01*
X1681209Y39710D01*
X1680907Y40738D01*
X1680679Y41785D01*
X1680526Y42846D01*
X1680450Y43914D01*
X1680450Y44986D01*
X1680526Y46054D01*
X1680679Y47115D01*
X1680907Y48162D01*
X1681209Y49190D01*
X1681583Y50194D01*
X1682028Y51169D01*
X1682542Y52109D01*
X1683121Y53010D01*
X1683763Y53868D01*
X1684465Y54678D01*
X1685222Y55435D01*
X1686032Y56137D01*
X1686890Y56779D01*
X1687791Y57358D01*
X1688731Y57872D01*
X1689706Y58317D01*
X1690710Y58691D01*
X1691738Y58993D01*
X1692785Y59221D01*
X1693846Y59374D01*
X1694914Y59450D01*
X1695986Y59450D01*
X1697054Y59374D01*
X1698115Y59221D01*
X1699162Y58993D01*
X1700190Y58691D01*
X1701194Y58317D01*
X1702169Y57872D01*
X1703109Y57358D01*
X1704010Y56779D01*
X1704868Y56137D01*
X1705678Y55435D01*
X1706435Y54678D01*
X1707137Y53868D01*
X1707779Y53010D01*
X1708358Y52109D01*
X1708872Y51169D01*
X1709317Y50194D01*
X1709691Y49190D01*
X1709993Y48162D01*
X1710221Y47115D01*
X1710374Y46054D01*
X1710450Y44986D01*
X1710450Y43914D01*
X65800Y50264D02*
X65724Y49196D01*
X65571Y48135D01*
X65343Y47088D01*
X65041Y46060D01*
X64667Y45056D01*
X64222Y44081D01*
X63708Y43141D01*
X63129Y42240D01*
X62487Y41382D01*
X61785Y40572D01*
X61028Y39815D01*
X60218Y39113D01*
X59360Y38471D01*
X58459Y37892D01*
X57519Y37378D01*
X56544Y36933D01*
X55540Y36559D01*
X54512Y36257D01*
X53465Y36029D01*
X52404Y35876D01*
X51336Y35800D01*
X50264Y35800D01*
X49196Y35876D01*
X48135Y36029D01*
X47088Y36257D01*
X46060Y36559D01*
X45056Y36933D01*
X44081Y37378D01*
X43141Y37892D01*
X42240Y38471D01*
X41382Y39113D01*
X40572Y39815D01*
X39815Y40572D01*
X39113Y41382D01*
X38471Y42240D01*
X37892Y43141D01*
X37378Y44081D01*
X36933Y45056D01*
X36559Y46060D01*
X36257Y47088D01*
X36029Y48135D01*
X35876Y49196D01*
X35800Y50264D01*
X35800Y51336D01*
X35876Y52404D01*
X36029Y53465D01*
X36257Y54512D01*
X36559Y55540D01*
X36933Y56544D01*
X37378Y57519D01*
X37892Y58459D01*
X38471Y59360D01*
X39113Y60218D01*
X39815Y61028D01*
X40572Y61785D01*
X41382Y62487D01*
X42240Y63129D01*
X43141Y63708D01*
X44081Y64222D01*
X45056Y64667D01*
X46060Y65041D01*
X47088Y65343D01*
X48135Y65571D01*
X49196Y65724D01*
X50264Y65800D01*
X51336Y65800D01*
X52404Y65724D01*
X53465Y65571D01*
X54512Y65343D01*
X55540Y65041D01*
X56544Y64667D01*
X57519Y64222D01*
X58459Y63708D01*
X59360Y63129D01*
X60218Y62487D01*
X61028Y61785D01*
X61785Y61028D01*
X62487Y60218D01*
X63129Y59360D01*
X63708Y58459D01*
X64222Y57519D01*
X64667Y56544D01*
X65041Y55540D01*
X65343Y54512D01*
X65571Y53465D01*
X65724Y52404D01*
X65800Y51336D01*
X65800Y50264D01*
X734050Y126460D02*
X733979Y125382D01*
X733838Y124311D01*
X733628Y123251D01*
X733348Y122208D01*
X733001Y121185D01*
X732587Y120187D01*
X732110Y119218D01*
X731569Y118282D01*
X730969Y117384D01*
X730312Y116527D01*
X729599Y115715D01*
X728835Y114951D01*
X728023Y114239D01*
X727166Y113581D01*
X726268Y112981D01*
X725332Y112441D01*
X724363Y111963D01*
X723365Y111549D01*
X722342Y111202D01*
X721299Y110922D01*
X720239Y110712D01*
X719168Y110571D01*
X718090Y110500D01*
X717010Y110500D01*
X715932Y110571D01*
X714861Y110712D01*
X713801Y110922D01*
X712758Y111202D01*
X711735Y111549D01*
X710737Y111963D01*
X709768Y112441D01*
X708832Y112981D01*
X707934Y113581D01*
X707077Y114239D01*
X706265Y114951D01*
X705501Y115715D01*
X704789Y116527D01*
X704131Y117384D01*
X703531Y118282D01*
X702991Y119218D01*
X702513Y120187D01*
X702099Y121185D01*
X701752Y122208D01*
X701472Y123251D01*
X701262Y124311D01*
X701121Y125382D01*
X701050Y126460D01*
X701050Y127540D01*
X701121Y128618D01*
X701262Y129689D01*
X701472Y130749D01*
X701752Y131792D01*
X702099Y132815D01*
X702513Y133813D01*
X702991Y134782D01*
X703531Y135718D01*
X704131Y136616D01*
X704789Y137473D01*
X705501Y138285D01*
X706265Y139049D01*
X707077Y139762D01*
X707934Y140419D01*
X708832Y141019D01*
X709768Y141560D01*
X710737Y142037D01*
X711735Y142451D01*
X712758Y142798D01*
X713801Y143078D01*
X714861Y143288D01*
X715932Y143429D01*
X717010Y143500D01*
X718090Y143500D01*
X719168Y143429D01*
X720239Y143288D01*
X721299Y143078D01*
X722342Y142798D01*
X723365Y142451D01*
X724363Y142037D01*
X725332Y141560D01*
X726268Y141019D01*
X727166Y140419D01*
X728023Y139762D01*
X728835Y139049D01*
X729599Y138285D01*
X730312Y137473D01*
X730969Y136616D01*
X731569Y135718D01*
X732110Y134782D01*
X732587Y133813D01*
X733001Y132815D01*
X733348Y131792D01*
X733628Y130749D01*
X733838Y129689D01*
X733979Y128618D01*
X734050Y127540D01*
X734050Y126460D01*
X1344920Y126460D02*
X1344849Y125382D01*
X1344708Y124311D01*
X1344498Y123251D01*
X1344218Y122208D01*
X1343871Y121185D01*
X1343457Y120187D01*
X1342980Y119218D01*
X1342439Y118282D01*
X1341839Y117384D01*
X1341182Y116527D01*
X1340469Y115715D01*
X1339705Y114951D01*
X1338893Y114239D01*
X1338036Y113581D01*
X1337138Y112981D01*
X1336202Y112441D01*
X1335233Y111963D01*
X1334235Y111549D01*
X1333212Y111202D01*
X1332169Y110922D01*
X1331109Y110712D01*
X1330038Y110571D01*
X1328960Y110500D01*
X1327880Y110500D01*
X1326802Y110571D01*
X1325731Y110712D01*
X1324671Y110922D01*
X1323628Y111202D01*
X1322605Y111549D01*
X1321607Y111963D01*
X1320638Y112441D01*
X1319702Y112981D01*
X1318804Y113581D01*
X1317947Y114239D01*
X1317135Y114951D01*
X1316371Y115715D01*
X1315659Y116527D01*
X1315001Y117384D01*
X1314401Y118282D01*
X1313861Y119218D01*
X1313383Y120187D01*
X1312969Y121185D01*
X1312622Y122208D01*
X1312342Y123251D01*
X1312132Y124311D01*
X1311991Y125382D01*
X1311920Y126460D01*
X1311920Y127540D01*
X1311991Y128618D01*
X1312132Y129689D01*
X1312342Y130749D01*
X1312622Y131792D01*
X1312969Y132815D01*
X1313383Y133813D01*
X1313861Y134782D01*
X1314401Y135718D01*
X1315001Y136616D01*
X1315659Y137473D01*
X1316371Y138285D01*
X1317135Y139049D01*
X1317947Y139762D01*
X1318804Y140419D01*
X1319702Y141019D01*
X1320638Y141560D01*
X1321607Y142037D01*
X1322605Y142451D01*
X1323628Y142798D01*
X1324671Y143078D01*
X1325731Y143288D01*
X1326802Y143429D01*
X1327880Y143500D01*
X1328960Y143500D01*
X1330038Y143429D01*
X1331109Y143288D01*
X1332169Y143078D01*
X1333212Y142798D01*
X1334235Y142451D01*
X1335233Y142037D01*
X1336202Y141560D01*
X1337138Y141019D01*
X1338036Y140419D01*
X1338893Y139762D01*
X1339705Y139049D01*
X1340469Y138285D01*
X1341182Y137473D01*
X1341839Y136616D01*
X1342439Y135718D01*
X1342980Y134782D01*
X1343457Y133813D01*
X1343871Y132815D01*
X1344218Y131792D01*
X1344498Y130749D01*
X1344708Y129689D01*
X1344849Y128618D01*
X1344920Y127540D01*
X1344920Y126460D01*
M02*
